<svg xmlns="http://www.w3.org/2000/svg" xmlns:xlink="http://www.w3.org/1999/xlink" viewBox="0 0 161.43 103.91"><defs><style>.cls-1,.cls-12,.cls-2,.cls-7{fill:none;}.cls-2{clip-rule:evenodd;}.cls-3{fill:#e6e6e6;}.cls-10,.cls-4{fill:#252545;}.cls-5{fill:#78cddb;}.cls-6{clip-path:url(#clip-path);}.cls-12,.cls-7{stroke:#fff;stroke-miterlimit:10;}.cls-7{stroke-width:2px;}.cls-8{fill:#1a1a1a;}.cls-10,.cls-8{opacity:0.41;mix-blend-mode:darken;}.cls-9{fill:#f2f2f2;}.cls-11{clip-path:url(#clip-path-2);}.cls-12{stroke-linecap:round;stroke-width:14px;opacity:0.6;}.cls-13{fill:#fff;}.cls-14{clip-path:url(#clip-path-3);}.cls-15{isolation:isolate;}.cls-16{clip-path:url(#clip-path-4);}.cls-17{clip-path:url(#clip-path-5);}.cls-18{clip-path:url(#clip-path-6);}.cls-19{fill:#71be49;}.cls-20{fill:#ccc;}.cls-21{fill:#fcd72a;}</style><clipPath id="clip-path"><rect class="cls-1" x="105.64" y="26.12" width="10.45" height="10.45"/></clipPath><clipPath id="clip-path-2"><rect class="cls-1" x="93.12" y="19.82" width="10.45" height="10.45"/></clipPath><clipPath id="clip-path-3"><rect class="cls-1" x="29.97" y="26.12" width="10.45" height="10.45"/></clipPath><clipPath id="clip-path-4"><rect class="cls-1" x="4.74" y="68.65" width="14.65" height="11.2"/></clipPath><clipPath id="clip-path-5"><path class="cls-2" d="M11.32,79.13c-2.77.65-4.61-2.66-5.25-4,.54,1,1.69,2.76,3.28,3.27,2.25.71,3.65-.39,4.49-2.28,1.08-2.45,1.82-3,2.74-3.64,1.32-.81,2.18-1,2.81,0-.62-1-1.93-.62-3.48.88C14,75.2,14.8,78.31,11.32,79.13Zm-4.38-3a11.35,11.35,0,0,1-1.09-1.56c-.9-1.85.89-1.48.89-1.48s-.64,0-.76.32a.74.74,0,0,0,1,.82c.33-.11.87-.53,1.46-1.74s2.63-3.78,5.26-2.32c2.25,1.26,3.08,1.52,3.88,1.42-1.31.16-1.79.13-4.4-.9-2.43-1-4.56,2.71-4.56,2.71s1.94-2.89,4.66-2a6.4,6.4,0,0,0,3.95.4l.43-.1-.17,0a7.07,7.07,0,0,0-2.29,1.12c-2.13,1.76-1.75,5.13-5.06,5.2A4.7,4.7,0,0,1,6.94,76.14Zm4.28-.71a.7.7,0,0,0,.79.79h.48v-.4H12a.34.34,0,0,1-.26-.09.41.41,0,0,1-.08-.27V73.9h-.41Zm-1.72.79h.75a.85.85,0,0,0,.56-.17.61.61,0,0,0,.22-.5.63.63,0,0,0-.06-.27.72.72,0,0,0-.17-.22,1.55,1.55,0,0,0-.38-.2l-.05,0-.15-.06a.85.85,0,0,1-.28-.15.26.26,0,0,1,0-.14.15.15,0,0,1,.06-.13.49.49,0,0,1,.27-.06h.68v-.4h-.64a1,1,0,0,0-.55.14.54.54,0,0,0-.22.46.58.58,0,0,0,.13.4,1.23,1.23,0,0,0,.47.28l.13.06a1,1,0,0,1,.33.17.2.2,0,0,1,0,.15c0,.11,0,.16-.08.18a.87.87,0,0,1-.42.07H9.5ZM7.77,75.06a1.2,1.2,0,0,0,.15.59,1.09,1.09,0,0,0,.42.43,1.25,1.25,0,0,0,.31.11,2.29,2.29,0,0,0,.39,0h.22v-.4H9a.85.85,0,0,1-.6-.19.68.68,0,0,1-.21-.41H9.26v-.4h-1a.69.69,0,0,1,.21-.35A.88.88,0,0,1,9,74.3h.25V73.9H9.05a2.41,2.41,0,0,0-.4,0,1.33,1.33,0,0,0-.32.12,1.1,1.1,0,0,0-.41.42A1.15,1.15,0,0,0,7.77,75.06Z"/></clipPath><clipPath id="clip-path-6"><rect class="cls-1" x="5.6" y="69.73" width="13.79" height="9.48"/></clipPath><symbol id="Shop_2" data-name="Shop 2" viewBox="0 0 124.41 73.28"><path class="cls-3" d="M122.72,66.65a6.61,6.61,0,0,1-6.61,6.61H82.44c-3.74,0-6.77-2.69-6.77-6V20h47.05Z"/><path class="cls-4" d="M122.72,20.18h-47V18.09a6,6,0,0,1,6-6h35.05a6,6,0,0,1,6,6Z"/><rect class="cls-5" x="105.64" y="26.13" width="10.52" height="10.52"/><rect class="cls-5" x="105.64" y="41.02" width="10.52" height="10.52"/><rect class="cls-5" x="82.62" y="26.13" width="10.52" height="10.52"/><rect class="cls-5" x="82.62" y="41.02" width="10.52" height="10.52"/><rect class="cls-5" x="105.64" y="55.91" width="10.52" height="10.52"/><g class="cls-6"><line class="cls-7" x1="123.5" y1="9.46" x2="106.31" y2="46.12"/></g><path class="cls-8" d="M99.08,73.27H81.67a6,6,0,0,1-6-6V18.09a6,6,0,0,1,6-6H99.08Z"/><rect class="cls-9" x="23.52" y="7.91" width="87.03" height="65.37"/><path class="cls-4" d="M110.55,8.09h-87V6a6,6,0,0,1,6-6h75a6,6,0,0,1,6,6Z"/><rect class="cls-5" x="62.48" y="19.83" width="10.52" height="10.52"/><rect class="cls-5" x="77.8" y="19.83" width="10.52" height="10.52"/><rect class="cls-5" x="34.25" y="19.83" width="10.52" height="10.52"/><rect class="cls-5" x="93.12" y="19.83" width="10.52" height="10.52"/><rect class="cls-5" x="62.48" y="39.98" width="41.16" height="33.3"/><rect class="cls-10" x="101.42" y="50.71" width="2.22" height="22.56"/><path class="cls-8" d="M54.59,7.91H23.52V6a6,6,0,0,1,6-6H54.59Z"/><rect class="cls-10" x="62.48" y="50.71" width="41.16" height="17.01"/><g class="cls-11"><line class="cls-12" x1="95.35" y1="9.29" x2="78.16" y2="45.95"/></g><polygon class="cls-13" points="76.43 55.44 71.18 55.44 62.48 39.98 67.72 39.98 76.43 55.44"/><polygon class="cls-13" points="86.92 55.44 81.67 55.44 72.97 39.98 78.21 39.98 86.92 55.44"/><polygon class="cls-13" points="97.41 55.44 92.17 55.44 83.46 39.98 88.7 39.98 97.41 55.44"/><polygon class="cls-13" points="107.9 55.44 102.66 55.44 93.95 39.98 99.19 39.98 107.9 55.44"/><polygon class="cls-4" points="81.67 55.44 76.43 55.44 67.72 39.98 72.97 39.98 81.67 55.44"/><polygon class="cls-4" points="92.17 55.44 86.92 55.44 78.21 39.98 83.46 39.98 92.17 55.44"/><polygon class="cls-4" points="102.66 55.44 97.41 55.44 88.7 39.98 93.95 39.98 102.66 55.44"/><polygon class="cls-4" points="113.15 55.44 107.9 55.44 99.19 39.98 104.44 39.98 113.15 55.44"/><path class="cls-13" d="M76.43,55.44a2.63,2.63,0,1,1-5.25,0"/><path class="cls-4" d="M81.67,55.44a2.62,2.62,0,1,1-5.24,0"/><path class="cls-13" d="M86.92,55.44a2.63,2.63,0,1,1-5.25,0"/><path class="cls-4" d="M92.17,55.44a2.63,2.63,0,1,1-5.25,0"/><path class="cls-13" d="M97.41,55.44a2.62,2.62,0,1,1-5.24,0"/><path class="cls-4" d="M102.66,55.44a2.63,2.63,0,1,1-5.25,0"/><path class="cls-13" d="M107.9,55.44a2.62,2.62,0,1,1-5.24,0"/><path class="cls-4" d="M113.15,55.44a2.63,2.63,0,1,1-5.25,0"/><polyline class="cls-13" points="62.48 39.98 62.48 58.07 73.81 58.07 65.85 39.98"/><rect class="cls-8" x="23.52" y="8.09" width="31.07" height="65.18"/><path class="cls-3" d="M47.05,73.26H6.77C3,73.26,0,70.57,0,67.26V20H47.05Z"/><path class="cls-4" d="M47.05,20.18H0V18.09a6,6,0,0,1,6-6H41.05a6,6,0,0,1,6,6Z"/><rect class="cls-5" x="29.97" y="26.13" width="10.52" height="10.52"/><rect class="cls-5" x="29.97" y="41.02" width="10.52" height="10.52"/><rect class="cls-5" x="6.94" y="26.13" width="10.52" height="10.52"/><rect class="cls-5" x="6.94" y="41.02" width="10.52" height="10.52"/><rect class="cls-5" x="29.97" y="55.91" width="10.52" height="10.52"/><g class="cls-14"><line class="cls-7" x1="47.83" y1="9.46" x2="30.64" y2="46.12"/></g><path class="cls-8" d="M23.15,73.27H6.25A6.25,6.25,0,0,1,0,67V18.34a6.25,6.25,0,0,1,6.25-6.25h16.9a.26.26,0,0,1,.26.25V73A.26.26,0,0,1,23.15,73.27Z"/><rect class="cls-8" x="38.89" y="20.18" width="8.16" height="53.07"/></symbol></defs><title>build4</title><g id="Layer_2" data-name="Layer 2"><g id="Layer_4" data-name="Layer 4"><use width="124.41" height="73.27" transform="matrix(-1.15, 0, 0, 1.15, 161.43, 0)" xlink:href="#Shop_2"/><ellipse class="cls-4" cx="25.17" cy="89.89" rx="4.32" ry="6.75"/><ellipse class="cls-4" cx="47.02" cy="89.89" rx="4.32" ry="6.75"/><ellipse class="cls-4" cx="8.68" cy="89.89" rx="4.32" ry="6.75"/><path class="cls-9" d="M36.29,78.94V93.29H47.46a8.39,8.39,0,0,0,8.39-8.39s0-6-7-8.08c-6.61-2-8.65-13.65-23.37-13.65"/><path class="cls-9" d="M0,78.94H12.76a6.79,6.79,0,0,1,6.79,6.79v2.78a4.78,4.78,0,0,1-4.78,4.78H0a0,0,0,0,1,0,0V78.94A0,0,0,0,1,0,78.94Z" transform="translate(19.56 172.22) rotate(180)"/><path class="cls-9" d="M.84,87.09A6.2,6.2,0,0,0,7,93.29H37.48V78.94h0L33.91,69.2a9.09,9.09,0,0,0-8.46-6H9.63a8,8,0,0,0-8,7.36C1.29,75.83.84,82.77.84,87.09Z"/><path class="cls-5" d="M34.84,66.86H21.29a1.38,1.38,0,0,0-1,2.36l5.28,5.21a3.11,3.11,0,0,0,2.17.9H41.32a1.39,1.39,0,0,0,1-2.37L37,67.75A3.1,3.1,0,0,0,34.84,66.86Z"/><g class="cls-15"><g class="cls-16"><g class="cls-17"><g class="cls-18"><rect class="cls-19" x="4.52" y="68.65" width="15.94" height="11.63"/></g></g></g></g><path class="cls-20" d="M0,86.5a6.79,6.79,0,0,0,6.79,6.79H47.46a8.39,8.39,0,0,0,8.39-8.39.63.63,0,0,1,0-.11H0Z"/><rect class="cls-13" x="26.3" y="82.32" width="7.95" height="3.79" rx="1.9"/><rect class="cls-13" x="45.85" y="82.32" width="7.95" height="3.79" rx="1.9"/><path class="cls-21" d="M123.25,82.05a2.53,2.53,0,0,1,2.76,0,5.26,5.26,0,0,0,1-3c.18-3.25-1.7-4.46-2.36-4.78-.66.32-2.54,1.53-2.36,4.78A5.19,5.19,0,0,0,123.25,82.05Z"/><path class="cls-21" d="M123.25,86.32a2.58,2.58,0,0,0,2.76,0,5.26,5.26,0,0,1,1,3c.18,3.25-1.7,4.46-2.36,4.78-.66-.32-2.54-1.53-2.36-4.78A5.19,5.19,0,0,1,123.25,86.32Z"/><path class="cls-21" d="M122.15,83.65a2.53,2.53,0,0,1,1.94-2,5.18,5.18,0,0,0-1.39-2.78c-2.17-2.43-4.35-2-5-1.71-.23.69-.71,2.88,1.71,5.05A5.28,5.28,0,0,0,122.15,83.65Z"/><path class="cls-21" d="M125.16,86.67a2.53,2.53,0,0,0,1.27-.69,2.6,2.6,0,0,0,.68-1.26,5.18,5.18,0,0,1,2.78,1.39c2.43,2.18,2,4.36,1.71,5-.69.24-2.87.72-5-1.71A5.28,5.28,0,0,1,125.16,86.67Z"/><path class="cls-21" d="M122.49,85.56a2.56,2.56,0,0,1,0-2.75,5.16,5.16,0,0,0-2.95-1c-3.25-.18-4.45,1.7-4.78,2.35.33.66,1.53,2.54,4.78,2.36A5.09,5.09,0,0,0,122.49,85.56Z"/><path class="cls-21" d="M126.76,85.56a2.51,2.51,0,0,0,0-2.75,5.22,5.22,0,0,1,3-1c3.25-.18,4.45,1.7,4.77,2.35-.32.66-1.52,2.54-4.77,2.36A5.15,5.15,0,0,1,126.76,85.56Z"/><path class="cls-21" d="M124.09,86.67a2.53,2.53,0,0,1-1.94-2,5.21,5.21,0,0,0-2.79,1.39c-2.42,2.18-1.94,4.36-1.71,5,.7.24,2.88.72,5-1.71A5.18,5.18,0,0,0,124.09,86.67Z"/><path class="cls-21" d="M127.11,83.65a2.6,2.6,0,0,0-.68-1.26,2.53,2.53,0,0,0-1.27-.69,5.28,5.28,0,0,1,1.4-2.78c2.17-2.43,4.35-2,5-1.71.24.69.72,2.88-1.71,5A5.21,5.21,0,0,1,127.11,83.65Z"/><path class="cls-4" d="M127.46,84.18a2.83,2.83,0,1,1-2.83-2.83A2.83,2.83,0,0,1,127.46,84.18Z"/><path class="cls-21" d="M105.26,91.91a2.53,2.53,0,0,1,2.76,0,5.29,5.29,0,0,0,1-3c.18-3.26-1.7-4.46-2.36-4.78-.66.32-2.54,1.52-2.36,4.78A5.29,5.29,0,0,0,105.26,91.91Z"/><path class="cls-21" d="M105.26,96.18a2.58,2.58,0,0,0,2.76,0,5.26,5.26,0,0,1,1,2.95c.18,3.25-1.7,4.46-2.36,4.78-.66-.32-2.54-1.53-2.36-4.78A5.26,5.26,0,0,1,105.26,96.18Z"/><path class="cls-21" d="M104.16,93.5a2.45,2.45,0,0,1,.68-1.25,2.54,2.54,0,0,1,1.26-.69,5.18,5.18,0,0,0-1.39-2.78c-2.17-2.43-4.35-2-5-1.71-.23.69-.71,2.87,1.72,5A5.08,5.08,0,0,0,104.16,93.5Z"/><path class="cls-21" d="M107.18,96.52a2.5,2.5,0,0,0,1.94-1.94A5.18,5.18,0,0,1,111.9,96c2.43,2.17,1.95,4.35,1.71,5-.69.23-2.87.71-5-1.71A5.21,5.21,0,0,1,107.18,96.52Z"/><path class="cls-21" d="M104.51,95.42A2.51,2.51,0,0,1,104.1,94a2.46,2.46,0,0,1,.41-1.37,5.22,5.22,0,0,0-3-1c-3.25-.18-4.45,1.7-4.77,2.36.32.66,1.52,2.54,4.77,2.36A5.22,5.22,0,0,0,104.51,95.42Z"/><path class="cls-21" d="M108.77,95.42a2.51,2.51,0,0,0,.41-1.38,2.46,2.46,0,0,0-.41-1.37,5.22,5.22,0,0,1,3-1c3.25-.18,4.45,1.7,4.77,2.36-.32.66-1.52,2.54-4.77,2.36A5.22,5.22,0,0,1,108.77,95.42Z"/><path class="cls-21" d="M106.1,96.52a2.5,2.5,0,0,1-1.94-1.94A5.15,5.15,0,0,0,101.38,96c-2.43,2.17-1.95,4.35-1.72,5,.7.23,2.88.71,5-1.71A5.21,5.21,0,0,0,106.1,96.52Z"/><path class="cls-21" d="M109.12,93.5a2.45,2.45,0,0,0-.68-1.25,2.54,2.54,0,0,0-1.26-.69,5.18,5.18,0,0,1,1.39-2.78c2.17-2.43,4.35-2,5-1.71.24.69.72,2.87-1.71,5A5.11,5.11,0,0,1,109.12,93.5Z"/><path class="cls-4" d="M109.47,94a2.83,2.83,0,1,1-2.83-2.83A2.82,2.82,0,0,1,109.47,94Z"/></g></g></svg>