<svg xmlns="http://www.w3.org/2000/svg" xmlns:xlink="http://www.w3.org/1999/xlink" viewBox="0 0 139.5 74.89"><defs><style>.cls-1,.cls-2{fill:none;}.cls-2{clip-rule:evenodd;}.cls-3{fill:#f2f2f2;}.cls-4{fill:#78cddb;}.cls-5{fill:#252545;}.cls-6{fill:#1a1a1a;opacity:0.41;mix-blend-mode:darken;}.cls-7{isolation:isolate;}.cls-8{clip-path:url(#clip-path);}.cls-9{clip-path:url(#clip-path-2);}.cls-10{clip-path:url(#clip-path-3);}.cls-11{fill:#71be49;}.cls-12{fill:#ccc;}.cls-13{fill:#fff;}</style><clipPath id="clip-path"><rect class="cls-1" x="120.12" y="46.91" width="14.65" height="11.2"/></clipPath><clipPath id="clip-path-2"><path class="cls-2" d="M123.59,51.59c-1.54-1.5-2.86-1.87-3.47-.87.62-1,1.49-.83,2.81,0,.91.64,1.65,1.19,2.74,3.64.84,1.9,2.24,3,4.48,2.28,1.59-.51,2.75-2.28,3.28-3.27-.63,1.37-2.48,4.68-5.25,4C124.71,56.56,125.52,53.46,123.59,51.59Zm5.77,4.75c-3.31-.06-2.93-3.44-5.06-5.19A7.13,7.13,0,0,0,122,50l-.18-.05.43.1a6.43,6.43,0,0,0,4-.4c2.72-.9,4.65,2,4.65,2S128.74,48,126.31,49c-2.6,1-3.09,1.06-4.39.9.8.1,1.63-.16,3.88-1.41,2.63-1.47,4.6,1,5.26,2.32s1.12,1.62,1.46,1.73a.73.73,0,0,0,1-.82c-.12-.33-.75-.32-.75-.32s1.79-.37.88,1.49a11.16,11.16,0,0,1-1.09,1.55A4.68,4.68,0,0,1,129.36,56.34Zm-1.08-4.19h-.4v1.56a.38.38,0,0,1-.09.28.34.34,0,0,1-.25.08H127v.4h.49a.8.8,0,0,0,.58-.2.81.81,0,0,0,.2-.59ZM130,54.06h-.61A.8.8,0,0,1,129,54a.18.18,0,0,1-.08-.17.21.21,0,0,1,.05-.15,1.07,1.07,0,0,1,.33-.18l.13-.05a1.32,1.32,0,0,0,.47-.28.62.62,0,0,0,.14-.41.54.54,0,0,0-.22-.45.92.92,0,0,0-.55-.15h-.64v.4h.67a.47.47,0,0,1,.27.06.15.15,0,0,1,.06.13.2.2,0,0,1,0,.14.87.87,0,0,1-.27.15l-.16.07h0a1.23,1.23,0,0,0-.38.2.73.73,0,0,0-.18.22.66.66,0,0,0-.05.28.61.61,0,0,0,.21.49.83.83,0,0,0,.56.17H130Zm1.58-1.34a1.06,1.06,0,0,0-.42-.42,1,1,0,0,0-.31-.11,1.64,1.64,0,0,0-.4,0h-.22v.41h.26a.91.91,0,0,1,.58.17.72.72,0,0,1,.21.36h-1v.4h1.07a.77.77,0,0,1-.21.41.91.91,0,0,1-.61.19h-.25v.4h.22a2.21,2.21,0,0,0,.39,0,.87.87,0,0,0,.31-.11,1.15,1.15,0,0,0,.43-.42,1.26,1.26,0,0,0,0-1.19Z"/></clipPath><clipPath id="clip-path-3"><rect class="cls-1" x="120.12" y="47.98" width="13.79" height="9.48"/></clipPath><symbol id="Toilet" data-name="Toilet" viewBox="0 0 87.83 44.91"><rect class="cls-3" y="6.06" width="87.83" height="38.57"/><rect class="cls-4" x="61.68" y="25.35" width="13.96" height="19.56"/><circle class="cls-5" cx="64.91" cy="12.91" r="1.78"/><path class="cls-5" d="M63.48,17.18l-1.24,4.67a.76.76,0,0,0,.73,1h3.88a.77.77,0,0,0,.74-1l-1.25-4.67A1.48,1.48,0,0,0,63.48,17.18Z"/><path class="cls-5" d="M73.56,21.71,74.81,17a.77.77,0,0,0-.74-1H70.19a.77.77,0,0,0-.74,1l1.25,4.67A1.48,1.48,0,0,0,73.56,21.71Z"/><circle class="cls-5" cx="72.13" cy="12.91" r="1.78"/><rect class="cls-4" x="7.32" y="12.03" width="29.16" height="8.1"/><rect class="cls-5" width="87.83" height="6.06"/><rect class="cls-6" width="44.47" height="44.63"/></symbol></defs><title>build3</title><g id="Layer_2" data-name="Layer 2"><g id="Layer_4" data-name="Layer 4"><use width="87.83" height="44.91" transform="scale(1.24)" xlink:href="#Toilet"/><ellipse class="cls-5" cx="114.33" cy="68.15" rx="4.32" ry="6.75"/><ellipse class="cls-5" cx="92.49" cy="68.15" rx="4.32" ry="6.75"/><ellipse class="cls-5" cx="130.83" cy="68.15" rx="4.32" ry="6.75"/><path class="cls-3" d="M103.22,57.19V71.54H92.05a8.39,8.39,0,0,1-8.39-8.39s0-6,7-8.08c6.6-2,8.65-13.64,23.36-13.64"/><path class="cls-3" d="M119.95,57.19h14.78A4.78,4.78,0,0,1,139.5,62v2.78a6.79,6.79,0,0,1-6.79,6.79H119.95a0,0,0,0,1,0,0V57.19A0,0,0,0,1,119.95,57.19Z"/><path class="cls-3" d="M137.82,48.79a8,8,0,0,0-7.94-7.36H114.05a9.1,9.1,0,0,0-8.46,6L102,57.19h0V71.54h30.44a6.19,6.19,0,0,0,6.2-6.19C138.67,61,138.22,54.08,137.82,48.79Z"/><path class="cls-4" d="M104.67,45.11h13.54a1.38,1.38,0,0,1,1,2.36l-5.27,5.22a3.1,3.1,0,0,1-2.18.89H98.19a1.38,1.38,0,0,1-1-2.37L102.5,46A3.08,3.08,0,0,1,104.67,45.11Z"/><g class="cls-7"><g class="cls-8"><g class="cls-9"><g class="cls-10"><rect class="cls-11" x="119.04" y="46.91" width="15.94" height="11.63"/></g></g></g></g><path class="cls-12" d="M139.5,64.75a6.79,6.79,0,0,1-6.79,6.79H92.05a8.39,8.39,0,0,1-8.39-8.39V63H139.5Z"/><rect class="cls-13" x="105.26" y="60.57" width="7.95" height="3.79" rx="1.9" transform="translate(218.46 124.94) rotate(180)"/><rect class="cls-13" x="85.71" y="60.57" width="7.95" height="3.79" rx="1.9" transform="translate(179.36 124.94) rotate(180)"/></g></g></svg>