<svg xmlns="http://www.w3.org/2000/svg" xmlns:xlink="http://www.w3.org/1999/xlink" viewBox="0 0 337.77 505.38"><defs><style>.cls-1,.cls-10,.cls-12,.cls-16,.cls-17,.cls-2,.cls-20,.cls-22,.cls-24,.cls-26,.cls-8{fill:none;}.cls-2{clip-rule:evenodd;}.cls-3{fill:#f2f2f2;}.cls-4{fill:#78cddb;}.cls-5{fill:#1a1a1a;}.cls-18,.cls-5{opacity:0.41;mix-blend-mode:darken;}.cls-13,.cls-18,.cls-6{fill:#252545;}.cls-7{fill:#e6e6e6;}.cls-12,.cls-13,.cls-8{stroke:#252545;}.cls-13,.cls-16,.cls-17,.cls-24,.cls-8{stroke-linecap:round;}.cls-10,.cls-12,.cls-16,.cls-17,.cls-20,.cls-22,.cls-24,.cls-26,.cls-8{stroke-miterlimit:10;}.cls-10,.cls-13,.cls-8{stroke-width:3px;}.cls-9{clip-path:url(#clip-path);}.cls-10,.cls-16,.cls-17,.cls-22,.cls-24,.cls-26{stroke:#fff;}.cls-11{fill:#fff;}.cls-12{stroke-width:0.93px;}.cls-13{stroke-linejoin:round;}.cls-14{clip-path:url(#clip-path-2);}.cls-15{opacity:0.55;}.cls-16,.cls-24{stroke-width:14px;}.cls-17,.cls-22{stroke-width:2px;}.cls-19{fill:#fcd72a;}.cls-20{stroke:#fcd72a;}.cls-21{clip-path:url(#clip-path-4);}.cls-23{clip-path:url(#clip-path-5);}.cls-24{opacity:0.6;}.cls-25{clip-path:url(#clip-path-6);}.cls-26{stroke-width:4px;}.cls-27{isolation:isolate;}.cls-28{clip-path:url(#clip-path-7);}.cls-29{clip-path:url(#clip-path-8);}.cls-30{clip-path:url(#clip-path-9);}.cls-31{fill:#71be49;}.cls-32{fill:#ccc;}.cls-33{clip-path:url(#clip-path-10);}.cls-34{clip-path:url(#clip-path-11);}.cls-35{clip-path:url(#clip-path-12);}.cls-36{clip-path:url(#clip-path-13);}.cls-37{clip-path:url(#clip-path-14);}.cls-38{clip-path:url(#clip-path-15);}.cls-39{clip-path:url(#clip-path-16);}.cls-40{clip-path:url(#clip-path-17);}.cls-41{clip-path:url(#clip-path-18);}</style><clipPath id="clip-path"><rect class="cls-1" x="98.57" y="60.51" width="10.45" height="10.02"/></clipPath><clipPath id="clip-path-2"><path class="cls-1" d="M75.64,50.26h0A11.42,11.42,0,0,1,87.06,61.68V75.57a0,0,0,0,1,0,0H64.23a0,0,0,0,1,0,0V61.68A11.42,11.42,0,0,1,75.64,50.26Z"/></clipPath><clipPath id="clip-path-4"><rect class="cls-1" x="105.64" y="26.12" width="10.45" height="10.45"/></clipPath><clipPath id="clip-path-5"><rect class="cls-1" x="93.12" y="19.82" width="10.45" height="10.45"/></clipPath><clipPath id="clip-path-6"><rect class="cls-1" x="29.97" y="26.12" width="10.45" height="10.45"/></clipPath><clipPath id="clip-path-7"><rect class="cls-1" x="146.44" y="472.48" width="14.65" height="11.2"/></clipPath><clipPath id="clip-path-8"><path class="cls-2" d="M149.92,477.16c-1.55-1.49-2.86-1.86-3.48-.87.63-1,1.49-.83,2.81,0,.92.64,1.65,1.2,2.74,3.65.84,1.89,2.24,3,4.49,2.27,1.59-.5,2.74-2.28,3.28-3.26-.64,1.37-2.48,4.68-5.25,4C151,482.14,151.85,479,149.92,477.16Zm5.76,4.75c-3.31-.06-2.93-3.44-5.06-5.19a7.07,7.07,0,0,0-2.29-1.12l-.17-.06.43.11a6.4,6.4,0,0,0,3.95-.4c2.72-.9,4.66,2,4.66,2s-2.13-3.67-4.56-2.71c-2.61,1-3.1,1.06-4.4.89.8.1,1.63-.15,3.88-1.41,2.63-1.47,4.61,1,5.26,2.32s1.13,1.63,1.46,1.73a.74.74,0,0,0,1-.82c-.12-.32-.76-.31-.76-.31s1.79-.38.89,1.48a12.17,12.17,0,0,1-1.09,1.55A4.7,4.7,0,0,1,155.68,481.91Zm-1.07-4.18h-.41v1.56a.41.41,0,0,1-.08.27.34.34,0,0,1-.26.09h-.53v.4h.49a.78.78,0,0,0,.58-.2.8.8,0,0,0,.21-.59Zm1.72,1.91h-.61a.87.87,0,0,1-.42-.07.19.19,0,0,1-.08-.18.2.2,0,0,1,.05-.15.84.84,0,0,1,.33-.17l.13-.06a1.23,1.23,0,0,0,.47-.28.58.58,0,0,0,.13-.4.53.53,0,0,0-.22-.46.88.88,0,0,0-.55-.14h-.64v.39h.68a.49.49,0,0,1,.27.06.18.18,0,0,1,.06.14.26.26,0,0,1,0,.14.85.85,0,0,1-.28.15l-.15.06-.05,0a1.62,1.62,0,0,0-.38.19.72.72,0,0,0-.17.23.6.6,0,0,0-.06.27.61.61,0,0,0,.22.5.85.85,0,0,0,.56.17h.75Zm1.58-1.34a1.1,1.1,0,0,0-.41-.42,1.33,1.33,0,0,0-.32-.12,2.41,2.41,0,0,0-.4,0h-.22v.41h.26a.84.84,0,0,1,.58.18.64.64,0,0,1,.22.35h-1.06v.4h1.07a.68.68,0,0,1-.21.41.85.85,0,0,1-.6.19h-.26v.4h.23a1.56,1.56,0,0,0,.39,0,1.25,1.25,0,0,0,.31-.1,1.15,1.15,0,0,0,.42-.43,1.2,1.2,0,0,0,.15-.59A1.15,1.15,0,0,0,157.91,478.3Z"/></clipPath><clipPath id="clip-path-9"><rect class="cls-1" x="146.44" y="473.56" width="13.79" height="9.48"/></clipPath><clipPath id="clip-path-10"><rect class="cls-1" x="170.46" y="68.65" width="14.65" height="11.2"/></clipPath><clipPath id="clip-path-11"><path class="cls-2" d="M177.05,79.13c-2.77.65-4.61-2.66-5.25-4,.54,1,1.69,2.76,3.28,3.27,2.25.71,3.65-.39,4.49-2.28,1.08-2.45,1.82-3,2.74-3.64,1.32-.81,2.18-1,2.8,0-.61-1-1.92-.62-3.47.88C179.71,75.2,180.53,78.31,177.05,79.13Zm-4.38-3a11.35,11.35,0,0,1-1.09-1.56c-.9-1.85.89-1.48.89-1.48s-.64,0-.76.32a.74.74,0,0,0,1,.82c.33-.11.87-.53,1.46-1.74s2.63-3.78,5.26-2.32c2.25,1.26,3.07,1.52,3.87,1.42-1.3.16-1.78.13-4.39-.9-2.43-1-4.56,2.71-4.56,2.71s1.94-2.89,4.65-2a6.43,6.43,0,0,0,4,.4l.43-.1-.18,0a7.13,7.13,0,0,0-2.28,1.12c-2.13,1.76-1.75,5.13-5.06,5.2A4.68,4.68,0,0,1,172.67,76.14Zm4.28-.71a.7.7,0,0,0,.79.79h.48v-.4h-.53a.33.33,0,0,1-.25-.09.41.41,0,0,1-.08-.27V73.9H177Zm-1.72.79H176a.85.85,0,0,0,.56-.17.61.61,0,0,0,.22-.5.63.63,0,0,0-.06-.27.72.72,0,0,0-.17-.22,1.48,1.48,0,0,0-.39-.2l0,0-.15-.06a.85.85,0,0,1-.28-.15.2.2,0,0,1,0-.14.15.15,0,0,1,.06-.13.49.49,0,0,1,.27-.06h.68v-.4H176a1,1,0,0,0-.55.14.54.54,0,0,0-.22.46.58.58,0,0,0,.13.4,1.15,1.15,0,0,0,.47.28l.13.06a1,1,0,0,1,.33.17.2.2,0,0,1,.05.15c0,.11,0,.16-.08.18a.87.87,0,0,1-.42.07h-.61Zm-1.73-1.16a1.2,1.2,0,0,0,.15.59,1.09,1.09,0,0,0,.42.43,1.25,1.25,0,0,0,.31.11,2.21,2.21,0,0,0,.39,0H175v-.4h-.25a.83.83,0,0,1-.6-.19.68.68,0,0,1-.21-.41H175v-.4h-1.05a.69.69,0,0,1,.21-.35.88.88,0,0,1,.59-.17H175V73.9h-.21a2.33,2.33,0,0,0-.4,0,1.33,1.33,0,0,0-.32.12,1,1,0,0,0-.41.42A1.15,1.15,0,0,0,173.5,75.06Z"/></clipPath><clipPath id="clip-path-12"><rect class="cls-1" x="171.33" y="69.73" width="13.79" height="9.48"/></clipPath><clipPath id="clip-path-13"><rect class="cls-1" x="145.93" y="151.89" width="14.65" height="11.2"/></clipPath><clipPath id="clip-path-14"><path class="cls-2" d="M149.4,156.57c-1.54-1.49-2.86-1.87-3.47-.87.62-1,1.49-.83,2.8,0,.92.64,1.66,1.2,2.75,3.65.84,1.89,2.24,3,4.48,2.27,1.59-.5,2.74-2.28,3.28-3.27-.63,1.37-2.48,4.68-5.25,4C150.51,161.54,151.33,158.44,149.4,156.57Zm5.77,4.75c-3.31-.06-2.93-3.44-5.07-5.19a7,7,0,0,0-2.28-1.12l-.18-.06.43.1a6.35,6.35,0,0,0,4-.4c2.72-.89,4.65,2,4.65,2s-2.13-3.67-4.56-2.71c-2.6,1-3.09,1.06-4.39.89.8.1,1.63-.15,3.88-1.41,2.62-1.47,4.6,1,5.25,2.32s1.13,1.63,1.47,1.73a.74.74,0,0,0,1-.82c-.12-.33-.75-.31-.75-.31s1.79-.38.88,1.48a11.16,11.16,0,0,1-1.09,1.55A4.68,4.68,0,0,1,155.17,161.32Zm-1.08-4.19h-.41v1.57a.36.36,0,0,1-.08.27.32.32,0,0,1-.25.08h-.53v.4h.49a.76.76,0,0,0,.58-.2.8.8,0,0,0,.2-.58Zm1.73,1.92h-.61a.89.89,0,0,1-.43-.07.19.19,0,0,1-.08-.18.23.23,0,0,1,.05-.15,1.07,1.07,0,0,1,.33-.18l.13-.05a1.08,1.08,0,0,0,.47-.28.61.61,0,0,0,.14-.4.54.54,0,0,0-.22-.46.92.92,0,0,0-.55-.15h-.65v.4h.68a.49.49,0,0,1,.27.06.16.16,0,0,1,.06.14.21.21,0,0,1,0,.14,1.2,1.2,0,0,1-.27.15l-.16.06h0a1.51,1.51,0,0,0-.38.2.76.76,0,0,0-.18.23.6.6,0,0,0-.06.27.64.64,0,0,0,.22.5.87.87,0,0,0,.56.16h.76Zm1.58-1.35a1.1,1.1,0,0,0-.42-.41.93.93,0,0,0-.32-.12,2.23,2.23,0,0,0-.39,0h-.22v.41h.26a.86.86,0,0,1,.58.18.65.65,0,0,1,.21.35h-1v.4h1.06a.72.72,0,0,1-.2.41.86.86,0,0,1-.61.19h-.25v.39h.22a2.21,2.21,0,0,0,.39,0,.87.87,0,0,0,.31-.11,1.06,1.06,0,0,0,.42-.42,1.21,1.21,0,0,0,.15-.6A1.31,1.31,0,0,0,157.4,157.7Z"/></clipPath><clipPath id="clip-path-15"><rect class="cls-1" x="145.93" y="152.97" width="13.79" height="9.48"/></clipPath><clipPath id="clip-path-16"><rect class="cls-1" x="207.53" y="410.06" width="14.65" height="11.2"/></clipPath><clipPath id="clip-path-17"><path class="cls-2" d="M214.11,420.53c-2.77.65-4.61-2.66-5.25-4,.54,1,1.69,2.77,3.28,3.27,2.25.71,3.65-.38,4.49-2.27,1.08-2.45,1.82-3,2.74-3.65,1.32-.81,2.18-1,2.81,0-.62-1-1.93-.62-3.48.87C216.77,416.61,217.59,419.71,214.11,420.53Zm-4.38-3a12.17,12.17,0,0,1-1.09-1.55c-.9-1.86.89-1.48.89-1.48s-.64,0-.76.31a.74.74,0,0,0,1,.82c.33-.1.87-.53,1.46-1.73s2.63-3.79,5.26-2.32c2.25,1.25,3.08,1.51,3.88,1.41-1.31.16-1.79.13-4.4-.9-2.43-1-4.56,2.72-4.56,2.72s1.94-2.89,4.66-2a6.4,6.4,0,0,0,3.95.4l.43-.1-.17.05A7.13,7.13,0,0,0,218,414.3c-2.13,1.75-1.75,5.13-5.06,5.19A4.7,4.7,0,0,1,209.73,417.54Zm4.28-.71a.81.81,0,0,0,.2.59.83.83,0,0,0,.59.2h.48v-.4h-.52a.38.38,0,0,1-.26-.08.43.43,0,0,1-.08-.28V415.3H214Zm-1.72.79H213a.8.8,0,0,0,.56-.17.57.57,0,0,0,.22-.49.6.6,0,0,0-.06-.27.63.63,0,0,0-.17-.23,1.55,1.55,0,0,0-.38-.2h-.05l-.15-.07a.68.68,0,0,1-.28-.15.23.23,0,0,1,0-.14.15.15,0,0,1,.06-.13.49.49,0,0,1,.27-.06h.68v-.4h-.64a.88.88,0,0,0-.55.15.51.51,0,0,0-.22.45.61.61,0,0,0,.13.41,1.55,1.55,0,0,0,.47.28l.13.05a1.07,1.07,0,0,1,.33.18.18.18,0,0,1,.05.15c0,.11,0,.15-.08.17a.72.72,0,0,1-.42.08h-.61Zm-1.73-1.16a1.21,1.21,0,0,0,.15.6,1.06,1.06,0,0,0,.42.42,1,1,0,0,0,.31.11,2.29,2.29,0,0,0,.39,0h.23v-.39h-.26a.9.9,0,0,1-.6-.19.7.7,0,0,1-.21-.41h1.07v-.4H211a.72.72,0,0,1,.21-.36.94.94,0,0,1,.59-.17h.26v-.41h-.22a1.64,1.64,0,0,0-.4,0,1,1,0,0,0-.32.11,1.18,1.18,0,0,0-.41.42A1.2,1.2,0,0,0,210.56,416.46Z"/></clipPath><clipPath id="clip-path-18"><rect class="cls-1" x="208.39" y="411.13" width="13.79" height="9.48"/></clipPath><symbol id="Nursery" data-name="Nursery" viewBox="0 0 116.45 89.42"><path class="cls-7" d="M92.63,40.56l21.45,14.07V69.57a6,6,0,0,1-6,6H92.63Z"/><line class="cls-8" x1="92.64" y1="40.56" x2="114.95" y2="54.63"/><rect class="cls-4" x="98.57" y="60.51" width="10.45" height="10.02"/><g class="cls-9"><line class="cls-10" x1="112.39" y1="47.9" x2="95.2" y2="75.66"/></g><rect class="cls-3" x="30.42" y="30.52" width="20.85" height="45.06"/><polygon class="cls-3" points="73.59 16.45 51.27 30.52 95.92 30.52 73.59 16.45"/><rect class="cls-3" x="51.27" y="30.23" width="44.64" height="45.34"/><rect class="cls-11" x="51.27" y="64.34" width="44.65" height="11.23"/><polygon class="cls-6" points="64.95 10.29 75.91 5.86 64.81 0 64.95 10.29"/><line class="cls-12" x1="64.95" y1="15.67" x2="64.95"/><line class="cls-8" x1="73.59" y1="15.71" x2="95.8" y2="29.73"/><path class="cls-13" d="M73.51,15.71l-22.21,14a3.22,3.22,0,0,1-1.73.5H29.89l23-14.52H73.52"/><path class="cls-4" d="M75.64,50.26h0A11.42,11.42,0,0,1,87.06,61.68V75.57a0,0,0,0,1,0,0H64.23a0,0,0,0,1,0,0V61.68A11.42,11.42,0,0,1,75.64,50.26Z"/><g class="cls-14"><g class="cls-15"><line class="cls-16" x1="70.32" y1="45.75" x2="53.13" y2="82.41"/><line class="cls-17" x1="83.16" y1="45.75" x2="65.79" y2="82.93"/></g></g><g class="cls-14"><rect class="cls-18" x="84.84" y="53.09" width="2.22" height="22.52"/></g><rect class="cls-5" x="30.42" y="31.25" width="20.81" height="44.32"/><circle class="cls-19" cx="74.04" cy="37.09" r="5.06"/><path class="cls-11" d="M73.65,36.69a3.81,3.81,0,0,1,1.44.29,4.89,4.89,0,0,1,9.23,1.83,2.35,2.35,0,0,1,.6-.07,2.7,2.7,0,1,1,0,5.4H73.65a3.73,3.73,0,0,1,0-7.45Z"/><line class="cls-20" x1="74.08" y1="30.73" x2="74.08" y2="28.23"/><line class="cls-20" x1="70.99" y1="31.59" x2="69.74" y2="29.42"/><line class="cls-20" x1="68.74" y1="33.88" x2="66.58" y2="32.63"/><line class="cls-20" x1="67.94" y1="36.98" x2="65.45" y2="36.98"/><line class="cls-20" x1="79.48" y1="33.77" x2="81.64" y2="32.52"/><line class="cls-20" x1="77.19" y1="31.53" x2="78.43" y2="29.36"/><path class="cls-7" d="M1.59,54.48H24a0,0,0,0,1,0,0V75.57a0,0,0,0,1,0,0H7.59a6,6,0,0,1-6-6V54.48A0,0,0,0,1,1.59,54.48Z"/><polygon class="cls-7" points="46.3 40.56 23.98 54.63 23.98 75.57 46.3 75.57 46.3 40.56"/><polygon class="cls-4" points="30.49 70.96 40.93 70.96 40.93 60.52 30.49 60.52 30.49 70.96"/><polygon class="cls-4" points="7.56 70.96 18.01 70.96 18.01 60.52 7.56 60.52 7.56 70.96"/><path class="cls-5" d="M1.59,54.48H24a0,0,0,0,1,0,0V75.57a0,0,0,0,1,0,0H7.59a6,6,0,0,1-6-6V54.48A0,0,0,0,1,1.59,54.48Z"/><path class="cls-13" d="M46.29,40.67l-21.24,13a5.48,5.48,0,0,1-2.9.82H1.5L24.07,40.67H46.3"/></symbol><symbol id="Shop_2" data-name="Shop 2" viewBox="0 0 124.41 73.28"><path class="cls-7" d="M122.72,66.65a6.61,6.61,0,0,1-6.61,6.61H82.44c-3.74,0-6.77-2.69-6.77-6V20h47.05Z"/><path class="cls-6" d="M122.72,20.18h-47V18.09a6,6,0,0,1,6-6h35.05a6,6,0,0,1,6,6Z"/><rect class="cls-4" x="105.64" y="26.13" width="10.52" height="10.52"/><rect class="cls-4" x="105.64" y="41.02" width="10.52" height="10.52"/><rect class="cls-4" x="82.62" y="26.13" width="10.52" height="10.52"/><rect class="cls-4" x="82.62" y="41.02" width="10.52" height="10.52"/><rect class="cls-4" x="105.64" y="55.91" width="10.52" height="10.52"/><g class="cls-21"><line class="cls-22" x1="123.5" y1="9.46" x2="106.31" y2="46.12"/></g><path class="cls-5" d="M99.08,73.27H81.67a6,6,0,0,1-6-6V18.09a6,6,0,0,1,6-6H99.08Z"/><rect class="cls-3" x="23.52" y="7.91" width="87.03" height="65.37"/><path class="cls-6" d="M110.55,8.09h-87V6a6,6,0,0,1,6-6h75a6,6,0,0,1,6,6Z"/><rect class="cls-4" x="62.48" y="19.83" width="10.52" height="10.52"/><rect class="cls-4" x="77.8" y="19.83" width="10.52" height="10.52"/><rect class="cls-4" x="34.25" y="19.83" width="10.52" height="10.52"/><rect class="cls-4" x="93.12" y="19.83" width="10.52" height="10.52"/><rect class="cls-4" x="62.48" y="39.98" width="41.16" height="33.3"/><rect class="cls-18" x="101.42" y="50.71" width="2.22" height="22.56"/><path class="cls-5" d="M54.59,7.91H23.52V6a6,6,0,0,1,6-6H54.59Z"/><rect class="cls-18" x="62.48" y="50.71" width="41.16" height="17.01"/><g class="cls-23"><line class="cls-24" x1="95.35" y1="9.29" x2="78.16" y2="45.95"/></g><polygon class="cls-11" points="76.43 55.44 71.18 55.44 62.48 39.98 67.72 39.98 76.43 55.44"/><polygon class="cls-11" points="86.92 55.44 81.67 55.44 72.97 39.98 78.21 39.98 86.92 55.44"/><polygon class="cls-11" points="97.41 55.44 92.17 55.44 83.46 39.98 88.7 39.98 97.41 55.44"/><polygon class="cls-11" points="107.9 55.44 102.66 55.44 93.95 39.98 99.19 39.98 107.9 55.44"/><polygon class="cls-6" points="81.67 55.44 76.43 55.44 67.72 39.98 72.97 39.98 81.67 55.44"/><polygon class="cls-6" points="92.17 55.44 86.92 55.44 78.21 39.98 83.46 39.98 92.17 55.44"/><polygon class="cls-6" points="102.66 55.44 97.41 55.44 88.7 39.98 93.95 39.98 102.66 55.44"/><polygon class="cls-6" points="113.15 55.44 107.9 55.44 99.19 39.98 104.44 39.98 113.15 55.44"/><path class="cls-11" d="M76.43,55.44a2.63,2.63,0,1,1-5.25,0"/><path class="cls-6" d="M81.67,55.44a2.62,2.62,0,1,1-5.24,0"/><path class="cls-11" d="M86.92,55.44a2.63,2.63,0,1,1-5.25,0"/><path class="cls-6" d="M92.17,55.44a2.63,2.63,0,1,1-5.25,0"/><path class="cls-11" d="M97.41,55.44a2.62,2.62,0,1,1-5.24,0"/><path class="cls-6" d="M102.66,55.44a2.63,2.63,0,1,1-5.25,0"/><path class="cls-11" d="M107.9,55.44a2.62,2.62,0,1,1-5.24,0"/><path class="cls-6" d="M113.15,55.44a2.63,2.63,0,1,1-5.25,0"/><polyline class="cls-11" points="62.48 39.98 62.48 58.07 73.81 58.07 65.85 39.98"/><rect class="cls-5" x="23.52" y="8.09" width="31.07" height="65.18"/><path class="cls-7" d="M47.05,73.26H6.77C3,73.26,0,70.57,0,67.26V20H47.05Z"/><path class="cls-6" d="M47.05,20.18H0V18.09a6,6,0,0,1,6-6H41.05a6,6,0,0,1,6,6Z"/><rect class="cls-4" x="29.97" y="26.13" width="10.52" height="10.52"/><rect class="cls-4" x="29.97" y="41.02" width="10.52" height="10.52"/><rect class="cls-4" x="6.94" y="26.13" width="10.52" height="10.52"/><rect class="cls-4" x="6.94" y="41.02" width="10.52" height="10.52"/><rect class="cls-4" x="29.97" y="55.91" width="10.52" height="10.52"/><g class="cls-25"><line class="cls-22" x1="47.83" y1="9.46" x2="30.64" y2="46.12"/></g><path class="cls-5" d="M23.15,73.27H6.25A6.25,6.25,0,0,1,0,67V18.34a6.25,6.25,0,0,1,6.25-6.25h16.9a.26.26,0,0,1,.26.25V73A.26.26,0,0,1,23.15,73.27Z"/><rect class="cls-5" x="38.89" y="20.18" width="8.16" height="53.07"/></symbol><symbol id="Toilet" data-name="Toilet" viewBox="0 0 87.83 44.91"><rect class="cls-3" y="6.06" width="87.83" height="38.57"/><rect class="cls-4" x="61.68" y="25.35" width="13.96" height="19.56"/><circle class="cls-6" cx="64.91" cy="12.91" r="1.78"/><path class="cls-6" d="M63.48,17.18l-1.24,4.67a.76.76,0,0,0,.73,1h3.88a.77.77,0,0,0,.74-1l-1.25-4.67A1.48,1.48,0,0,0,63.48,17.18Z"/><path class="cls-6" d="M73.56,21.71,74.81,17a.77.77,0,0,0-.74-1H70.19a.77.77,0,0,0-.74,1l1.25,4.67A1.48,1.48,0,0,0,73.56,21.71Z"/><circle class="cls-6" cx="72.13" cy="12.91" r="1.78"/><rect class="cls-4" x="7.32" y="12.03" width="29.16" height="8.1"/><rect class="cls-6" width="87.83" height="6.06"/><rect class="cls-5" width="44.47" height="44.63"/></symbol><symbol id="Commercial" data-name="Commercial" viewBox="0 0 73.71 87.37"><path class="cls-3" d="M53.49,69.54H71.32a0,0,0,0,1,0,0V82.37a5,5,0,0,1-5,5H53.49a0,0,0,0,1,0,0V69.54a0,0,0,0,1,0,0Z"/><rect class="cls-3" x="35.66" y="51.71" width="17.83" height="17.83"/><rect class="cls-3" x="53.49" y="33.88" width="17.83" height="17.83"/><rect class="cls-4" x="53.49" y="51.71" width="17.83" height="17.83"/><rect class="cls-4" x="35.66" y="33.88" width="17.83" height="17.83"/><path class="cls-4" d="M5,16.05H71.32a0,0,0,0,1,0,0V33.88a0,0,0,0,1,0,0H0a0,0,0,0,1,0,0V21.05A5,5,0,0,1,5,16.05Z"/><rect class="cls-4" x="35.66" y="69.54" width="17.83" height="17.83"/><rect class="cls-3" x="17.83" y="69.54" width="17.83" height="17.83"/><rect class="cls-3" y="51.71" width="17.83" height="17.83"/><rect class="cls-3" x="17.83" y="16.05" width="17.83" height="35.66"/><rect class="cls-4" x="17.83" y="51.71" width="17.83" height="17.83"/><rect class="cls-4" y="33.88" width="17.83" height="17.83"/><path class="cls-4" d="M0,69.54H17.83a0,0,0,0,1,0,0V87.37a0,0,0,0,1,0,0H5a5,5,0,0,1-5-5V69.54a0,0,0,0,1,0,0Z"/><path class="cls-3" d="M58.49,0H68.71a5,5,0,0,1,5,5V46.71a5,5,0,0,1-5,5H53.49a0,0,0,0,1,0,0V5A5,5,0,0,1,58.49,0Z"/><path class="cls-5" d="M58.49,0H60.3a0,0,0,0,1,0,0V51.71a0,0,0,0,1,0,0H53.49a0,0,0,0,1,0,0V5A5,5,0,0,1,58.49,0Z"/><path class="cls-5" d="M5,16.05H35.66a0,0,0,0,1,0,0V87.37a0,0,0,0,1,0,0H5a5,5,0,0,1-5-5V21.05a5,5,0,0,1,5-5Z"/><rect class="cls-6" x="65.99" y="3.96" width="5.33" height="27.27"/></symbol></defs><title>car-park-elements</title><g id="Layer_2" data-name="Layer 2"><g id="Layer_4" data-name="Layer 4"><line class="cls-26" x1="33.12" y1="286.54" x2="336.58" y2="286.54"/><line class="cls-26" x1="99.09" y1="240.15" x2="99.09" y2="332.93"/><line class="cls-26" x1="183.74" y1="240.15" x2="183.74" y2="332.93"/><line class="cls-26" x1="268.39" y1="240.15" x2="268.39" y2="332.93"/><path class="cls-19" d="M289,82.05a2.53,2.53,0,0,1,2.76,0,5.26,5.26,0,0,0,1-3c.18-3.25-1.7-4.46-2.36-4.78-.66.32-2.54,1.53-2.36,4.78A5.19,5.19,0,0,0,289,82.05Z"/><path class="cls-19" d="M289,86.32a2.58,2.58,0,0,0,2.76,0,5.26,5.26,0,0,1,1,3c.18,3.25-1.7,4.46-2.36,4.78-.66-.32-2.54-1.53-2.36-4.78A5.19,5.19,0,0,1,289,86.32Z"/><path class="cls-19" d="M287.88,83.65a2.53,2.53,0,0,1,1.94-2,5.18,5.18,0,0,0-1.39-2.78c-2.17-2.43-4.36-2-5.05-1.71-.23.69-.71,2.88,1.71,5.05A5.28,5.28,0,0,0,287.88,83.65Z"/><path class="cls-19" d="M290.89,86.67a2.53,2.53,0,0,0,1.27-.69,2.6,2.6,0,0,0,.68-1.26,5.18,5.18,0,0,1,2.78,1.39c2.43,2.18,1.95,4.36,1.71,5-.69.24-2.87.72-5-1.71A5.28,5.28,0,0,1,290.89,86.67Z"/><path class="cls-19" d="M288.22,85.56a2.56,2.56,0,0,1,0-2.75,5.19,5.19,0,0,0-3-1c-3.25-.18-4.46,1.7-4.78,2.35.32.66,1.53,2.54,4.78,2.36A5.12,5.12,0,0,0,288.22,85.56Z"/><path class="cls-19" d="M292.49,85.56a2.51,2.51,0,0,0,0-2.75,5.22,5.22,0,0,1,3-1c3.25-.18,4.45,1.7,4.77,2.35-.32.66-1.52,2.54-4.77,2.36A5.15,5.15,0,0,1,292.49,85.56Z"/><path class="cls-19" d="M289.82,86.67a2.53,2.53,0,0,1-1.94-2,5.21,5.21,0,0,0-2.79,1.39c-2.42,2.18-1.94,4.36-1.71,5,.69.24,2.88.72,5.05-1.71A5.18,5.18,0,0,0,289.82,86.67Z"/><path class="cls-19" d="M292.84,83.65a2.6,2.6,0,0,0-.68-1.26,2.53,2.53,0,0,0-1.27-.69,5.28,5.28,0,0,1,1.4-2.78c2.17-2.43,4.35-2,5-1.71.24.69.72,2.88-1.71,5A5.21,5.21,0,0,1,292.84,83.65Z"/><path class="cls-6" d="M293.19,84.18a2.84,2.84,0,1,1-2.83-2.83A2.84,2.84,0,0,1,293.19,84.18Z"/><path class="cls-19" d="M271,91.91a2.53,2.53,0,0,1,2.76,0,5.29,5.29,0,0,0,1-3c.18-3.26-1.7-4.46-2.36-4.78-.66.32-2.54,1.52-2.36,4.78A5.22,5.22,0,0,0,271,91.91Z"/><path class="cls-19" d="M271,96.18a2.58,2.58,0,0,0,2.76,0,5.26,5.26,0,0,1,1,2.95c.18,3.25-1.7,4.46-2.36,4.78-.66-.32-2.54-1.53-2.36-4.78A5.19,5.19,0,0,1,271,96.18Z"/><path class="cls-19" d="M269.89,93.5a2.45,2.45,0,0,1,.68-1.25,2.54,2.54,0,0,1,1.26-.69,5.18,5.18,0,0,0-1.39-2.78c-2.17-2.43-4.36-2-5.05-1.71-.23.69-.71,2.87,1.71,5A5.14,5.14,0,0,0,269.89,93.5Z"/><path class="cls-19" d="M272.9,96.52a2.51,2.51,0,0,0,1.27-.68,2.6,2.6,0,0,0,.68-1.26A5.18,5.18,0,0,1,277.63,96c2.43,2.17,1.95,4.35,1.71,5-.69.23-2.87.71-5-1.71A5.31,5.31,0,0,1,272.9,96.52Z"/><path class="cls-19" d="M270.23,95.42a2.59,2.59,0,0,1-.4-1.38,2.53,2.53,0,0,1,.4-1.37,5.16,5.16,0,0,0-3-1c-3.25-.18-4.45,1.7-4.78,2.36.33.66,1.53,2.54,4.78,2.36A5.16,5.16,0,0,0,270.23,95.42Z"/><path class="cls-19" d="M274.5,95.42a2.51,2.51,0,0,0,.41-1.38,2.46,2.46,0,0,0-.41-1.37,5.22,5.22,0,0,1,3-1c3.25-.18,4.45,1.7,4.77,2.36-.32.66-1.52,2.54-4.77,2.36A5.22,5.22,0,0,1,274.5,95.42Z"/><path class="cls-19" d="M271.83,96.52a2.5,2.5,0,0,1-1.94-1.94A5.21,5.21,0,0,0,267.1,96c-2.42,2.17-1.94,4.35-1.71,5,.69.23,2.88.71,5.05-1.71A5.21,5.21,0,0,0,271.83,96.52Z"/><path class="cls-19" d="M274.85,93.5a2.53,2.53,0,0,0-2-1.94,5.28,5.28,0,0,1,1.4-2.78c2.17-2.43,4.35-2,5-1.71.24.69.72,2.87-1.71,5A5.11,5.11,0,0,1,274.85,93.5Z"/><path class="cls-6" d="M275.2,94a2.84,2.84,0,1,1-2.83-2.83A2.82,2.82,0,0,1,275.2,94Z"/><path class="cls-19" d="M35.34,482.88a2.51,2.51,0,0,0-1.38-.41,2.48,2.48,0,0,0-1.37.41,5.14,5.14,0,0,1-1-2.95c-.18-3.25,1.7-4.46,2.35-4.78.66.32,2.54,1.53,2.36,4.78A5.22,5.22,0,0,1,35.34,482.88Z"/><path class="cls-19" d="M35.34,487.15a2.59,2.59,0,0,1-1.38.4,2.56,2.56,0,0,1-1.37-.4,5.12,5.12,0,0,0-1,3c-.18,3.25,1.7,4.46,2.35,4.78.66-.32,2.54-1.53,2.36-4.78A5.19,5.19,0,0,0,35.34,487.15Z"/><path class="cls-19" d="M36.45,484.48a2.46,2.46,0,0,0-.69-1.26,2.54,2.54,0,0,0-1.26-.69,5.18,5.18,0,0,1,1.39-2.78c2.17-2.43,4.36-1.95,5-1.71.24.69.71,2.87-1.71,5A5.24,5.24,0,0,1,36.45,484.48Z"/><path class="cls-19" d="M33.43,487.5a2.56,2.56,0,0,1-1.95-1.95,5.22,5.22,0,0,0-2.78,1.39c-2.43,2.17-1.95,4.36-1.71,5.05.69.23,2.88.71,5-1.71A5.17,5.17,0,0,0,33.43,487.5Z"/><path class="cls-19" d="M36.1,486.39a2.6,2.6,0,0,0,.41-1.38,2.54,2.54,0,0,0-.41-1.37,5.14,5.14,0,0,1,2.95-1c3.25-.19,4.46,1.69,4.78,2.35-.32.66-1.53,2.54-4.78,2.36A5.22,5.22,0,0,1,36.1,486.39Z"/><path class="cls-19" d="M31.83,486.39a2.51,2.51,0,0,1-.41-1.38,2.46,2.46,0,0,1,.41-1.37,5.14,5.14,0,0,0-2.95-1c-3.25-.19-4.46,1.69-4.78,2.35.32.66,1.53,2.54,4.78,2.36A5.22,5.22,0,0,0,31.83,486.39Z"/><path class="cls-19" d="M34.5,487.5a2.56,2.56,0,0,0,2-1.95,5.22,5.22,0,0,1,2.78,1.39c2.42,2.17,2,4.36,1.71,5.05-.69.23-2.88.71-5-1.71A5.22,5.22,0,0,1,34.5,487.5Z"/><path class="cls-19" d="M31.48,484.48a2.46,2.46,0,0,1,.69-1.26,2.54,2.54,0,0,1,1.26-.69,5.14,5.14,0,0,0-1.4-2.78c-2.16-2.43-4.35-1.95-5-1.71-.24.69-.72,2.87,1.71,5A5.24,5.24,0,0,0,31.48,484.48Z"/><path class="cls-6" d="M31.13,485A2.84,2.84,0,1,0,34,482.18,2.83,2.83,0,0,0,31.13,485Z"/><path class="cls-19" d="M53.33,492.74a2.51,2.51,0,0,0-1.38-.41,2.48,2.48,0,0,0-1.37.41,5.18,5.18,0,0,1-1-3c-.19-3.25,1.7-4.46,2.35-4.78.66.32,2.54,1.53,2.36,4.78A5.25,5.25,0,0,1,53.33,492.74Z"/><path class="cls-19" d="M53.33,497a2.51,2.51,0,0,1-1.38.41,2.48,2.48,0,0,1-1.37-.41,5.18,5.18,0,0,0-1,3c-.19,3.25,1.7,4.45,2.35,4.77.66-.32,2.54-1.52,2.36-4.77A5.25,5.25,0,0,0,53.33,497Z"/><path class="cls-19" d="M54.44,494.33a2.53,2.53,0,0,0-1.95-1.94,5.15,5.15,0,0,1,1.39-2.78c2.17-2.43,4.36-1.95,5-1.71.24.68.71,2.87-1.71,5A5.22,5.22,0,0,1,54.44,494.33Z"/><path class="cls-19" d="M51.42,497.35a2.53,2.53,0,0,1-2-1.94,5.18,5.18,0,0,0-2.78,1.39c-2.43,2.17-1.95,4.35-1.71,5,.69.24,2.87.72,5-1.71A5.21,5.21,0,0,0,51.42,497.35Z"/><path class="cls-19" d="M54.09,496.25a2.58,2.58,0,0,0,0-2.76,5.26,5.26,0,0,1,2.95-1c3.25-.18,4.46,1.7,4.78,2.36-.32.66-1.53,2.54-4.78,2.36A5.26,5.26,0,0,1,54.09,496.25Z"/><path class="cls-19" d="M49.82,496.25a2.53,2.53,0,0,1,0-2.76,5.29,5.29,0,0,0-3-1c-3.25-.18-4.46,1.7-4.78,2.36.32.66,1.53,2.54,4.78,2.36A5.29,5.29,0,0,0,49.82,496.25Z"/><path class="cls-19" d="M52.49,497.35a2.53,2.53,0,0,0,1.95-1.94,5.22,5.22,0,0,1,2.78,1.39c2.42,2.17,2,4.35,1.71,5-.69.24-2.88.72-5-1.71A5.18,5.18,0,0,1,52.49,497.35Z"/><path class="cls-19" d="M49.47,494.33a2.53,2.53,0,0,1,2-1.94,5.18,5.18,0,0,0-1.4-2.78c-2.17-2.43-4.35-1.95-5-1.71-.24.68-.72,2.87,1.71,5A5.18,5.18,0,0,0,49.47,494.33Z"/><path class="cls-6" d="M49.12,494.87A2.84,2.84,0,1,0,52,492,2.83,2.83,0,0,0,49.12,494.87Z"/><use width="116.45" height="89.41" transform="translate(-0.51 388.18) scale(1.34)" xlink:href="#Nursery"/><use width="124.41" height="73.27" transform="matrix(-1.15, 0, 0, 1.15, 327.15, 0)" xlink:href="#Shop_2"/><ellipse class="cls-6" cx="140.66" cy="493.72" rx="4.32" ry="6.75"/><ellipse class="cls-6" cx="118.81" cy="493.72" rx="4.32" ry="6.75"/><ellipse class="cls-6" cx="157.15" cy="493.72" rx="4.32" ry="6.75"/><path class="cls-3" d="M129.54,482.77v14.35H118.37a8.39,8.39,0,0,1-8.39-8.39s0-6,7-8.09c6.61-2,8.65-13.64,23.37-13.64"/><path class="cls-3" d="M146.27,482.77h14.78a4.78,4.78,0,0,1,4.78,4.78v2.78a6.79,6.79,0,0,1-6.79,6.79H146.27a0,0,0,0,1,0,0V482.77a0,0,0,0,1,0,0Z"/><path class="cls-3" d="M164.15,474.36a8,8,0,0,0-8-7.36H140.38a9.1,9.1,0,0,0-8.47,6l-3.56,9.74h0v14.35H158.8a6.2,6.2,0,0,0,6.19-6.2C165,486.6,164.54,479.66,164.15,474.36Z"/><path class="cls-4" d="M131,470.68h13.55a1.39,1.39,0,0,1,1,2.37l-5.28,5.21a3.1,3.1,0,0,1-2.17.89H124.51a1.38,1.38,0,0,1-1-2.36l5.28-5.21A3.07,3.07,0,0,1,131,470.68Z"/><g class="cls-27"><g class="cls-28"><g class="cls-29"><g class="cls-30"><rect class="cls-31" x="145.37" y="472.48" width="15.94" height="11.63"/></g></g></g></g><path class="cls-32" d="M165.83,490.32a6.8,6.8,0,0,1-6.79,6.8H118.37a8.39,8.39,0,0,1-8.39-8.39.94.94,0,0,1,0-.12h55.84Z"/><rect class="cls-11" x="131.58" y="486.15" width="7.95" height="3.79" rx="1.9" transform="translate(271.11 976.09) rotate(-180)"/><rect class="cls-11" x="112.03" y="486.15" width="7.95" height="3.79" rx="1.9" transform="translate(232.01 976.09) rotate(-180)"/><ellipse class="cls-6" cx="190.9" cy="89.89" rx="4.32" ry="6.75"/><ellipse class="cls-6" cx="212.75" cy="89.89" rx="4.32" ry="6.75"/><ellipse class="cls-6" cx="174.4" cy="89.89" rx="4.32" ry="6.75"/><path class="cls-3" d="M202,78.94V93.29h11.17a8.39,8.39,0,0,0,8.38-8.39s0-6-7-8.08c-6.61-2-8.65-13.65-23.37-13.65"/><path class="cls-3" d="M165.73,78.94h12.76a6.79,6.79,0,0,1,6.79,6.79v2.78a4.78,4.78,0,0,1-4.78,4.78H165.73a0,0,0,0,1,0,0V78.94A0,0,0,0,1,165.73,78.94Z" transform="translate(351.01 172.22) rotate(180)"/><path class="cls-3" d="M166.56,87.09a6.21,6.21,0,0,0,6.2,6.2h30.45V78.94h0l-3.56-9.74a9.1,9.1,0,0,0-8.46-6H175.36a8,8,0,0,0-8,7.36C167,75.83,166.56,82.77,166.56,87.09Z"/><path class="cls-4" d="M200.57,66.86H187a1.38,1.38,0,0,0-1,2.36l5.28,5.21a3.11,3.11,0,0,0,2.17.9h13.55A1.39,1.39,0,0,0,208,73l-5.28-5.21A3.1,3.1,0,0,0,200.57,66.86Z"/><g class="cls-27"><g class="cls-33"><g class="cls-34"><g class="cls-35"><rect class="cls-31" x="170.25" y="68.65" width="15.94" height="11.63"/></g></g></g></g><path class="cls-32" d="M165.73,86.5a6.79,6.79,0,0,0,6.79,6.79h40.67a8.39,8.39,0,0,0,8.38-8.39v-.11H165.73Z"/><rect class="cls-11" x="192.03" y="82.32" width="7.95" height="3.79" rx="1.9"/><rect class="cls-11" x="211.58" y="82.32" width="7.95" height="3.79" rx="1.9"/><use width="87.83" height="44.91" transform="translate(25.81 104.98) scale(1.24)" xlink:href="#Toilet"/><ellipse class="cls-6" cx="140.14" cy="173.13" rx="4.32" ry="6.75"/><ellipse class="cls-6" cx="118.3" cy="173.13" rx="4.32" ry="6.75"/><ellipse class="cls-6" cx="156.64" cy="173.13" rx="4.32" ry="6.75"/><path class="cls-3" d="M129,162.17v14.35H117.86a8.38,8.38,0,0,1-8.39-8.39s0-6,7-8.08c6.61-2,8.66-13.64,23.37-13.64"/><path class="cls-3" d="M145.76,162.17h14.78a4.78,4.78,0,0,1,4.78,4.78v2.78a6.79,6.79,0,0,1-6.79,6.79H145.76a0,0,0,0,1,0,0V162.17A0,0,0,0,1,145.76,162.17Z"/><path class="cls-3" d="M163.63,153.77a8,8,0,0,0-7.94-7.36H139.86a9.1,9.1,0,0,0-8.46,6l-3.56,9.73h0v14.35h30.44a6.2,6.2,0,0,0,6.2-6.19C164.48,166,164,159.07,163.63,153.77Z"/><path class="cls-4" d="M130.48,150.09H144a1.38,1.38,0,0,1,1,2.37l-5.28,5.21a3.06,3.06,0,0,1-2.17.89H124a1.38,1.38,0,0,1-1-2.36L128.3,151A3.1,3.1,0,0,1,130.48,150.09Z"/><g class="cls-27"><g class="cls-36"><g class="cls-37"><g class="cls-38"><rect class="cls-31" x="144.85" y="151.89" width="15.94" height="11.63"/></g></g></g></g><path class="cls-32" d="M165.31,169.73a6.79,6.79,0,0,1-6.79,6.79H117.86a8.38,8.38,0,0,1-8.39-8.39V168h55.84Z"/><rect class="cls-11" x="131.07" y="165.56" width="7.95" height="3.79" rx="1.9" transform="translate(270.08 334.9) rotate(180)"/><rect class="cls-11" x="111.52" y="165.56" width="7.95" height="3.79" rx="1.9" transform="translate(230.98 334.9) rotate(180)"/><use width="73.71" height="87.37" transform="translate(247.82 321.23) scale(1.22)" xlink:href="#Commercial"/><ellipse class="cls-6" cx="227.96" cy="431.3" rx="4.32" ry="6.75"/><ellipse class="cls-6" cx="249.81" cy="431.3" rx="4.32" ry="6.75"/><ellipse class="cls-6" cx="211.47" cy="431.3" rx="4.32" ry="6.75"/><path class="cls-3" d="M239.08,420.34v14.35h11.17a8.39,8.39,0,0,0,8.39-8.39s0-6-7-8.08c-6.61-2-8.65-13.64-23.37-13.64"/><path class="cls-3" d="M202.79,420.34h12.76a6.79,6.79,0,0,1,6.79,6.79v2.78a4.78,4.78,0,0,1-4.78,4.78H202.79a0,0,0,0,1,0,0V420.34a0,0,0,0,1,0,0Z" transform="translate(425.14 855.03) rotate(180)"/><path class="cls-3" d="M203.63,428.5a6.19,6.19,0,0,0,6.19,6.19h30.45V420.34h0l-3.56-9.73a9.1,9.1,0,0,0-8.47-6H212.42a8,8,0,0,0-7.95,7.36C204.08,417.23,203.63,424.18,203.63,428.5Z"/><path class="cls-4" d="M237.63,408.26H224.08a1.38,1.38,0,0,0-1,2.36l5.28,5.22a3.1,3.1,0,0,0,2.17.89h13.55a1.38,1.38,0,0,0,1-2.36l-5.28-5.22A3.1,3.1,0,0,0,237.63,408.26Z"/><g class="cls-27"><g class="cls-39"><g class="cls-40"><g class="cls-41"><rect class="cls-31" x="207.31" y="410.06" width="15.94" height="11.63"/></g></g></g></g><path class="cls-32" d="M202.79,427.9a6.79,6.79,0,0,0,6.79,6.79h40.67a8.39,8.39,0,0,0,8.39-8.39.5.5,0,0,1,0-.11H202.79Z"/><rect class="cls-11" x="229.09" y="423.72" width="7.95" height="3.79" rx="1.9"/><rect class="cls-11" x="248.64" y="423.72" width="7.95" height="3.79" rx="1.9"/></g></g></svg>