<svg xmlns="http://www.w3.org/2000/svg" viewBox="0 0 29.08 17.65"><defs><style>.cls-1{fill:#252545;}.cls-2{fill:#fff;}.cls-3{fill:#78cddb;}</style></defs><title>car</title><g id="Layer_2" data-name="Layer 2"><g id="Layer_2-2" data-name="Layer 2"><ellipse class="cls-1" cx="16.88" cy="14.09" rx="2.28" ry="3.56"/><ellipse class="cls-1" cx="4.29" cy="14.09" rx="2.28" ry="3.56"/><ellipse class="cls-1" cx="24.88" cy="14.09" rx="2.28" ry="3.56"/><path class="cls-1" d="M0,8.31H8.43a1.88,1.88,0,0,1,1.88,1.88V12.3a3.58,3.58,0,0,1-3.58,3.58H0a0,0,0,0,1,0,0V8.31A0,0,0,0,1,0,8.31Z" transform="translate(10.31 24.19) rotate(-180)"/><path class="cls-1" d="M25.11,3.18A4.81,4.81,0,0,0,20.64,0H16a4.81,4.81,0,0,0-4.47,3.18L9.69,8.31h0v7.57h16A3.26,3.26,0,0,0,29,12.61"/><path class="cls-1" d="M22.53,7.36,21,3.18A4.81,4.81,0,0,0,16.53,0H9.89A4.81,4.81,0,0,0,5.43,3.18L3.86,7.46a5.3,5.3,0,0,0-.31,1.76v3.39a3.27,3.27,0,0,0,3.27,3.27H19.41a3.48,3.48,0,0,0,3.47-3.47V9.33A5.76,5.76,0,0,0,22.53,7.36Z"/><path class="cls-1" d="M18.77,8.31h7.79a2.52,2.52,0,0,1,2.52,2.52V12.3a3.58,3.58,0,0,1-3.58,3.58H18.77a0,0,0,0,1,0,0V8.31A0,0,0,0,1,18.77,8.31Z"/><ellipse class="cls-2" cx="15.97" cy="12.1" rx="1.37" ry="1.4"/><ellipse class="cls-2" cx="2.93" cy="12.1" rx="1.37" ry="1.4"/><path class="cls-3" d="M8.25,1.86H18.5a.5.5,0,0,1,.48.68L17.27,7.22a1.1,1.1,0,0,1-1,.72H6.05a.55.55,0,0,1-.52-.74l1.7-4.63A1.08,1.08,0,0,1,8.25,1.86Z"/></g></g></svg>