<svg xmlns="http://www.w3.org/2000/svg" xmlns:xlink="http://www.w3.org/1999/xlink" viewBox="0 0 171.15 33.42"><defs><style>.cls-1{fill:url(#linear-gradient);}.cls-2{fill:#fff;}.cls-3{fill:#fcd72a;}.cls-4{fill:#252545;}</style><linearGradient id="linear-gradient" x1="118.94" y1="25.01" x2="118.94" y2="0.99" gradientUnits="userSpaceOnUse"><stop offset="0" stop-color="#71be49"/><stop offset="0.85" stop-color="#a2c753"/></linearGradient></defs><title>fence</title><g id="Layer_2" data-name="Layer 2"><g id="Building"><path class="cls-1" d="M66.73,25.62S83.51,2.94,109.35,1.11c30.29-2.14,49,9.59,61.8,24.51Z"/><polygon class="cls-2" points="5.99 2.79 3 0 0 2.79 0 17.07 5.99 17.07 5.99 2.79"/><polygon class="cls-2" points="15.74 2.79 12.74 0 9.74 2.79 9.74 17.07 15.74 17.07 15.74 2.79"/><polygon class="cls-2" points="25.48 2.79 22.48 0 19.48 2.79 19.48 17.07 25.48 17.07 25.48 2.79"/><polygon class="cls-2" points="35.22 2.79 32.22 0 29.23 2.79 29.23 17.07 35.22 17.07 35.22 2.79"/><rect class="cls-2" x="5.99" y="7.1" width="23.78" height="4.31"/><path class="cls-3" d="M125.07,23.11a2.18,2.18,0,0,1,1.18-.35,2.21,2.21,0,0,1,1.19.35,4.48,4.48,0,0,0,.84-2.54c.15-2.79-1.46-3.83-2-4.11a4,4,0,0,0-2,4.11A4.48,4.48,0,0,0,125.07,23.11Z"/><path class="cls-3" d="M125.07,26.78a2.17,2.17,0,0,0,1.18.34,2.2,2.2,0,0,0,1.19-.34,4.45,4.45,0,0,1,.84,2.53c.15,2.8-1.46,3.83-2,4.11-.56-.28-2.18-1.31-2-4.11A4.45,4.45,0,0,1,125.07,26.78Z"/><path class="cls-3" d="M124.12,24.48a2.19,2.19,0,0,1,1.67-1.67,4.38,4.38,0,0,0-1.2-2.39c-1.86-2.09-3.74-1.68-4.33-1.47-.21.59-.62,2.47,1.47,4.33A4.38,4.38,0,0,0,124.12,24.48Z"/><path class="cls-3" d="M126.71,27.08a2.21,2.21,0,0,0,1.09-.59,2.29,2.29,0,0,0,.59-1.09,4.59,4.59,0,0,1,2.39,1.2c2.08,1.87,1.67,3.74,1.47,4.34-.6.2-2.47.61-4.34-1.47A4.59,4.59,0,0,1,126.71,27.08Z"/><path class="cls-3" d="M124.42,26.13a2.21,2.21,0,0,1-.35-1.19,2.18,2.18,0,0,1,.35-1.18,4.48,4.48,0,0,0-2.54-.84c-2.79-.16-3.83,1.46-4.1,2,.27.57,1.31,2.18,4.1,2A4.48,4.48,0,0,0,124.42,26.13Z"/><path class="cls-3" d="M128.09,26.13a2.21,2.21,0,0,0,.35-1.19,2.18,2.18,0,0,0-.35-1.18,4.45,4.45,0,0,1,2.53-.84c2.8-.16,3.83,1.46,4.11,2-.28.57-1.31,2.18-4.11,2A4.45,4.45,0,0,1,128.09,26.13Z"/><path class="cls-3" d="M125.79,27.08a2.18,2.18,0,0,1-1.08-.59,2.13,2.13,0,0,1-.59-1.09,4.52,4.52,0,0,0-2.39,1.2c-2.09,1.87-1.68,3.74-1.47,4.34a4,4,0,0,0,4.33-1.47A4.52,4.52,0,0,0,125.79,27.08Z"/><path class="cls-3" d="M128.39,24.48a2.26,2.26,0,0,0-.59-1.08,2.13,2.13,0,0,0-1.09-.59,4.52,4.52,0,0,1,1.2-2.39c1.87-2.09,3.74-1.68,4.34-1.47a4,4,0,0,1-1.47,4.33A4.44,4.44,0,0,1,128.39,24.48Z"/><path class="cls-4" d="M128.69,24.94a2.44,2.44,0,1,1-2.44-2.43A2.44,2.44,0,0,1,128.69,24.94Z"/><path class="cls-3" d="M107.43,14.63a2.18,2.18,0,0,1,2.37,0,4.45,4.45,0,0,0,.84-2.54c.16-2.79-1.46-3.83-2-4.1-.56.27-2.18,1.31-2,4.1A4.45,4.45,0,0,0,107.43,14.63Z"/><path class="cls-3" d="M107.43,18.3a2.18,2.18,0,0,0,2.37,0,4.45,4.45,0,0,1,.84,2.54c.16,2.79-1.46,3.83-2,4.1-.56-.27-2.18-1.31-2-4.1A4.45,4.45,0,0,1,107.43,18.3Z"/><path class="cls-3" d="M106.48,16a2.19,2.19,0,0,1,1.67-1.67A4.46,4.46,0,0,0,107,11.94c-1.87-2.08-3.75-1.67-4.34-1.47-.2.59-.61,2.47,1.47,4.34A4.42,4.42,0,0,0,106.48,16Z"/><path class="cls-3" d="M109.07,18.6a2.18,2.18,0,0,0,1.68-1.67,4.46,4.46,0,0,1,2.39,1.19c2.08,1.87,1.67,3.74,1.47,4.34-.6.2-2.47.61-4.34-1.47A4.52,4.52,0,0,1,109.07,18.6Z"/><path class="cls-3" d="M106.78,17.65a2.18,2.18,0,0,1,0-2.37,4.48,4.48,0,0,0-2.54-.84c-2.79-.16-3.83,1.46-4.1,2,.27.57,1.31,2.19,4.1,2A4.48,4.48,0,0,0,106.78,17.65Z"/><path class="cls-3" d="M110.45,17.65a2.18,2.18,0,0,0,0-2.37,4.45,4.45,0,0,1,2.54-.84c2.79-.16,3.83,1.46,4.1,2-.27.57-1.31,2.19-4.1,2A4.45,4.45,0,0,1,110.45,17.65Z"/><path class="cls-3" d="M108.15,18.6a2.19,2.19,0,0,1-1.67-1.67,4.42,4.42,0,0,0-2.39,1.19c-2.08,1.87-1.67,3.74-1.47,4.34.59.2,2.47.61,4.34-1.47A4.42,4.42,0,0,0,108.15,18.6Z"/><path class="cls-3" d="M110.75,16a2.18,2.18,0,0,0-1.68-1.67,4.56,4.56,0,0,1,1.2-2.39c1.87-2.08,3.74-1.67,4.34-1.47.2.59.61,2.47-1.47,4.34A4.46,4.46,0,0,1,110.75,16Z"/><path class="cls-4" d="M111.05,16.46A2.44,2.44,0,1,1,108.62,14,2.43,2.43,0,0,1,111.05,16.46Z"/></g></g></svg>