<svg xmlns="http://www.w3.org/2000/svg" viewBox="0 0 33.21 33.21"><defs><style>.cls-1{fill:#fcd72a;}.cls-2{fill:#252545;}</style></defs><title>flower</title><g id="Layer_2" data-name="Layer 2"><g id="Layer_2-2" data-name="Layer 2"><path class="cls-1" d="M14.29,13a4.28,4.28,0,0,1,4.63,0,8.71,8.71,0,0,0,1.65-5c.31-5.47-2.86-7.5-4-8-1.1.54-4.27,2.57-4,8A8.78,8.78,0,0,0,14.29,13Z"/><path class="cls-1" d="M14.29,20.2a4.28,4.28,0,0,0,4.63,0,8.68,8.68,0,0,1,1.65,5c.31,5.47-2.86,7.5-4,8-1.1-.54-4.27-2.57-4-8A8.75,8.75,0,0,1,14.29,20.2Z"/><path class="cls-1" d="M12.42,15.7a4.27,4.27,0,0,1,3.28-3.27,8.85,8.85,0,0,0-2.34-4.69C9.7,3.66,6,4.46,4.86,4.87,4.46,6,3.66,9.7,7.74,13.36A8.86,8.86,0,0,0,12.42,15.7Z"/><path class="cls-1" d="M17.5,20.78a4.26,4.26,0,0,0,2.13-1.15,4.35,4.35,0,0,0,1.15-2.12,8.72,8.72,0,0,1,4.68,2.34c4.09,3.66,3.28,7.33,2.88,8.49-1.16.4-4.84,1.21-8.49-2.87A8.87,8.87,0,0,1,17.5,20.78Z"/><path class="cls-1" d="M13,18.92a4.28,4.28,0,0,1,0-4.63,8.74,8.74,0,0,0-5-1.65c-5.47-.31-7.5,2.86-8,4,.54,1.11,2.57,4.28,8,4A8.74,8.74,0,0,0,13,18.92Z"/><path class="cls-1" d="M20.2,18.92a4.28,4.28,0,0,0,0-4.63,8.67,8.67,0,0,1,5-1.65c5.47-.31,7.51,2.86,8.05,4-.54,1.11-2.58,4.28-8,4A8.67,8.67,0,0,1,20.2,18.92Z"/><path class="cls-1" d="M15.7,20.78a4.19,4.19,0,0,1-2.12-1.15,4.25,4.25,0,0,1-1.16-2.12,8.78,8.78,0,0,0-4.68,2.34c-4.08,3.66-3.28,7.33-2.88,8.49,1.17.4,4.84,1.21,8.5-2.87A8.85,8.85,0,0,0,15.7,20.78Z"/><path class="cls-1" d="M20.78,15.7a4.23,4.23,0,0,0-3.28-3.27,8.87,8.87,0,0,1,2.35-4.69c3.65-4.08,7.33-3.28,8.49-2.87.4,1.16,1.21,4.83-2.88,8.48A8.74,8.74,0,0,1,20.78,15.7Z"/><path class="cls-2" d="M21.37,16.6a4.77,4.77,0,1,1-4.77-4.76A4.76,4.76,0,0,1,21.37,16.6Z"/></g></g></svg>