<svg xmlns="http://www.w3.org/2000/svg" xmlns:xlink="http://www.w3.org/1999/xlink" viewBox="0 0 564.68 657.55"><defs><style>.cls-1,.cls-10,.cls-12,.cls-17,.cls-19,.cls-22,.cls-23,.cls-28,.cls-29,.cls-31,.cls-36,.cls-37,.cls-39,.cls-41,.cls-43,.cls-51,.cls-57,.cls-58,.cls-62,.cls-63,.cls-66,.cls-72,.cls-73{fill:none;}.cls-2{fill:#f2f2f2;}.cls-3{fill:#e6e6e6;}.cls-4{fill:#78cddb;}.cls-32,.cls-34,.cls-5{fill:#252545;}.cls-6{fill:gray;}.cls-7{fill:#ccc;}.cls-8{clip-path:url(#clip-path);}.cls-9{opacity:0.55;}.cls-10,.cls-12,.cls-19,.cls-22,.cls-23,.cls-28,.cls-39,.cls-41,.cls-43{stroke:#fff;}.cls-10,.cls-12,.cls-19,.cls-23,.cls-29,.cls-32,.cls-41,.cls-62,.cls-63{stroke-linecap:round;}.cls-10,.cls-12,.cls-17,.cls-19,.cls-22,.cls-23,.cls-28,.cls-29,.cls-31,.cls-36,.cls-37,.cls-39,.cls-41,.cls-43,.cls-51,.cls-57,.cls-58,.cls-62,.cls-63,.cls-66,.cls-72{stroke-miterlimit:10;}.cls-10,.cls-41{stroke-width:14px;}.cls-11{clip-path:url(#clip-path-2);}.cls-12,.cls-19,.cls-39{stroke-width:2px;}.cls-12{opacity:0.56;}.cls-13{fill:#f24949;}.cls-14{fill:#fff;}.cls-15{clip-path:url(#clip-path-3);}.cls-16{fill:#1a1a1a;}.cls-16,.cls-34{opacity:0.41;}.cls-16,.cls-25,.cls-26,.cls-34{mix-blend-mode:darken;}.cls-17{stroke:#ccc;stroke-width:0.5px;}.cls-18{clip-path:url(#clip-path-4);}.cls-20{clip-path:url(#clip-path-5);}.cls-21{clip-path:url(#clip-path-6);}.cls-22,.cls-23,.cls-28,.cls-29,.cls-32{stroke-width:3px;}.cls-24{clip-path:url(#clip-path-7);}.cls-25,.cls-26{opacity:0.19;}.cls-25{fill:url(#linear-gradient);}.cls-26{fill:url(#linear-gradient-2);}.cls-27{clip-path:url(#clip-path-9);}.cls-28,.cls-41{opacity:0.6;}.cls-29,.cls-31,.cls-32,.cls-37,.cls-72{stroke:#252545;}.cls-30{clip-path:url(#clip-path-10);}.cls-31{stroke-width:0.93px;}.cls-32,.cls-73{stroke-linejoin:round;}.cls-33{clip-path:url(#clip-path-11);}.cls-35{fill:#fcd72a;}.cls-36{stroke:#fcd72a;}.cls-37{stroke-width:1.62px;}.cls-38{clip-path:url(#clip-path-13);}.cls-40{clip-path:url(#clip-path-14);}.cls-42{clip-path:url(#clip-path-15);}.cls-43{stroke-width:0.97px;}.cls-44{clip-path:url(#clip-path-16);}.cls-45{clip-path:url(#clip-path-19);}.cls-46{clip-path:url(#clip-path-20);}.cls-47{clip-path:url(#clip-path-21);}.cls-48{clip-path:url(#clip-path-22);}.cls-49{clip-path:url(#clip-path-23);}.cls-50{fill:#e5d7ad;}.cls-51,.cls-58,.cls-66{stroke:#e5d7ad;}.cls-51{stroke-width:0.58px;}.cls-52{isolation:isolate;}.cls-53{fill:#6a9b4b;}.cls-54{fill:#71be49;}.cls-55{fill:url(#linear-gradient-3);}.cls-56{fill:url(#linear-gradient-4);}.cls-57,.cls-62{stroke:#f2f2f2;}.cls-57,.cls-58{stroke-width:1.55px;}.cls-59{clip-path:url(#clip-path-24);}.cls-60{clip-path:url(#clip-path-25);}.cls-61{fill:url(#linear-gradient-5);}.cls-62{stroke-width:20.37px;}.cls-63{stroke:#b3b3b3;stroke-dasharray:10;}.cls-64{fill:url(#linear-gradient-6);}.cls-65{fill:url(#linear-gradient-7);}.cls-66{stroke-width:1.74px;}.cls-67{fill:url(#linear-gradient-8);}.cls-68{fill:url(#linear-gradient-9);}.cls-69{fill:url(#linear-gradient-10);}.cls-70{fill:#c8e583;}.cls-71{fill:url(#linear-gradient-11);}.cls-72,.cls-73{stroke-width:1.85px;}.cls-73{stroke:#f24949;}.cls-74{fill:url(#linear-gradient-12);}.cls-75{fill:url(#linear-gradient-13);}.cls-76{fill:url(#linear-gradient-14);}.cls-77{fill:url(#linear-gradient-15);}.cls-78{fill:url(#linear-gradient-16);}</style><clipPath id="clip-path"><polygon class="cls-1" points="139.37 63.4 104.13 63.4 104.13 24.6 133.78 20.02 139.37 63.4"/></clipPath><clipPath id="clip-path-2"><polygon class="cls-1" points="102.31 63.4 67.07 63.4 67.07 30.32 96.72 25.74 102.31 63.4"/></clipPath><clipPath id="clip-path-3"><polygon class="cls-1" points="14.29 63.4 36.65 63.4 36.65 34.25 14.29 37.31 14.29 63.4"/></clipPath><clipPath id="clip-path-4"><rect class="cls-1" x="139.01" y="29.83" width="32.31" height="16.55"/></clipPath><clipPath id="clip-path-5"><rect class="cls-1" x="139.01" y="52.84" width="32.31" height="17.28"/></clipPath><clipPath id="clip-path-6"><rect class="cls-1" x="95.33" y="52.84" width="41.16" height="24.11"/></clipPath><clipPath id="clip-path-7"><rect class="cls-1" x="39.46" y="29.83" width="32.31" height="16.55"/></clipPath><linearGradient id="linear-gradient" x1="36.48" y1="17.49" x2="41.98" y2="17.49" gradientUnits="userSpaceOnUse"><stop offset="0" stop-color="#1a1a1a"/><stop offset="0.17" stop-color="#161616" stop-opacity="0.86"/><stop offset="0.37" stop-color="#090909" stop-opacity="0.45"/><stop offset="0.44" stop-color="#020202" stop-opacity="0.24"/><stop offset="0.89" stop-opacity="0"/><stop offset="1" stop-color="#fff" stop-opacity="0"/></linearGradient><linearGradient id="linear-gradient-2" x1="20.62" y1="17.49" x2="26.13" y2="17.49" xlink:href="#linear-gradient"/><clipPath id="clip-path-9"><rect class="cls-1" x="37.46" y="45.97" width="11.77" height="11.77"/></clipPath><clipPath id="clip-path-10"><rect class="cls-1" x="98.57" y="60.51" width="10.45" height="10.02"/></clipPath><clipPath id="clip-path-11"><path class="cls-1" d="M75.64,50.26h0A11.42,11.42,0,0,1,87.06,61.68V75.57a0,0,0,0,1,0,0H64.23a0,0,0,0,1,0,0V61.68A11.42,11.42,0,0,1,75.64,50.26Z"/></clipPath><clipPath id="clip-path-13"><rect class="cls-1" x="137.89" y="88.7" width="9.81" height="9.81"/></clipPath><clipPath id="clip-path-14"><rect class="cls-1" x="123.59" y="60.92" width="9.81" height="9.81"/></clipPath><clipPath id="clip-path-15"><rect class="cls-1" x="49.27" y="33.15" width="9.81" height="9.81"/></clipPath><clipPath id="clip-path-16"><path class="cls-1" d="M89.24,68.49h0a8.07,8.07,0,0,1,8.07,8.07v9.82a0,0,0,0,1,0,0H81.16a0,0,0,0,1,0,0V76.56A8.07,8.07,0,0,1,89.24,68.49Z"/></clipPath><clipPath id="clip-path-19"><rect class="cls-1" x="59.61" y="51" width="9.6" height="10.21"/></clipPath><clipPath id="clip-path-20"><rect class="cls-1" x="105.64" y="26.12" width="10.45" height="10.45"/></clipPath><clipPath id="clip-path-21"><rect class="cls-1" x="93.12" y="19.82" width="10.45" height="10.45"/></clipPath><clipPath id="clip-path-22"><rect class="cls-1" x="29.97" y="26.12" width="10.45" height="10.45"/></clipPath><clipPath id="clip-path-23"><rect class="cls-1" x="49.27" y="16.28" width="9.81" height="9.81"/></clipPath><linearGradient id="linear-gradient-3" x1="371.22" y1="458.41" x2="371.22" y2="424.13" gradientUnits="userSpaceOnUse"><stop offset="0" stop-color="#71be49"/><stop offset="0.85" stop-color="#a2c753"/></linearGradient><linearGradient id="linear-gradient-4" x1="232.73" y1="592.13" x2="232.73" y2="557.85" xlink:href="#linear-gradient-3"/><clipPath id="clip-path-24"><rect class="cls-1" x="347.43" y="92.73" width="9.81" height="9.81"/></clipPath><clipPath id="clip-path-25"><rect class="cls-1" x="318.84" y="51.06" width="9.81" height="9.81"/></clipPath><linearGradient id="linear-gradient-5" x1="412.08" y1="242.06" x2="412.08" y2="216.35" xlink:href="#linear-gradient-3"/><linearGradient id="linear-gradient-6" x1="292.74" y1="533.58" x2="292.74" y2="507.87" xlink:href="#linear-gradient-3"/><linearGradient id="linear-gradient-7" x1="272.57" y1="350.98" x2="272.57" y2="325.27" xlink:href="#linear-gradient-3"/><linearGradient id="linear-gradient-8" x1="148.87" y1="414.41" x2="148.87" y2="390.38" xlink:href="#linear-gradient-3"/><linearGradient id="linear-gradient-9" x1="228.63" y1="604.27" x2="228.63" y2="592.72" xlink:href="#linear-gradient-3"/><linearGradient id="linear-gradient-10" x1="297.89" y1="233.59" x2="297.89" y2="207.57" xlink:href="#linear-gradient-3"/><linearGradient id="linear-gradient-11" x1="222.04" y1="133.46" x2="222.04" y2="113.85" xlink:href="#linear-gradient-3"/><linearGradient id="linear-gradient-12" x1="64.87" y1="484.96" x2="64.87" y2="471.4" xlink:href="#linear-gradient-3"/><linearGradient id="linear-gradient-13" x1="451" y1="260.17" x2="451" y2="240.56" xlink:href="#linear-gradient-3"/><linearGradient id="linear-gradient-14" x1="200.34" y1="604.11" x2="200.34" y2="592.29" xlink:href="#linear-gradient-3"/><linearGradient id="linear-gradient-15" x1="69.94" y1="146.8" x2="69.94" y2="127.19" xlink:href="#linear-gradient-3"/><linearGradient id="linear-gradient-16" x1="279.82" y1="371.37" x2="279.82" y2="352.05" xlink:href="#linear-gradient-3"/><symbol id="Car" data-name="Car" viewBox="0 0 167.81 74.71"><path class="cls-2" d="M12.81,74.6l31.9.09V21.52L6.81,25.68V68.34A6.23,6.23,0,0,0,12.81,74.6Z"/><polygon class="cls-2" points="158.42 74.6 44.71 74.6 44.71 21.52 158.42 7.03 158.42 74.6"/><path class="cls-3" d="M8,63.4H160.95a6.86,6.86,0,0,1,6.86,6.86v4.44a0,0,0,0,1,0,0H0a0,0,0,0,1,0,0v-3.3A8,8,0,0,1,8,63.4Z"/><polygon class="cls-4" points="149.52 17.59 51.52 32.72 51.52 63.4 149.52 63.4 149.52 17.59"/><ellipse class="cls-5" cx="75.38" cy="60.05" rx="2.28" ry="3.56"/><ellipse class="cls-5" cx="87.97" cy="60.05" rx="2.28" ry="3.56"/><ellipse class="cls-5" cx="67.38" cy="60.05" rx="2.28" ry="3.56"/><path class="cls-6" d="M81.95,54.27h6.73a3.58,3.58,0,0,1,3.58,3.58V60a1.88,1.88,0,0,1-1.88,1.88H81.95a0,0,0,0,1,0,0V54.27A0,0,0,0,1,81.95,54.27Z"/><path class="cls-6" d="M65.7,54.27h7.79v7.57H66.76a3.58,3.58,0,0,1-3.58-3.58V56.79A2.52,2.52,0,0,1,65.7,54.27Z"/><path class="cls-6" d="M63.25,58.57a3.26,3.26,0,0,0,3.27,3.27h16V54.27h0l-1.88-5.13A4.8,4.8,0,0,0,76.23,46H71.62a4.81,4.81,0,0,0-4.47,3.18"/><path class="cls-6" d="M69.38,55.29v3.08a3.47,3.47,0,0,0,3.47,3.47H85.44a3.27,3.27,0,0,0,3.27-3.27V55.18a5,5,0,0,0-.32-1.75l-1.56-4.29A4.81,4.81,0,0,0,82.36,46H75.72a4.81,4.81,0,0,0-4.46,3.18l-1.53,4.18A5.76,5.76,0,0,0,69.38,55.29Z"/><ellipse class="cls-7" cx="76.29" cy="58.06" rx="1.37" ry="1.4"/><ellipse class="cls-7" cx="89.33" cy="58.06" rx="1.37" ry="1.4"/><path class="cls-4" d="M84,47.82H73.75a.51.51,0,0,0-.48.69L75,53.19a1.09,1.09,0,0,0,1,.71h10.2a.55.55,0,0,0,.52-.74L85,48.53A1.09,1.09,0,0,0,84,47.82Z"/><rect class="cls-2" x="59.66" y="17.79" width="7.41" height="45.61"/><rect class="cls-2" x="96.72" y="13.47" width="7.41" height="49.93"/><rect class="cls-2" x="133.78" y="8.16" width="7.41" height="55.24"/><path class="cls-5" d="M6.31,29l-.2-1.39a6,6,0,0,1,5.07-6.81L153,.05a4.92,4.92,0,0,1,5.58,4.16l.36,2.46Z"/><g class="cls-8"><g class="cls-9"><line class="cls-10" x1="128.38" y1="11.64" x2="106.26" y2="58.83"/></g></g><g class="cls-11"><line class="cls-12" x1="90.26" y1="20.69" x2="68.14" y2="68.04"/></g><ellipse class="cls-5" cx="111.85" cy="60.05" rx="2.28" ry="3.56"/><ellipse class="cls-5" cx="124.44" cy="60.05" rx="2.28" ry="3.56"/><ellipse class="cls-5" cx="103.86" cy="60.05" rx="2.28" ry="3.56"/><path class="cls-13" d="M118.42,54.27h6.73a3.58,3.58,0,0,1,3.58,3.58V60a1.88,1.88,0,0,1-1.88,1.88h-8.43a0,0,0,0,1,0,0V54.27A0,0,0,0,1,118.42,54.27Z"/><path class="cls-13" d="M102.17,54.27H110v7.57h-6.74a3.58,3.58,0,0,1-3.58-3.58V56.79A2.52,2.52,0,0,1,102.17,54.27Z"/><path class="cls-13" d="M99.72,58.57A3.26,3.26,0,0,0,103,61.84H119V54.27h0l-1.87-5.13A4.81,4.81,0,0,0,112.7,46h-4.61a4.81,4.81,0,0,0-4.47,3.18"/><path class="cls-13" d="M105.86,55.29v3.08a3.47,3.47,0,0,0,3.47,3.47h12.58a3.26,3.26,0,0,0,3.27-3.27V55.18a5.2,5.2,0,0,0-.31-1.75l-1.57-4.29A4.81,4.81,0,0,0,118.84,46H112.2a4.81,4.81,0,0,0-4.47,3.18l-1.53,4.18A5.75,5.75,0,0,0,105.86,55.29Z"/><ellipse class="cls-14" cx="112.76" cy="58.06" rx="1.37" ry="1.4"/><ellipse class="cls-14" cx="125.8" cy="58.06" rx="1.37" ry="1.4"/><path class="cls-4" d="M120.48,47.82H110.23a.51.51,0,0,0-.48.69l1.71,4.68a1.09,1.09,0,0,0,1,.71h10.19a.55.55,0,0,0,.52-.74l-1.7-4.63A1.07,1.07,0,0,0,120.48,47.82Z"/><polygon class="cls-4" points="14.29 63.4 36.65 63.4 36.65 34.25 14.29 37.31 14.29 63.4"/><g class="cls-15"><ellipse class="cls-5" cx="33.67" cy="60.05" rx="2.28" ry="3.56"/><ellipse class="cls-5" cx="21.08" cy="60.05" rx="2.28" ry="3.56"/><ellipse class="cls-5" cx="41.67" cy="60.05" rx="2.28" ry="3.56"/><path class="cls-6" d="M18.67,61.84H27.1V54.27H20.37a3.59,3.59,0,0,0-3.58,3.59V60A1.88,1.88,0,0,0,18.67,61.84Z"/><path class="cls-6" d="M35.56,54.27h7.79a2.52,2.52,0,0,1,2.52,2.52v1.47a3.58,3.58,0,0,1-3.58,3.58H35.56a0,0,0,0,1,0,0V54.27A0,0,0,0,1,35.56,54.27Z"/><path class="cls-6" d="M41.9,49.14A4.81,4.81,0,0,0,37.43,46H32.82a4.8,4.8,0,0,0-4.46,3.18l-1.88,5.13h0v7.57H42.53a3.26,3.26,0,0,0,3.27-3.27"/><path class="cls-6" d="M39.32,53.32l-1.53-4.18A4.81,4.81,0,0,0,33.33,46H26.69a4.81,4.81,0,0,0-4.47,3.18l-1.56,4.29a5,5,0,0,0-.31,1.75v3.39a3.27,3.27,0,0,0,3.27,3.27H36.2a3.47,3.47,0,0,0,3.47-3.47V55.29A5.76,5.76,0,0,0,39.32,53.32Z"/><ellipse class="cls-7" cx="32.76" cy="58.06" rx="1.37" ry="1.4"/><ellipse class="cls-7" cx="19.72" cy="58.06" rx="1.37" ry="1.4"/><path class="cls-4" d="M25,47.82H35.3a.51.51,0,0,1,.48.69l-1.72,4.68a1.09,1.09,0,0,1-1,.71H22.84a.55.55,0,0,1-.52-.74L24,48.53A1.09,1.09,0,0,1,25,47.82Z"/></g><path class="cls-16" d="M6.81,29V63.5A8,8,0,0,0,0,71.41v3.3H44.71V23.23Z"/></symbol><symbol id="Professional" data-name="Professional" viewBox="0 0 155.56 125.83"><path class="cls-2" d="M101.61,125.83H78.91a5,5,0,0,1-5-5V25.32h27.7Z"/><rect class="cls-4" x="85.23" y="74.81" width="9.81" height="23.7"/><rect class="cls-4" x="85.23" y="33.15" width="9.81" height="23.7"/><path class="cls-16" d="M101.61,125.83H78.91a5,5,0,0,1-5-5V22.77a5,5,0,0,1,5-5h22.7Z"/><path class="cls-2" d="M149.14,125.83H101.69V23.25h52.45v97.58A5,5,0,0,1,149.14,125.83Z"/><path class="cls-5" d="M154.14,25.32H73.91V22.77a5,5,0,0,1,5-5h69.23a6,6,0,0,1,6,6Z"/><rect class="cls-4" x="123.59" y="33.15" width="9.81" height="23.7"/><rect class="cls-4" x="109.3" y="47.03" width="9.81" height="9.81"/><rect class="cls-4" x="123.59" y="60.92" width="9.81" height="9.81"/><rect class="cls-4" x="137.89" y="60.92" width="9.81" height="9.81"/><rect class="cls-4" x="109.3" y="74.81" width="9.81" height="23.7"/><rect class="cls-4" x="137.89" y="88.7" width="9.81" height="9.81"/><rect class="cls-4" x="109.3" y="102.59" width="9.81" height="9.81"/><rect class="cls-4" x="123.59" y="102.59" width="9.81" height="9.81"/><line class="cls-37" x1="116.11" y1="19.65" x2="116.11"/><line class="cls-37" x1="119.99" y1="19.65" x2="119.99" y2="9.82"/><ellipse class="cls-5" cx="137.89" cy="13.28" rx="8.75" ry="7.75" transform="translate(30.99 101.39) rotate(-45)"/><g class="cls-38"><line class="cls-39" x1="154.66" y1="73.06" x2="138.52" y2="107.49"/></g><g class="cls-40"><line class="cls-41" x1="128.5" y1="51.03" x2="112.36" y2="85.46"/></g><path class="cls-2" d="M27.37,125.83H6a6,6,0,0,1-6-6V25.32H27.37Z"/><rect class="cls-4" x="9.99" y="74.81" width="10.81" height="23.7"/><rect class="cls-4" x="9.99" y="33.15" width="10.81" height="23.7"/><path class="cls-16" d="M27.37,125.83H6a6,6,0,0,1-6-6V23.77a6,6,0,0,1,6-6H27.37Z"/><path class="cls-2" d="M74.82,125.83H27.37V25.32H79.82v95.51A5,5,0,0,1,74.82,125.83Z"/><rect class="cls-4" x="49.27" y="33.15" width="9.81" height="9.81"/><rect class="cls-4" x="34.97" y="33.15" width="9.81" height="23.7"/><rect class="cls-4" x="34.97" y="60.92" width="9.81" height="9.81"/><rect class="cls-4" x="63.56" y="60.92" width="9.81" height="24.61"/><rect class="cls-4" x="34.97" y="88.7" width="9.81" height="9.81"/><rect class="cls-4" x="49.27" y="74.54" width="9.81" height="23.98"/><rect class="cls-4" x="34.97" y="102.59" width="9.81" height="9.81"/><path class="cls-5" d="M79.82,25.32H0V23.77a6,6,0,0,1,6-6H72.27a7.55,7.55,0,0,1,7.55,7.55Z"/><line class="cls-37" x1="44.83" y1="19.65" x2="44.83"/><ellipse class="cls-5" cx="29.07" cy="13.28" rx="7.75" ry="8.75" transform="translate(-0.88 24.45) rotate(-45)"/><g class="cls-42"><line class="cls-22" x1="66.04" y1="17.5" x2="49.9" y2="51.93"/></g></symbol><symbol id="Tree_yellow" data-name="Tree yellow" viewBox="0 0 40.29 52.45"><rect class="cls-50" x="16.95" y="25.34" width="3.57" height="27.11"/><path class="cls-51" d="M29.35,29.12"/><path class="cls-50" d="M18.73,40.61A11.51,11.51,0,0,1,7.24,29.12H9a9.76,9.76,0,0,0,9.75,9.75Z"/><circle class="cls-35" cx="9.09" cy="25.34" r="9.09"/><path class="cls-50" d="M18.73,38.31V36.57a9.76,9.76,0,0,0,9.75-9.76h1.74A11.51,11.51,0,0,1,18.73,38.31Z"/><circle class="cls-35" cx="24.04" cy="16.24" r="16.24"/></symbol><symbol id="Shop_2" data-name="Shop 2" viewBox="0 0 124.41 73.28"><path class="cls-3" d="M122.72,66.65a6.61,6.61,0,0,1-6.61,6.61H82.44c-3.74,0-6.77-2.69-6.77-6V20h47.05Z"/><path class="cls-5" d="M122.72,20.18h-47V18.09a6,6,0,0,1,6-6h35.05a6,6,0,0,1,6,6Z"/><rect class="cls-4" x="105.64" y="26.13" width="10.52" height="10.52"/><rect class="cls-4" x="105.64" y="41.02" width="10.52" height="10.52"/><rect class="cls-4" x="82.62" y="26.13" width="10.52" height="10.52"/><rect class="cls-4" x="82.62" y="41.02" width="10.52" height="10.52"/><rect class="cls-4" x="105.64" y="55.91" width="10.52" height="10.52"/><g class="cls-46"><line class="cls-39" x1="123.5" y1="9.46" x2="106.31" y2="46.12"/></g><path class="cls-16" d="M99.08,73.27H81.67a6,6,0,0,1-6-6V18.09a6,6,0,0,1,6-6H99.08Z"/><rect class="cls-2" x="23.52" y="7.91" width="87.03" height="65.37"/><path class="cls-5" d="M110.55,8.09h-87V6a6,6,0,0,1,6-6h75a6,6,0,0,1,6,6Z"/><rect class="cls-4" x="62.48" y="19.83" width="10.52" height="10.52"/><rect class="cls-4" x="77.8" y="19.83" width="10.52" height="10.52"/><rect class="cls-4" x="34.25" y="19.83" width="10.52" height="10.52"/><rect class="cls-4" x="93.12" y="19.83" width="10.52" height="10.52"/><rect class="cls-4" x="62.48" y="39.98" width="41.16" height="33.3"/><rect class="cls-34" x="101.42" y="50.71" width="2.22" height="22.56"/><path class="cls-16" d="M54.59,7.91H23.52V6a6,6,0,0,1,6-6H54.59Z"/><rect class="cls-34" x="62.48" y="50.71" width="41.16" height="17.01"/><g class="cls-47"><line class="cls-41" x1="95.35" y1="9.29" x2="78.16" y2="45.95"/></g><polygon class="cls-14" points="76.43 55.44 71.18 55.44 62.48 39.98 67.72 39.98 76.43 55.44"/><polygon class="cls-14" points="86.92 55.44 81.67 55.44 72.97 39.98 78.21 39.98 86.92 55.44"/><polygon class="cls-14" points="97.41 55.44 92.17 55.44 83.46 39.98 88.7 39.98 97.41 55.44"/><polygon class="cls-14" points="107.9 55.44 102.66 55.44 93.95 39.98 99.19 39.98 107.9 55.44"/><polygon class="cls-5" points="81.67 55.44 76.43 55.44 67.72 39.98 72.97 39.98 81.67 55.44"/><polygon class="cls-5" points="92.17 55.44 86.92 55.44 78.21 39.98 83.46 39.98 92.17 55.44"/><polygon class="cls-5" points="102.66 55.44 97.41 55.44 88.7 39.98 93.95 39.98 102.66 55.44"/><polygon class="cls-5" points="113.15 55.44 107.9 55.44 99.19 39.98 104.44 39.98 113.15 55.44"/><path class="cls-14" d="M76.43,55.44a2.63,2.63,0,1,1-5.25,0"/><path class="cls-5" d="M81.67,55.44a2.62,2.62,0,1,1-5.24,0"/><path class="cls-14" d="M86.92,55.44a2.63,2.63,0,1,1-5.25,0"/><path class="cls-5" d="M92.17,55.44a2.63,2.63,0,1,1-5.25,0"/><path class="cls-14" d="M97.41,55.44a2.62,2.62,0,1,1-5.24,0"/><path class="cls-5" d="M102.66,55.44a2.63,2.63,0,1,1-5.25,0"/><path class="cls-14" d="M107.9,55.44a2.62,2.62,0,1,1-5.24,0"/><path class="cls-5" d="M113.15,55.44a2.63,2.63,0,1,1-5.25,0"/><polyline class="cls-14" points="62.48 39.98 62.48 58.07 73.81 58.07 65.85 39.98"/><rect class="cls-16" x="23.52" y="8.09" width="31.07" height="65.18"/><path class="cls-3" d="M47.05,73.26H6.77C3,73.26,0,70.57,0,67.26V20H47.05Z"/><path class="cls-5" d="M47.05,20.18H0V18.09a6,6,0,0,1,6-6H41.05a6,6,0,0,1,6,6Z"/><rect class="cls-4" x="29.97" y="26.13" width="10.52" height="10.52"/><rect class="cls-4" x="29.97" y="41.02" width="10.52" height="10.52"/><rect class="cls-4" x="6.94" y="26.13" width="10.52" height="10.52"/><rect class="cls-4" x="6.94" y="41.02" width="10.52" height="10.52"/><rect class="cls-4" x="29.97" y="55.91" width="10.52" height="10.52"/><g class="cls-48"><line class="cls-39" x1="47.83" y1="9.46" x2="30.64" y2="46.12"/></g><path class="cls-16" d="M23.15,73.27H6.25A6.25,6.25,0,0,1,0,67V18.34a6.25,6.25,0,0,1,6.25-6.25h16.9a.26.26,0,0,1,.26.25V73A.26.26,0,0,1,23.15,73.27Z"/><rect class="cls-16" x="38.89" y="20.18" width="8.16" height="53.07"/></symbol><symbol id="Nursery" data-name="Nursery" viewBox="0 0 116.45 89.42"><path class="cls-3" d="M92.63,40.56l21.45,14.07V69.57a6,6,0,0,1-6,6H92.63Z"/><line class="cls-29" x1="92.64" y1="40.56" x2="114.95" y2="54.63"/><rect class="cls-4" x="98.57" y="60.51" width="10.45" height="10.02"/><g class="cls-30"><line class="cls-22" x1="112.39" y1="47.9" x2="95.2" y2="75.66"/></g><rect class="cls-2" x="30.42" y="30.52" width="20.85" height="45.06"/><polygon class="cls-2" points="73.59 16.45 51.27 30.52 95.92 30.52 73.59 16.45"/><rect class="cls-2" x="51.27" y="30.23" width="44.64" height="45.34"/><rect class="cls-14" x="51.27" y="64.34" width="44.65" height="11.23"/><polygon class="cls-5" points="64.95 10.29 75.91 5.86 64.81 0 64.95 10.29"/><line class="cls-31" x1="64.95" y1="15.67" x2="64.95"/><line class="cls-29" x1="73.59" y1="15.71" x2="95.8" y2="29.73"/><path class="cls-32" d="M73.51,15.71l-22.21,14a3.22,3.22,0,0,1-1.73.5H29.89l23-14.52H73.52"/><path class="cls-4" d="M75.64,50.26h0A11.42,11.42,0,0,1,87.06,61.68V75.57a0,0,0,0,1,0,0H64.23a0,0,0,0,1,0,0V61.68A11.42,11.42,0,0,1,75.64,50.26Z"/><g class="cls-33"><g class="cls-9"><line class="cls-10" x1="70.32" y1="45.75" x2="53.13" y2="82.41"/><line class="cls-19" x1="83.16" y1="45.75" x2="65.79" y2="82.93"/></g></g><g class="cls-33"><rect class="cls-34" x="84.84" y="53.09" width="2.22" height="22.52"/></g><rect class="cls-16" x="30.42" y="31.25" width="20.81" height="44.32"/><circle class="cls-35" cx="74.04" cy="37.09" r="5.06"/><path class="cls-14" d="M73.65,36.69a3.81,3.81,0,0,1,1.44.29,4.89,4.89,0,0,1,9.23,1.83,2.35,2.35,0,0,1,.6-.07,2.7,2.7,0,1,1,0,5.4H73.65a3.73,3.73,0,0,1,0-7.45Z"/><line class="cls-36" x1="74.08" y1="30.73" x2="74.08" y2="28.23"/><line class="cls-36" x1="70.99" y1="31.59" x2="69.74" y2="29.42"/><line class="cls-36" x1="68.74" y1="33.88" x2="66.58" y2="32.63"/><line class="cls-36" x1="67.94" y1="36.98" x2="65.45" y2="36.98"/><line class="cls-36" x1="79.48" y1="33.77" x2="81.64" y2="32.52"/><line class="cls-36" x1="77.19" y1="31.53" x2="78.43" y2="29.36"/><path class="cls-3" d="M1.59,54.48H24a0,0,0,0,1,0,0V75.57a0,0,0,0,1,0,0H7.59a6,6,0,0,1-6-6V54.48A0,0,0,0,1,1.59,54.48Z"/><polygon class="cls-3" points="46.3 40.56 23.98 54.63 23.98 75.57 46.3 75.57 46.3 40.56"/><polygon class="cls-4" points="30.49 70.96 40.93 70.96 40.93 60.52 30.49 60.52 30.49 70.96"/><polygon class="cls-4" points="7.56 70.96 18.01 70.96 18.01 60.52 7.56 60.52 7.56 70.96"/><path class="cls-16" d="M1.59,54.48H24a0,0,0,0,1,0,0V75.57a0,0,0,0,1,0,0H7.59a6,6,0,0,1-6-6V54.48A0,0,0,0,1,1.59,54.48Z"/><path class="cls-32" d="M46.29,40.67l-21.24,13a5.48,5.48,0,0,1-2.9.82H1.5L24.07,40.67H46.3"/></symbol><symbol id="Gym" data-name="Gym" viewBox="0 0 178.66 95.1"><path class="cls-3" d="M173.66,77H132.72V23.7h45.94V72A5,5,0,0,1,173.66,77Z"/><path class="cls-5" d="M178.66,23.88H132.72V15.79h37.84a8.1,8.1,0,0,1,8.1,8.09Z"/><rect class="cls-4" x="139.01" y="29.83" width="32.31" height="16.55"/><rect class="cls-4" x="139.01" y="52.84" width="32.31" height="17.28"/><rect class="cls-6" x="143.49" y="59.04" width="3.33" height="11.08"/><rect class="cls-6" x="147.27" y="59.04" width="3.33" height="11.08"/><rect class="cls-6" x="160.36" y="59.04" width="3.33" height="11.08"/><rect class="cls-6" x="164.15" y="59.04" width="3.33" height="11.08"/><line class="cls-17" x1="166.82" y1="67.75" x2="166.82" y2="66.22"/><rect class="cls-6" x="151.15" y="59.04" width="3.33" height="11.08"/><line class="cls-17" x1="153.82" y1="67.75" x2="153.82" y2="66.22"/><g class="cls-18"><line class="cls-19" x1="170.38" y1="23.81" x2="157.02" y2="52.4"/></g><g class="cls-20"><line class="cls-19" x1="159.49" y1="46.82" x2="146.13" y2="75.42"/></g><path class="cls-5" d="M127.65,8.09H57.1A8.09,8.09,0,0,1,65.19,0h54.37a8.09,8.09,0,0,1,8.09,8.09Z"/><rect class="cls-2" x="57.1" y="8.09" width="86.31" height="68.86"/><path class="cls-5" d="M143.41,8.09H87.17A8.09,8.09,0,0,1,95.26,0h40.05a8.1,8.1,0,0,1,8.1,8.09Z"/><rect class="cls-4" x="95.33" y="52.84" width="41.16" height="24.11"/><path class="cls-16" d="M87,77H57.1V8.29A8.29,8.29,0,0,1,65.39,0h18A3.56,3.56,0,0,1,87,3.56Z"/><g class="cls-21"><g class="cls-9"><line class="cls-10" x1="118.27" y1="50.29" x2="100.54" y2="88.1"/><line class="cls-19" x1="129.57" y1="50.29" x2="116.21" y2="78.88"/></g></g><path class="cls-5" d="M95.33,47.84h38.36a5,5,0,0,1,5,5v0a0,0,0,0,1,0,0H95.33a0,0,0,0,1,0,0v-5A0,0,0,0,1,95.33,47.84Z"/><ellipse class="cls-5" cx="115.29" cy="27.97" rx="21.2" ry="16.64"/><line class="cls-22" x1="109.99" y1="27.6" x2="121.99" y2="27.6"/><line class="cls-23" x1="108.9" y1="21.6" x2="108.9" y2="33.6"/><line class="cls-23" x1="121.93" y1="21.6" x2="122.04" y2="33.6"/><line class="cls-23" x1="125.74" y1="24.18" x2="125.8" y2="31.02"/><line class="cls-23" x1="105.05" y1="24.22" x2="105.11" y2="31.06"/><path class="cls-3" d="M76.25,77H33.16V23.7H79.1V74.11A2.86,2.86,0,0,1,76.25,77Z"/><path class="cls-3" d="M33.16,77H2.52A2.52,2.52,0,0,1,0,74.44V23.7H33.16Z"/><path class="cls-5" d="M79.1,23.88H0V20.52a4.73,4.73,0,0,1,4.73-4.73H72.89A6.21,6.21,0,0,1,79.1,22Z"/><rect class="cls-4" x="39.46" y="29.83" width="32.31" height="16.55"/><rect class="cls-4" x="39.46" y="52.84" width="32.31" height="17.28"/><g class="cls-24"><polygon class="cls-6" points="63.32 33.37 62.87 33.15 64.56 29.72 65 29.94 63.32 33.37"/><polygon class="cls-6" points="66.24 33.37 64.56 29.94 65 29.72 66.69 33.15 66.24 33.37"/><rect class="cls-6" x="62.28" y="32.56" width="5.06" height="10.46" rx="1.68"/><polygon class="cls-6" points="56.4 33.37 55.95 33.15 57.64 29.72 58.09 29.94 56.4 33.37"/><polygon class="cls-6" points="59.33 33.37 57.64 29.94 58.09 29.72 59.78 33.15 59.33 33.37"/><rect class="cls-6" x="55.36" y="32.56" width="5.06" height="10.46" rx="1.68"/></g><g class="cls-24"><g class="cls-9"><line class="cls-10" x1="62.39" y1="27.27" x2="44.66" y2="65.09"/></g></g><rect class="cls-4" x="5.71" y="52.84" width="21.87" height="17.28"/><rect class="cls-4" x="5.71" y="29.46" width="21.87" height="17.28"/><path class="cls-16" d="M33.16,77H2.52A2.52,2.52,0,0,1,0,74.45V20.52a4.73,4.73,0,0,1,4.73-4.73H33.16Z"/></symbol><symbol id="Industrial" data-name="Industrial" viewBox="0 0 92.32 69.15"><path class="cls-5" d="M63.7,35H79.27V25.81a1.76,1.76,0,0,0-2.89-1.35L63.7,35"/><path class="cls-5" d="M77.13,24.05H73.22a2.67,2.67,0,0,0-1.73.63L59,35H63.7Z"/><path class="cls-16" d="M77.13,24.05H73.22a2.67,2.67,0,0,0-1.73.63L59,35H63.7Z"/><path class="cls-3" d="M34,35H87.32a5,5,0,0,1,5,5V61.91a5,5,0,0,1-5,5H34a0,0,0,0,1,0,0V35A0,0,0,0,1,34,35Z"/><rect class="cls-4" x="37.46" y="45.97" width="11.77" height="11.77"/><rect class="cls-4" x="56.06" y="45.97" width="11.77" height="11.77"/><rect class="cls-4" x="74.18" y="45.97" width="11.77" height="11.77"/><path class="cls-3" d="M6,35H34.46a0,0,0,0,1,0,0V66.91a0,0,0,0,1,0,0H6a6,6,0,0,1-6-6V41A6,6,0,0,1,6,35Z"/><path class="cls-3" d="M25.66,0H31A4.43,4.43,0,0,1,35.4,4.43V35a0,0,0,0,1,0,0H21.23a0,0,0,0,1,0,0V4.43A4.43,4.43,0,0,1,25.66,0Z"/><path class="cls-5" d="M25.66,0H31A4.43,4.43,0,0,1,35.4,4.43V5.83a0,0,0,0,1,0,0H21.23a0,0,0,0,1,0,0V4.43A4.43,4.43,0,0,1,25.66,0Z"/><path class="cls-3" d="M41.68,0H47a4.43,4.43,0,0,1,4.43,4.43V35a0,0,0,0,1,0,0H37.24a0,0,0,0,1,0,0V4.43A4.43,4.43,0,0,1,41.68,0Z"/><path class="cls-5" d="M41.68,0H47a4.43,4.43,0,0,1,4.43,4.43V5.83a0,0,0,0,1,0,0H37.24a0,0,0,0,1,0,0V4.43A4.43,4.43,0,0,1,41.68,0Z"/><path class="cls-25" d="M41.68,0h0a4.43,4.43,0,0,1,4.43,4.43V35a0,0,0,0,1,0,0H37.24a0,0,0,0,1,0,0V4.43A4.43,4.43,0,0,1,41.68,0Z"/><path class="cls-26" d="M25.82,0h0a4.43,4.43,0,0,1,4.43,4.43V35a0,0,0,0,1,0,0H21.39a0,0,0,0,1,0,0V4.43A4.43,4.43,0,0,1,25.82,0Z"/><g class="cls-27"><line class="cls-28" x1="57.58" y1="27.2" x2="38.21" y2="68.51"/></g><rect class="cls-4" x="10.25" y="45.97" width="11.77" height="11.77"/><path class="cls-16" d="M6,35H30.37a0,0,0,0,1,0,0V66.91a0,0,0,0,1,0,0H6a6,6,0,0,1-6-6V41A6,6,0,0,1,6,35Z"/></symbol><symbol id="Specialist" data-name="Specialist" viewBox="0 0 120.31 108.96"><rect class="cls-13" x="94.02" y="92.38" width="19.92" height="9.3" rx="1.83"/><rect class="cls-13" x="102.42" y="101.69" width="12.47" height="5.02"/><ellipse class="cls-5" cx="90.38" cy="104.2" rx="3.64" ry="4.2"/><path class="cls-13" d="M91.62,101.69h17.29a0,0,0,0,1,0,0v5a0,0,0,0,1,0,0H91.62a2.29,2.29,0,0,1-2.29-2.29V104A2.29,2.29,0,0,1,91.62,101.69Z"/><ellipse class="cls-5" cx="105.27" cy="104.2" rx="3.64" ry="4.2"/><ellipse class="cls-5" cx="116.67" cy="104.2" rx="3.64" ry="4.2"/><path class="cls-13" d="M102.57,94.58l-1.9-1.1,6.71-11.55a1.38,1.38,0,0,1,1.58-.66A1.4,1.4,0,0,1,110,82.63V94h-2.2V85.55ZM109.28,83Z"/><polygon class="cls-13" points="108.02 83.28 95.71 66.45 97.48 65.15 109.79 81.98 108.02 83.28"/><path class="cls-5" d="M89.33,59.82h14.52a0,0,0,0,1,0,0v6.79a2.48,2.48,0,0,1-2.48,2.48H91.81a2.48,2.48,0,0,1-2.48-2.48V59.82A0,0,0,0,1,89.33,59.82Z"/><path class="cls-2" d="M27.37,109H6a6,6,0,0,1-6-6V8.46H27.37Z"/><rect class="cls-4" x="10.99" y="57.95" width="9.81" height="23.7"/><rect class="cls-4" x="10.99" y="16.28" width="9.81" height="23.7"/><path class="cls-16" d="M27.37,109H6a6,6,0,0,1-6-6v-96a6,6,0,0,1,6-6H27.37Z"/><path class="cls-2" d="M73.88,109H27.37V6.38H79.82V103A5.94,5.94,0,0,1,73.88,109Z"/><rect class="cls-4" x="49.27" y="16.28" width="9.81" height="9.81"/><rect class="cls-4" x="34.97" y="16.28" width="9.81" height="23.7"/><rect class="cls-4" x="34.97" y="44.06" width="9.81" height="9.81"/><rect class="cls-4" x="63.56" y="44.06" width="9.81" height="24.61"/><rect class="cls-4" x="34.97" y="71.84" width="9.81" height="9.81"/><rect class="cls-4" x="49.27" y="57.67" width="9.81" height="23.98"/><rect class="cls-4" x="34.97" y="85.73" width="9.81" height="9.81"/><path class="cls-5" d="M79.82,8.46H0V6.91a6,6,0,0,1,6-6H74.67a5.15,5.15,0,0,1,5.15,5.14Z"/><g class="cls-49"><line class="cls-22" x1="66.04" y1="0.64" x2="49.9" y2="35.07"/></g><line class="cls-37" x1="68.42" y1="8.74" x2="68.42" y2="63.37"/><path class="cls-5" d="M63.59,36.23H77.25a0,0,0,0,1,0,0v6.24A2.48,2.48,0,0,1,74.77,45H66.06a2.48,2.48,0,0,1-2.48-2.48V36.23A0,0,0,0,1,63.59,36.23Z"/><line class="cls-37" x1="17.3" y1="7.34" x2="17.3" y2="73.84"/><path class="cls-5" d="M7.18,62.07H20.83a0,0,0,0,1,0,0v5.67a3,3,0,0,1-3,3H10.22a3,3,0,0,1-3-3V62.07A0,0,0,0,1,7.18,62.07Z"/></symbol><symbol id="School" data-name="School" viewBox="0 0 159.35 99.27"><rect class="cls-3" x="42.98" y="24.46" width="62.98" height="7.38"/><rect class="cls-16" x="42.98" y="24.46" width="25.35" height="7.38"/><polygon class="cls-5" points="76.68 7.28 84.44 4.15 76.59 0 76.68 7.28"/><line class="cls-31" x1="76.68" y1="11.72" x2="76.68"/><path class="cls-3" d="M85.23,12.25,65.69,25h41.9L88.24,12.26A2.76,2.76,0,0,0,85.23,12.25Z"/><path class="cls-5" d="M141.8,38.7H0V37.39a5.52,5.52,0,0,1,5.52-5.52H136.29a5.52,5.52,0,0,1,5.51,5.52Z"/><rect class="cls-2" x="32.69" y="38.73" width="109.11" height="47.66"/><rect class="cls-2" y="38.73" width="32.81" height="47.66"/><rect class="cls-3" x="70.9" y="61.21" width="28.54" height="25.36"/><rect class="cls-3" x="74.43" y="38.73" width="21.49" height="22.81"/><rect class="cls-4" x="61.77" y="51" width="7.44" height="10.24"/><rect class="cls-4" x="61.77" y="63.9" width="7.44" height="10.24"/><rect class="cls-4" x="40.14" y="51" width="7.44" height="10.24"/><rect class="cls-4" x="14.63" y="63.9" width="7.44" height="10.24"/><rect class="cls-4" x="3.5" y="51" width="7.44" height="10.24"/><rect class="cls-4" x="3.5" y="63.9" width="7.44" height="10.24"/><rect class="cls-4" x="50.96" y="63.9" width="7.44" height="10.24"/><rect class="cls-4" x="126.15" y="51" width="7.44" height="10.24"/><rect class="cls-4" x="104.51" y="51" width="7.44" height="10.24"/><rect class="cls-4" x="115.33" y="63.9" width="7.44" height="10.24"/><circle class="cls-5" cx="88.32" cy="49.85" r="4.97"/><polyline class="cls-43" points="90.33 51.95 88.31 50.27 88.31 46.84"/><rect class="cls-3" y="86.42" width="150.7" height="6.13"/><path class="cls-3" d="M0,92.54H159.35a0,0,0,0,1,0,0v6.13a0,0,0,0,1,0,0H5.52A5.52,5.52,0,0,1,0,93.16v-.61a0,0,0,0,1,0,0Z"/><line class="cls-29" x1="70.02" y1="61.55" x2="101.56" y2="61.55"/><path class="cls-16" d="M32.81,98.67H5.52A5.52,5.52,0,0,1,0,93.16V37.39a5.52,5.52,0,0,1,5.52-5.52H32.81Z"/><path class="cls-4" d="M89.24,68.49h0a8.07,8.07,0,0,1,8.07,8.07v9.82a0,0,0,0,1,0,0H81.16a0,0,0,0,1,0,0V76.56A8.07,8.07,0,0,1,89.24,68.49Z"/><g class="cls-44"><g class="cls-9"><line class="cls-10" x1="85.47" y1="65.3" x2="73.32" y2="91.22"/></g></g><g class="cls-44"><rect class="cls-34" x="95.74" y="70.48" width="1.57" height="15.92"/></g><path class="cls-19" d="M83.58,91.59"/><path class="cls-19" d="M95.86,65.3"/><g class="cls-44"><line class="cls-39" x1="95.58" y1="65.14" x2="79.77" y2="98.85"/></g><g class="cls-45"><line class="cls-39" x1="76.02" y1="35.68" x2="60.22" y2="69.39"/></g><line class="cls-29" x1="87.3" y1="11.57" x2="107.72" y2="24.46"/><path class="cls-32" d="M87.22,11.57,66.8,24.46a3,3,0,0,1-1.59.46H43L64.13,11.57h23.1"/><rect class="cls-16" x="70.92" y="62.88" width="6.1" height="23.51"/><rect class="cls-16" x="74.43" y="38.73" width="3.76" height="22.81"/></symbol></defs><title>main5</title><g class="cls-52"><g id="Layer_2" data-name="Layer 2"><g id="base_base" data-name="base base"><path class="cls-53" d="M427.54,294.61h0a54.61,54.61,0,0,1-54.61,54.61H214.52a54.61,54.61,0,0,1-54.6-54.61h0V276.46H427.54v18.15"/></g><g id="Grass_base" data-name="Grass base"><rect class="cls-3" x="92.36" y="51.4" width="28.25" height="66.18"/><rect class="cls-3" x="117.93" y="64.22" width="28.07" height="53.36"/><polygon class="cls-3" points="69.94 97.26 92.78 86.73 92.78 117.57 69.94 117.57 69.94 97.26"/><rect class="cls-3" x="268.91" y="82.75" width="23.68" height="47.38"/><rect class="cls-3" x="247.19" y="50.49" width="23.68" height="79.64"/><rect class="cls-3" x="297.08" y="45.49" width="23.68" height="77.38"/><rect class="cls-3" x="163" y="35.4" width="28.25" height="82.18"/><rect class="cls-3" x="188.57" y="48.22" width="28.07" height="69.36"/><polygon class="cls-3" points="140.59 81.26 163.42 70.73 163.42 117.57 140.59 117.57 140.59 81.26"/><rect class="cls-3" x="338.42" y="35.4" width="28.25" height="82.18"/><rect class="cls-3" x="363.99" y="48.22" width="28.07" height="69.36"/><polygon class="cls-3" points="316 81.26 338.84 70.73 338.84 117.57 316 117.57 316 81.26"/><rect class="cls-54" x="27.26" y="115.65" width="413" height="109.21" rx="54.61"/><rect class="cls-54" x="159.58" y="224.53" width="405.1" height="109.21" rx="54.61"/><rect class="cls-54" x="144.41" y="548.33" width="267.62" height="109.21" rx="54.61"/><rect class="cls-54" x="32.56" y="440.33" width="521.61" height="109.21" rx="54.61"/><rect class="cls-54" y="332.32" width="488.53" height="109.21" rx="54.61"/><path class="cls-55" d="M296.73,459.28s23.95-32.36,60.81-35c43.22-3.06,69.93,13.68,88.18,35Z"/><path class="cls-56" d="M158.24,593s23.94-32.35,60.81-35c43.22-3.06,69.93,13.68,88.17,35Z"/><use width="167.81" height="74.71" transform="translate(15.17 296.11)" xlink:href="#Car"/></g><g id="Building"><path class="cls-2" d="M433.1,322.57h0a1.59,1.59,0,0,1,1.59,1.59V352a0,0,0,0,1,0,0h-3.18a0,0,0,0,1,0,0V324.16a1.59,1.59,0,0,1,1.59-1.59Z"/><path class="cls-57" d="M427,339.93a6.1,6.1,0,0,0,6.1,6.1"/><path class="cls-57" d="M433.1,344.7a6.1,6.1,0,0,0,6.1-6.1"/><path class="cls-53" d="M433.88,306.5h-1.56A8.44,8.44,0,0,1,424.14,296h0a8.44,8.44,0,0,1,8.18-6.37h1.56a8.44,8.44,0,0,1,8.18,6.37h0A8.44,8.44,0,0,1,433.88,306.5Z"/><path class="cls-53" d="M435.92,323.37h-5.64a8.43,8.43,0,0,1-8-10.94h0a8.42,8.42,0,0,1,8-5.93h5.64a8.42,8.42,0,0,1,8.05,5.93h0A8.43,8.43,0,0,1,435.92,323.37Z"/><path class="cls-53" d="M438.2,340.25H428a8.43,8.43,0,0,1-7.89-11.41h0a8.44,8.44,0,0,1,7.89-5.47h10.2a8.44,8.44,0,0,1,7.89,5.47h0A8.43,8.43,0,0,1,438.2,340.25Z"/><path class="cls-50" d="M510.41,443.27h0a1.59,1.59,0,0,1,1.59,1.59v27.88a0,0,0,0,1,0,0h-3.18a0,0,0,0,1,0,0V444.87A1.59,1.59,0,0,1,510.41,443.27Z"/><path class="cls-58" d="M504.31,460.63a6.1,6.1,0,0,0,6.1,6.1"/><path class="cls-58" d="M510.41,465.41a6.1,6.1,0,0,0,6.1-6.1"/><path class="cls-53" d="M511.19,427.2h-1.56a8.44,8.44,0,0,1-8.18-10.51h0a8.44,8.44,0,0,1,8.18-6.36h1.56a8.44,8.44,0,0,1,8.18,6.36h0A8.44,8.44,0,0,1,511.19,427.2Z"/><path class="cls-53" d="M513.23,444.08H507.6a8.44,8.44,0,0,1-8.06-10.94h0a8.44,8.44,0,0,1,8.06-5.94h5.63a8.45,8.45,0,0,1,8.06,5.94h0A8.44,8.44,0,0,1,513.23,444.08Z"/><path class="cls-53" d="M515.51,461H505.32a8.44,8.44,0,0,1-7.9-11.42h0a8.44,8.44,0,0,1,7.9-5.46h10.19a8.43,8.43,0,0,1,7.89,5.46h0A8.44,8.44,0,0,1,515.51,461Z"/><rect class="cls-2" x="288.78" y="43.24" width="22.37" height="80.5"/><rect class="cls-4" x="294.78" y="51.06" width="9.81" height="23.7"/><rect class="cls-16" x="288.78" y="35.69" width="22.37" height="88.05"/><path class="cls-2" d="M357.69,123.74H311.24V41.17h52.45v76.57A6,6,0,0,1,357.69,123.74Z"/><path class="cls-5" d="M363.69,43.24H288.78V35.69h68.91a6,6,0,0,1,6,6Z"/><rect class="cls-4" x="333.14" y="64.95" width="9.81" height="23.7"/><rect class="cls-4" x="318.84" y="51.06" width="9.81" height="9.81"/><rect class="cls-4" x="333.14" y="92.73" width="9.81" height="9.81"/><rect class="cls-4" x="347.43" y="51.06" width="9.81" height="9.81"/><rect class="cls-4" x="347.43" y="92.73" width="9.81" height="9.81"/><g class="cls-59"><line class="cls-28" x1="364.2" y1="77.08" x2="348.06" y2="111.51"/></g><g class="cls-60"><line class="cls-41" x1="323.75" y1="41.17" x2="307.61" y2="75.6"/></g><path class="cls-61" d="M412.08,212.8c15.24,0,27.59,10.48,27.59,23.41a20.13,20.13,0,0,1-1,6.21h-53.2a20.13,20.13,0,0,1-1-6.21C384.49,223.28,396.85,212.8,412.08,212.8Z"/><path class="cls-62" d="M202.4,193.9a84,84,0,0,0,84,84H488.29"/><path class="cls-63" d="M202.4,193.9a84,84,0,0,0,84,84H488.29"/><path class="cls-2" d="M175.47,570.46h0a1.59,1.59,0,0,1,1.59,1.59v27.88a0,0,0,0,1,0,0h-3.18a0,0,0,0,1,0,0V572.06A1.59,1.59,0,0,1,175.47,570.46Z"/><path class="cls-57" d="M169.36,587.82a6.11,6.11,0,0,0,6.11,6.1"/><path class="cls-57" d="M175.47,592.6a6.11,6.11,0,0,0,6.1-6.1"/><path class="cls-53" d="M176.24,554.39h-1.55a8.44,8.44,0,0,1-8.18-10.51h0a8.43,8.43,0,0,1,8.18-6.37h1.55a8.43,8.43,0,0,1,8.18,6.37h0A8.44,8.44,0,0,1,176.24,554.39Z"/><path class="cls-53" d="M178.28,571.27h-5.63a8.44,8.44,0,0,1-8.06-10.95h0a8.45,8.45,0,0,1,8.06-5.93h5.63a8.45,8.45,0,0,1,8.06,5.93h0A8.44,8.44,0,0,1,178.28,571.27Z"/><path class="cls-53" d="M180.56,588.15H170.37a8.44,8.44,0,0,1-7.9-11.42h0a8.45,8.45,0,0,1,7.9-5.46h10.19a8.45,8.45,0,0,1,7.9,5.46h0A8.44,8.44,0,0,1,180.56,588.15Z"/><path class="cls-62" d="M502.59,504H361.13A64.17,64.17,0,0,1,297,439.8V392.69"/><path class="cls-63" d="M502.59,504H361.13A64.17,64.17,0,0,1,297,439.8V392.69"/><path class="cls-62" d="M119.42,503.11H233.06a64.17,64.17,0,0,0,64.18-64.17v-36.3"/><path class="cls-63" d="M119.42,503.11H233.06a64.17,64.17,0,0,0,64.18-64.17v-36.3"/><polygon class="cls-14" points="427.46 522.15 424.47 519.36 421.47 522.15 421.47 536.43 427.46 536.43 427.46 522.15"/><polygon class="cls-14" points="437.21 522.15 434.21 519.36 431.21 522.15 431.21 536.43 437.21 536.43 437.21 522.15"/><polygon class="cls-14" points="446.95 522.15 443.95 519.36 440.95 522.15 440.95 536.43 446.95 536.43 446.95 522.15"/><polygon class="cls-14" points="456.69 522.15 453.69 519.36 450.69 522.15 450.69 536.43 456.69 536.43 456.69 522.15"/><rect class="cls-14" x="427.46" y="526.46" width="23.78" height="4.31"/><path class="cls-64" d="M292.74,504.32c15.23,0,27.59,10.48,27.59,23.4a20.19,20.19,0,0,1-1,6.22h-53.2a20.19,20.19,0,0,1-1-6.22C265.15,514.8,277.5,504.32,292.74,504.32Z"/><path class="cls-65" d="M272.57,321.71c15.24,0,27.59,10.48,27.59,23.41a20.08,20.08,0,0,1-1,6.21H246a20.08,20.08,0,0,1-1-6.21C245,332.19,257.34,321.71,272.57,321.71Z"/><path class="cls-62" d="M187,618.43H338.15c14.94,0,27.05-13.07,27.05-29.18v-75.6"/><path class="cls-63" d="M187,618.43H338.15c14.94,0,27.05-13.07,27.05-29.18v-75.6"/><rect class="cls-50" x="527.36" y="488.42" width="3.57" height="27.11"/><path class="cls-66" d="M518.52,492.21a10.63,10.63,0,0,0,10.62,10.62"/><circle class="cls-35" cx="519.5" cy="488.42" r="9.09"/><path class="cls-66" d="M529.14,500.52a10.62,10.62,0,0,0,10.63-10.62"/><circle class="cls-35" cx="534.45" cy="479.33" r="16.24"/><line class="cls-62" x1="25.3" y1="387.66" x2="455.08" y2="387.66"/><line class="cls-63" x1="25.3" y1="387.66" x2="455.08" y2="387.66"/><path class="cls-67" d="M96.66,415s16.78-22.68,42.62-24.51c30.29-2.15,49,9.59,61.8,24.51Z"/><path class="cls-62" d="M202.4,376.05V362.23a84.35,84.35,0,0,1,84.35-84.35"/><path class="cls-63" d="M202.4,376.05V362.23a84.35,84.35,0,0,1,84.35-84.35"/><polygon class="cls-14" points="417.34 338.24 414.34 335.45 411.34 338.24 411.34 352.52 417.34 352.52 417.34 338.24"/><polygon class="cls-14" points="427.08 338.24 424.08 335.45 421.08 338.24 421.08 352.52 427.08 352.52 427.08 338.24"/><polygon class="cls-14" points="436.82 338.24 433.82 335.45 430.82 338.24 430.82 352.52 436.82 352.52 436.82 338.24"/><polygon class="cls-14" points="446.56 338.24 443.56 335.45 440.57 338.24 440.57 352.52 446.56 352.52 446.56 338.24"/><rect class="cls-14" x="417.34" y="342.55" width="23.78" height="4.31"/><polygon class="cls-14" points="321.1 242.69 318.1 239.9 315.1 242.69 315.1 256.97 321.1 256.97 321.1 242.69"/><polygon class="cls-14" points="330.84 242.69 327.84 239.9 324.84 242.69 324.84 256.97 330.84 256.97 330.84 242.69"/><polygon class="cls-14" points="340.58 242.69 337.58 239.9 334.58 242.69 334.58 256.97 340.58 256.97 340.58 242.69"/><polygon class="cls-14" points="350.32 242.69 347.32 239.9 344.33 242.69 344.33 256.97 350.32 256.97 350.32 242.69"/><rect class="cls-14" x="321.1" y="246.99" width="23.78" height="4.31"/><line class="cls-62" x1="72.16" y1="162.6" x2="366.3" y2="162.6"/><line class="cls-63" x1="72.16" y1="162.6" x2="366.3" y2="162.6"/><line class="cls-62" x1="162.8" y1="187.88" x2="385.17" y2="187.88"/><line class="cls-63" x1="162.8" y1="187.88" x2="385.17" y2="187.88"/><path class="cls-50" d="M370.52,218.45h0a1.7,1.7,0,0,1,1.7,1.7v33.73a0,0,0,0,1,0,0h-3.39a0,0,0,0,1,0,0V220.15A1.7,1.7,0,0,1,370.52,218.45Z"/><circle class="cls-50" cx="370.51" cy="220.39" r="1.94"/><path class="cls-2" d="M394.22,183.87h0a1.59,1.59,0,0,1,1.59,1.59v27.88a0,0,0,0,1,0,0h-3.18a0,0,0,0,1,0,0V185.46A1.59,1.59,0,0,1,394.22,183.87Z"/><path class="cls-57" d="M388.11,201.23a6.11,6.11,0,0,0,6.11,6.1"/><path class="cls-57" d="M394.22,206a6.11,6.11,0,0,0,6.1-6.11"/><path class="cls-53" d="M395,167.8h-1.55a8.44,8.44,0,0,1-8.18-10.51h0a8.42,8.42,0,0,1,8.18-6.37H395a8.42,8.42,0,0,1,8.18,6.37h0A8.44,8.44,0,0,1,395,167.8Z"/><path class="cls-53" d="M397,184.68H391.4a8.44,8.44,0,0,1-8.06-11h0a8.43,8.43,0,0,1,8.06-5.93H397a8.43,8.43,0,0,1,8.06,5.93h0A8.44,8.44,0,0,1,397,184.68Z"/><path class="cls-53" d="M399.31,201.56H389.12a8.44,8.44,0,0,1-7.9-11.42h0a8.44,8.44,0,0,1,7.9-5.46h10.19a8.44,8.44,0,0,1,7.9,5.46h0A8.44,8.44,0,0,1,399.31,201.56Z"/><circle class="cls-2" cx="456.56" cy="164.9" r="7.59"/><circle class="cls-2" cx="479.28" cy="152.01" r="10.96"/><circle class="cls-2" cx="459.9" cy="125.78" r="15.62"/><rect class="cls-50" x="324.92" y="596.16" width="3.01" height="6.38" transform="translate(652.86 1198.7) rotate(180)"/><rect class="cls-50" x="334.43" y="596.16" width="3.01" height="6.38" transform="translate(671.88 1198.7) rotate(180)"/><rect class="cls-2" x="321.45" y="583.28" width="19.49" height="14.63"/><path class="cls-35" d="M340,411.93a2.21,2.21,0,0,1,1.19-.35,2.18,2.18,0,0,1,1.18.35,4.45,4.45,0,0,0,.84-2.53c.16-2.8-1.46-3.84-2-4.11-.57.27-2.18,1.31-2,4.11A4.45,4.45,0,0,0,340,411.93Z"/><path class="cls-35" d="M340,415.6a2.21,2.21,0,0,0,1.19.35,2.18,2.18,0,0,0,1.18-.35,4.48,4.48,0,0,1,.84,2.54c.16,2.79-1.46,3.83-2,4.1-.57-.27-2.18-1.31-2-4.1A4.48,4.48,0,0,1,340,415.6Z"/><path class="cls-35" d="M339.05,413.31a2.17,2.17,0,0,1,1.68-1.68,4.59,4.59,0,0,0-1.2-2.39c-1.87-2.08-3.74-1.67-4.34-1.47-.2.6-.61,2.47,1.47,4.34A4.59,4.59,0,0,0,339.05,413.31Z"/><path class="cls-35" d="M341.65,415.9a2.11,2.11,0,0,0,1.08-.59,2.15,2.15,0,0,0,.59-1.08,4.38,4.38,0,0,1,2.39,1.2c2.09,1.86,1.68,3.74,1.47,4.33a4,4,0,0,1-4.33-1.47A4.45,4.45,0,0,1,341.65,415.9Z"/><path class="cls-35" d="M339.35,415a2.18,2.18,0,0,1-.35-1.18,2.21,2.21,0,0,1,.35-1.19,4.45,4.45,0,0,0-2.53-.84c-2.8-.15-3.83,1.46-4.11,2,.28.56,1.31,2.18,4.11,2A4.45,4.45,0,0,0,339.35,415Z"/><path class="cls-35" d="M343,415a2.18,2.18,0,0,0,.35-1.18,2.21,2.21,0,0,0-.35-1.19,4.48,4.48,0,0,1,2.54-.84c2.79-.15,3.83,1.46,4.1,2-.27.56-1.31,2.18-4.1,2A4.48,4.48,0,0,1,343,415Z"/><path class="cls-35" d="M340.73,415.9a2.13,2.13,0,0,1-1.09-.59,2.22,2.22,0,0,1-.59-1.08,4.44,4.44,0,0,0-2.39,1.2,4,4,0,0,0-1.47,4.33c.6.2,2.47.62,4.34-1.47A4.52,4.52,0,0,0,340.73,415.9Z"/><path class="cls-35" d="M343.32,413.31a2.13,2.13,0,0,0-.59-1.09,2.18,2.18,0,0,0-1.08-.59,4.52,4.52,0,0,1,1.2-2.39,4,4,0,0,1,4.33-1.47c.21.6.62,2.47-1.47,4.34A4.52,4.52,0,0,1,343.32,413.31Z"/><path class="cls-5" d="M343.62,413.77a2.44,2.44,0,1,1-2.43-2.44A2.43,2.43,0,0,1,343.62,413.77Z"/><path class="cls-35" d="M324.55,420.4a2.15,2.15,0,0,1,1.18-.35,2.18,2.18,0,0,1,1.18.35,4.45,4.45,0,0,0,.84-2.53c.16-2.8-1.46-3.83-2-4.11-.57.28-2.18,1.31-2,4.11A4.44,4.44,0,0,0,324.55,420.4Z"/><path class="cls-35" d="M324.55,424.07a2.15,2.15,0,0,0,1.18.35,2.18,2.18,0,0,0,1.18-.35,4.51,4.51,0,0,1,.84,2.54c.16,2.79-1.46,3.83-2,4.1-.57-.27-2.18-1.31-2-4.1A4.51,4.51,0,0,1,324.55,424.07Z"/><path class="cls-35" d="M323.59,421.78a2.23,2.23,0,0,1,.6-1.09,2.12,2.12,0,0,1,1.08-.58,4.58,4.58,0,0,0-1.2-2.4c-1.86-2.08-3.74-1.67-4.34-1.46-.2.59-.61,2.46,1.47,4.33A4.59,4.59,0,0,0,323.59,421.78Z"/><path class="cls-35" d="M326.19,424.37a2.19,2.19,0,0,0,1.67-1.67,4.45,4.45,0,0,1,2.39,1.2c2.09,1.86,1.68,3.74,1.47,4.33-.59.21-2.47.62-4.33-1.47A4.45,4.45,0,0,1,326.19,424.37Z"/><path class="cls-35" d="M323.89,423.42a2.16,2.16,0,0,1,0-2.36,4.44,4.44,0,0,0-2.53-.85c-2.8-.15-3.83,1.46-4.11,2,.28.56,1.31,2.18,4.11,2A4.45,4.45,0,0,0,323.89,423.42Z"/><path class="cls-35" d="M327.56,423.42a2.16,2.16,0,0,0,0-2.36,4.48,4.48,0,0,1,2.54-.85c2.79-.15,3.83,1.46,4.11,2a4,4,0,0,1-4.11,2A4.48,4.48,0,0,1,327.56,423.42Z"/><path class="cls-35" d="M325.27,424.37a2.07,2.07,0,0,1-1.08-.59,2.2,2.2,0,0,1-.6-1.08,4.52,4.52,0,0,0-2.39,1.2,4,4,0,0,0-1.47,4.33c.6.21,2.48.62,4.34-1.47A4.52,4.52,0,0,0,325.27,424.37Z"/><path class="cls-35" d="M327.86,421.78a2.13,2.13,0,0,0-.59-1.09,2.16,2.16,0,0,0-1.08-.58,4.51,4.51,0,0,1,1.2-2.4c1.86-2.08,3.74-1.67,4.33-1.46.21.59.62,2.46-1.47,4.33A4.52,4.52,0,0,1,327.86,421.78Z"/><path class="cls-5" d="M328.16,422.24a2.44,2.44,0,1,1-2.43-2.44A2.43,2.43,0,0,1,328.16,422.24Z"/><use width="155.56" height="125.83" transform="translate(151.34)" xlink:href="#Professional"/><polygon class="cls-14" points="149.72 113.83 146.72 111.04 143.73 113.83 143.73 128.11 149.72 128.11 149.72 113.83"/><polygon class="cls-14" points="159.46 113.83 156.47 111.04 153.47 113.83 153.47 128.11 159.46 128.11 159.46 113.83"/><polygon class="cls-14" points="169.21 113.83 166.21 111.04 163.21 113.83 163.21 128.11 169.21 128.11 169.21 113.83"/><polygon class="cls-14" points="178.95 113.83 175.95 111.04 172.95 113.83 172.95 128.11 178.95 128.11 178.95 113.83"/><rect class="cls-14" x="149.72" y="118.14" width="23.78" height="4.31"/><path class="cls-68" d="M228.63,591.12c6.85,0,12.4,4.71,12.4,10.52a9.25,9.25,0,0,1-.44,2.79H216.67a9,9,0,0,1-.44-2.79C216.23,595.83,221.78,591.12,228.63,591.12Z"/><path class="cls-50" d="M352.73,443.35h0a1.59,1.59,0,0,1,1.59,1.59v27.88a0,0,0,0,1,0,0h-3.18a0,0,0,0,1,0,0V444.94a1.59,1.59,0,0,1,1.59-1.59Z"/><path class="cls-58" d="M346.63,460.71a6.1,6.1,0,0,0,6.1,6.1"/><path class="cls-58" d="M352.73,465.48a6.1,6.1,0,0,0,6.1-6.1"/><path class="cls-53" d="M353.51,427.28H352a8.44,8.44,0,0,1-8.18-10.51h0A8.44,8.44,0,0,1,352,410.4h1.56a8.44,8.44,0,0,1,8.18,6.37h0A8.44,8.44,0,0,1,353.51,427.28Z"/><path class="cls-53" d="M355.55,444.16h-5.63a8.44,8.44,0,0,1-8.06-11h0a8.43,8.43,0,0,1,8.06-5.93h5.63a8.44,8.44,0,0,1,8.06,5.93h0A8.44,8.44,0,0,1,355.55,444.16Z"/><path class="cls-53" d="M357.83,461H347.64a8.44,8.44,0,0,1-7.9-11.41h0a8.43,8.43,0,0,1,7.9-5.46h10.19a8.42,8.42,0,0,1,7.89,5.46h0A8.43,8.43,0,0,1,357.83,461Z"/><path class="cls-50" d="M533.49,226.58h0a1.7,1.7,0,0,1,1.7,1.7V262a0,0,0,0,1,0,0H531.8a0,0,0,0,1,0,0V228.27A1.7,1.7,0,0,1,533.49,226.58Z"/><circle class="cls-50" cx="533.48" cy="228.52" r="1.94"/><path class="cls-69" d="M241.35,234.24s18.17-24.55,46.15-26.54c32.8-2.32,53.08,10.39,66.93,26.54Z"/><use width="40.29" height="52.45" transform="translate(375.66 92.76)" xlink:href="#Tree_yellow"/><ellipse class="cls-5" cx="318.07" cy="137.77" rx="2.28" ry="3.56"/><ellipse class="cls-5" cx="330.66" cy="137.77" rx="2.28" ry="3.56"/><ellipse class="cls-5" cx="310.07" cy="137.77" rx="2.28" ry="3.56"/><path class="cls-13" d="M324.64,132h6.73a3.58,3.58,0,0,1,3.58,3.58v2.11a1.88,1.88,0,0,1-1.88,1.88h-8.43a0,0,0,0,1,0,0V132A0,0,0,0,1,324.64,132Z"/><path class="cls-13" d="M305.87,132h6.73a3.58,3.58,0,0,1,3.58,3.58V137a2.52,2.52,0,0,1-2.52,2.52h-7.79a0,0,0,0,1,0,0V132A0,0,0,0,1,305.87,132Z" transform="translate(622.05 271.55) rotate(180)"/><path class="cls-13" d="M305.94,136.29a3.27,3.27,0,0,0,3.27,3.27h16.05V132h0l-1.88-5.14a4.79,4.79,0,0,0-4.46-3.17h-4.61a4.8,4.8,0,0,0-4.47,3.17"/><path class="cls-13" d="M312.07,133v3.09a3.48,3.48,0,0,0,3.47,3.47h12.59a3.28,3.28,0,0,0,3.27-3.27v-3.4a5,5,0,0,0-.31-1.75l-1.56-4.29a4.8,4.8,0,0,0-4.47-3.17h-6.64a4.8,4.8,0,0,0-4.46,3.17L312.42,131A5.7,5.7,0,0,0,312.07,133Z"/><ellipse class="cls-14" cx="318.98" cy="135.77" rx="1.37" ry="1.4"/><ellipse class="cls-14" cx="332.02" cy="135.77" rx="1.37" ry="1.4"/><path class="cls-4" d="M326.7,125.53H316.44a.52.52,0,0,0-.48.69l1.72,4.68a1.1,1.1,0,0,0,1,.72h10.2a.56.56,0,0,0,.52-.75l-1.7-4.62A1.1,1.1,0,0,0,326.7,125.53Z"/><path class="cls-35" d="M290.78,238.28a2.18,2.18,0,0,1,2.37,0,4.51,4.51,0,0,0,.84-2.54,4,4,0,0,0-2-4.11,4,4,0,0,0-2,4.11A4.51,4.51,0,0,0,290.78,238.28Z"/><path class="cls-35" d="M290.78,242a2.24,2.24,0,0,0,2.37,0,4.45,4.45,0,0,1,.84,2.53c.16,2.8-1.46,3.83-2,4.11-.57-.28-2.19-1.31-2-4.11A4.45,4.45,0,0,1,290.78,242Z"/><path class="cls-35" d="M289.83,239.65a2.18,2.18,0,0,1,.59-1.08,2.15,2.15,0,0,1,1.08-.59,4.42,4.42,0,0,0-1.19-2.39c-1.87-2.09-3.74-1.68-4.34-1.47a4,4,0,0,0,1.47,4.33A4.48,4.48,0,0,0,289.83,239.65Z"/><path class="cls-35" d="M292.43,242.24a2.2,2.2,0,0,0,1.08-.58,2.25,2.25,0,0,0,.59-1.09,4.48,4.48,0,0,1,2.39,1.2A4,4,0,0,1,298,246.1c-.6.21-2.47.62-4.34-1.46A4.48,4.48,0,0,1,292.43,242.24Z"/><path class="cls-35" d="M290.13,241.29a2.16,2.16,0,0,1,0-2.36,4.53,4.53,0,0,0-2.54-.85c-2.79-.15-3.83,1.47-4.1,2,.27.57,1.31,2.18,4.1,2A4.45,4.45,0,0,0,290.13,241.29Z"/><path class="cls-35" d="M293.8,241.29a2.16,2.16,0,0,0,0-2.36,4.56,4.56,0,0,1,2.54-.85c2.79-.15,3.83,1.47,4.1,2-.27.57-1.31,2.18-4.1,2A4.45,4.45,0,0,1,293.8,241.29Z"/><path class="cls-35" d="M291.5,242.24a2.15,2.15,0,0,1-1.67-1.67,4.48,4.48,0,0,0-2.39,1.2A4,4,0,0,0,286,246.1c.6.21,2.47.62,4.34-1.46A4.48,4.48,0,0,0,291.5,242.24Z"/><path class="cls-35" d="M294.1,239.65a2.18,2.18,0,0,0-.59-1.08,2.15,2.15,0,0,0-1.08-.59,4.42,4.42,0,0,1,1.19-2.39c1.87-2.09,3.74-1.68,4.34-1.47a4,4,0,0,1-1.47,4.33A4.48,4.48,0,0,1,294.1,239.65Z"/><path class="cls-5" d="M294.4,240.11a2.44,2.44,0,1,1-2.43-2.43A2.43,2.43,0,0,1,294.4,240.11Z"/><path class="cls-35" d="M275.32,246.75a2.18,2.18,0,0,1,2.37,0,4.51,4.51,0,0,0,.84-2.54,4,4,0,0,0-2-4.11,4,4,0,0,0-2,4.11A4.51,4.51,0,0,0,275.32,246.75Z"/><path class="cls-35" d="M275.32,250.42a2.24,2.24,0,0,0,2.37,0,4.45,4.45,0,0,1,.84,2.53c.16,2.8-1.46,3.83-2,4.11-.57-.28-2.19-1.31-2-4.11A4.45,4.45,0,0,1,275.32,250.42Z"/><path class="cls-35" d="M274.37,248.12A2.18,2.18,0,0,1,275,247a2.15,2.15,0,0,1,1.08-.59,4.42,4.42,0,0,0-1.19-2.39c-1.87-2.09-3.74-1.68-4.34-1.47a4,4,0,0,0,1.47,4.33A4.48,4.48,0,0,0,274.37,248.12Z"/><path class="cls-35" d="M277,250.71a2.15,2.15,0,0,0,1.67-1.67,4.48,4.48,0,0,1,2.39,1.2c2.09,1.87,1.67,3.74,1.47,4.33-.59.21-2.47.62-4.34-1.46A4.48,4.48,0,0,1,277,250.71Z"/><path class="cls-35" d="M274.67,249.76a2.16,2.16,0,0,1,0-2.36,4.45,4.45,0,0,0-2.54-.84c-2.79-.16-3.83,1.46-4.1,2,.27.57,1.31,2.18,4.1,2A4.45,4.45,0,0,0,274.67,249.76Z"/><path class="cls-35" d="M278.34,249.76a2.16,2.16,0,0,0,0-2.36,4.48,4.48,0,0,1,2.54-.84c2.79-.16,3.83,1.46,4.1,2-.27.57-1.31,2.18-4.1,2A4.48,4.48,0,0,1,278.34,249.76Z"/><path class="cls-35" d="M276,250.71a2.15,2.15,0,0,1-1.67-1.67,4.48,4.48,0,0,0-2.39,1.2c-2.08,1.87-1.67,3.74-1.47,4.33.6.21,2.47.62,4.34-1.46A4.48,4.48,0,0,0,276,250.71Z"/><path class="cls-35" d="M278.64,248.12a2.18,2.18,0,0,0-.59-1.08,2.15,2.15,0,0,0-1.08-.59,4.42,4.42,0,0,1,1.19-2.39c1.87-2.09,3.75-1.68,4.34-1.47a4,4,0,0,1-1.47,4.33A4.48,4.48,0,0,1,278.64,248.12Z"/><path class="cls-5" d="M278.94,248.58a2.44,2.44,0,1,1-2.43-2.43A2.43,2.43,0,0,1,278.94,248.58Z"/><rect class="cls-50" x="263.28" y="329.58" width="3.57" height="27.11"/><path class="cls-66" d="M254.45,333.36A10.61,10.61,0,0,0,265.07,344"/><circle class="cls-35" cx="255.43" cy="329.58" r="9.09"/><path class="cls-66" d="M265.07,341.68a10.63,10.63,0,0,0,10.62-10.62"/><circle class="cls-35" cx="270.38" cy="320.49" r="16.24"/><rect class="cls-50" x="169.99" y="344.53" width="3.57" height="27.11"/><path class="cls-66" d="M161.15,348.31a10.62,10.62,0,0,0,10.62,10.62"/><circle class="cls-70" cx="162.14" cy="344.53" r="9.09"/><path class="cls-66" d="M171.77,356.63A10.63,10.63,0,0,0,182.4,346"/><circle class="cls-70" cx="177.09" cy="335.44" r="16.24"/><polygon class="cls-14" points="101.35 353.24 98.36 350.45 95.36 353.24 95.36 367.52 101.35 367.52 101.35 353.24"/><polygon class="cls-14" points="111.09 353.24 108.1 350.45 105.1 353.24 105.1 367.52 111.09 367.52 111.09 353.24"/><polygon class="cls-14" points="120.84 353.24 117.84 350.45 114.84 353.24 114.84 367.52 120.84 367.52 120.84 353.24"/><polygon class="cls-14" points="130.58 353.24 127.58 350.45 124.58 353.24 124.58 367.52 130.58 367.52 130.58 353.24"/><rect class="cls-14" x="101.35" y="357.55" width="23.78" height="4.31"/><path class="cls-2" d="M64.87,389.4h0A1.59,1.59,0,0,1,66.46,391v27.88a0,0,0,0,1,0,0H63.28a0,0,0,0,1,0,0V391A1.59,1.59,0,0,1,64.87,389.4Z"/><path class="cls-57" d="M58.77,406.75a6.11,6.11,0,0,0,6.1,6.11"/><path class="cls-57" d="M64.87,411.53a6.1,6.1,0,0,0,6.1-6.1"/><path class="cls-53" d="M65.65,373.33H64.09a8.44,8.44,0,0,1-8.18-10.51h0a8.44,8.44,0,0,1,8.18-6.37h1.56a8.44,8.44,0,0,1,8.18,6.37h0A8.44,8.44,0,0,1,65.65,373.33Z"/><path class="cls-53" d="M67.69,390.2H62.05a8.43,8.43,0,0,1-8-10.94h0a8.42,8.42,0,0,1,8-5.93h5.64a8.42,8.42,0,0,1,8,5.93h0A8.43,8.43,0,0,1,67.69,390.2Z"/><path class="cls-53" d="M70,407.08H59.77a8.43,8.43,0,0,1-7.89-11.41h0a8.44,8.44,0,0,1,7.89-5.47H70a8.44,8.44,0,0,1,7.89,5.47h0A8.43,8.43,0,0,1,70,407.08Z"/><path class="cls-71" d="M222,111.14c11.62,0,21,8,21,17.85a15.32,15.32,0,0,1-.76,4.74H201.75A15.32,15.32,0,0,1,201,129C201,119.13,210.41,111.14,222,111.14Z"/><use width="124.41" height="73.27" transform="translate(375.85 414.03)" xlink:href="#Shop_2"/><polygon class="cls-14" points="356.66 473.03 353.66 470.24 350.67 473.03 350.67 487.31 356.66 487.31 356.66 473.03"/><polygon class="cls-14" points="366.4 473.03 363.4 470.24 360.41 473.03 360.41 487.31 366.4 487.31 366.4 473.03"/><polygon class="cls-14" points="376.14 473.03 373.15 470.24 370.15 473.03 370.15 487.31 376.14 487.31 376.14 473.03"/><polygon class="cls-14" points="385.88 473.03 382.89 470.24 379.89 473.03 379.89 487.31 385.88 487.31 385.88 473.03"/><rect class="cls-14" x="356.66" y="477.33" width="23.78" height="4.31"/><use width="116.45" height="89.41" transform="translate(202.4 525.22)" xlink:href="#Nursery"/><use width="178.66" height="95.1" transform="translate(73.47 402.66)" xlink:href="#Gym"/><circle class="cls-72" cx="163.21" cy="482.29" r="6.79"/><circle class="cls-72" cx="139.06" cy="482.29" r="6.79"/><polyline class="cls-73" points="163.21 482.29 157.23 467.6 153.79 467.6"/><polyline class="cls-73" points="150.24 482.73 138.51 482.57 146.39 472.06 158.9 472.16 150.24 482.73 144.98 469.02 142.41 469.02"/><line class="cls-73" x1="144.1" y1="469.02" x2="147.75" y2="469.02"/><path class="cls-74" d="M64.87,469.53c8,0,14.55,5.52,14.55,12.34a10.52,10.52,0,0,1-.53,3.27h-28a10.52,10.52,0,0,1-.53-3.27C50.32,475.05,56.84,469.53,64.87,469.53Z"/><rect class="cls-50" x="85.22" y="497.56" width="3.57" height="27.11"/><path class="cls-66" d="M76.38,501.34A10.62,10.62,0,0,0,87,512"/><circle class="cls-70" cx="77.36" cy="497.56" r="9.09"/><path class="cls-66" d="M87,509.66A10.62,10.62,0,0,0,97.62,499"/><circle class="cls-70" cx="92.31" cy="488.47" r="16.24"/><use width="92.32" height="69.15" transform="translate(417.24 177.83)" xlink:href="#Industrial"/><path class="cls-50" d="M403.5,257.27h0a1.7,1.7,0,0,1,1.7,1.7V292.7a0,0,0,0,1,0,0h-3.39a0,0,0,0,1,0,0V259A1.7,1.7,0,0,1,403.5,257.27Z"/><circle class="cls-50" cx="403.49" cy="259.21" r="1.94"/><path class="cls-75" d="M451,237.85c11.62,0,21,8,21,17.86a15.62,15.62,0,0,1-.75,4.74H430.71a15.32,15.32,0,0,1-.75-4.74C430,245.85,439.38,237.85,451,237.85Z"/><path class="cls-76" d="M200.34,590.66c7,0,12.68,4.82,12.68,10.76a9.34,9.34,0,0,1-.45,2.85H188.12a9.05,9.05,0,0,1-.46-2.85C187.66,595.48,193.34,590.66,200.34,590.66Z"/><use width="120.31" height="108.96" transform="translate(64.4 31.93)" xlink:href="#Specialist"/><path class="cls-77" d="M69.94,124.48c11.62,0,21,8,21,17.85a15.32,15.32,0,0,1-.76,4.74H49.65a15.32,15.32,0,0,1-.76-4.74C48.89,132.47,58.32,124.48,69.94,124.48Z"/><path class="cls-2" d="M47.07,146.94h0a1.59,1.59,0,0,1,1.59,1.59v27.88a0,0,0,0,1,0,0H45.48a0,0,0,0,1,0,0V148.54A1.59,1.59,0,0,1,47.07,146.94Z"/><path class="cls-57" d="M41,164.3a6.1,6.1,0,0,0,6.1,6.1"/><path class="cls-57" d="M47.07,169.08a6.1,6.1,0,0,0,6.1-6.1"/><path class="cls-53" d="M47.85,130.87H46.29a8.44,8.44,0,0,1-8.18-10.51h0A8.45,8.45,0,0,1,46.29,114h1.56A8.45,8.45,0,0,1,56,120.36h0A8.44,8.44,0,0,1,47.85,130.87Z"/><path class="cls-53" d="M49.89,147.75H44.26A8.44,8.44,0,0,1,36.2,136.8h0a8.45,8.45,0,0,1,8.06-5.93h5.63A8.46,8.46,0,0,1,58,136.8h0A8.44,8.44,0,0,1,49.89,147.75Z"/><path class="cls-53" d="M52.17,164.63H42a8.44,8.44,0,0,1-7.9-11.42h0a8.44,8.44,0,0,1,7.9-5.46H52.17a8.43,8.43,0,0,1,7.89,5.46h0A8.44,8.44,0,0,1,52.17,164.63Z"/></g><g id="Lighting"><use width="159.35" height="99.27" transform="translate(276.51 272.27)" xlink:href="#School"/><circle class="cls-72" cx="448.56" cy="375.2" r="6.79"/><circle class="cls-72" cx="424.41" cy="375.2" r="6.79"/><polyline class="cls-73" points="448.56 375.2 442.58 360.51 439.14 360.51"/><polyline class="cls-73" points="435.59 375.63 423.86 375.47 431.75 364.96 444.25 365.07 435.59 375.63 430.33 361.93 427.76 361.93"/><line class="cls-73" x1="429.45" y1="361.93" x2="433.1" y2="361.93"/><path class="cls-78" d="M279.82,349.38c11.45,0,20.74,7.87,20.74,17.59a14.88,14.88,0,0,1-.75,4.67h-40a15.17,15.17,0,0,1-.75-4.67C259.08,357.25,268.37,349.38,279.82,349.38Z"/></g></g></g></svg>