<svg xmlns="http://www.w3.org/2000/svg" xmlns:xlink="http://www.w3.org/1999/xlink" viewBox="0 0 121.98 153.48"><defs><style>.cls-1{fill:#f24949;}.cls-2{fill:#fff;}.cls-3{fill:#78cddb;}.cls-4{fill:#1a1a1a;opacity:0.41;mix-blend-mode:darken;}</style><symbol id="Telephone" data-name="Telephone" viewBox="0 0 121.98 153.48"><rect class="cls-1" x="30.79" width="58.93" height="18.33"/><path class="cls-1" d="M0,27.37H68.18a0,0,0,0,1,0,0V144.68a8.8,8.8,0,0,1-8.8,8.8H8.8a8.8,8.8,0,0,1-8.8-8.8V27.37a0,0,0,0,1,0,0Z"/><path class="cls-1" d="M0,13V27.37H68.18V10A62.89,62.89,0,0,0,2.64,8.43,5.29,5.29,0,0,0,0,13Z"/><rect class="cls-2" x="13.4" y="19.8" width="31.52" height="9.78" rx="0.98"/><rect class="cls-3" x="31.02" y="47.9" width="12.71" height="19.06"/><rect class="cls-3" x="68.45" y="47.9" width="12.71" height="19.06"/><rect class="cls-3" x="68.45" y="71.36" width="12.71" height="19.06"/><rect class="cls-3" x="68.45" y="94.82" width="12.71" height="19.06"/><rect class="cls-3" x="31.02" y="71.36" width="12.71" height="19.06"/><rect class="cls-3" x="68.45" y="71.36" width="12.71" height="19.06"/><rect class="cls-3" x="31.02" y="94.82" width="12.71" height="19.06"/><rect class="cls-3" x="68.45" y="94.82" width="12.71" height="19.06"/><rect class="cls-3" x="31.02" y="118.29" width="12.71" height="19.06"/><rect class="cls-3" x="13.4" y="47.9" width="12.71" height="19.06"/><rect class="cls-3" x="13.4" y="71.36" width="12.71" height="19.06"/><rect class="cls-3" x="13.4" y="94.82" width="12.71" height="19.06"/><rect class="cls-3" x="13.4" y="118.29" width="12.71" height="19.06"/><rect class="cls-3" x="68.45" y="118.29" width="12.71" height="19.06"/><path class="cls-1" d="M53.79,27.37H122a0,0,0,0,1,0,0V144.68a8.8,8.8,0,0,1-8.8,8.8H62.59a8.8,8.8,0,0,1-8.8-8.8V27.37A0,0,0,0,1,53.79,27.37Z"/><path class="cls-1" d="M53.79,10V27.37H122V13a5.29,5.29,0,0,0-2.64-4.6A62.91,62.91,0,0,0,53.79,10Z"/><rect class="cls-2" x="63.81" y="19.8" width="48.15" height="9.78" rx="1.68"/><rect class="cls-3" x="63.81" y="47.9" width="12.71" height="19.06"/><rect class="cls-3" x="81.53" y="47.9" width="12.71" height="19.06"/><rect class="cls-3" x="99.25" y="47.9" width="12.71" height="19.06"/><rect class="cls-3" x="63.81" y="71.36" width="12.71" height="19.06"/><rect class="cls-3" x="81.53" y="71.36" width="12.71" height="19.06"/><rect class="cls-3" x="99.25" y="71.36" width="12.71" height="19.06"/><rect class="cls-3" x="63.81" y="94.82" width="12.71" height="19.06"/><rect class="cls-3" x="81.53" y="94.82" width="12.71" height="19.06"/><rect class="cls-3" x="99.25" y="94.82" width="12.71" height="19.06"/><rect class="cls-3" x="63.81" y="71.36" width="12.71" height="19.06"/><rect class="cls-3" x="81.53" y="71.36" width="12.71" height="19.06"/><rect class="cls-3" x="99.25" y="71.36" width="12.71" height="19.06"/><rect class="cls-3" x="63.81" y="94.82" width="12.71" height="19.06"/><rect class="cls-3" x="81.53" y="94.82" width="12.71" height="19.06"/><rect class="cls-3" x="99.25" y="94.82" width="12.71" height="19.06"/><rect class="cls-3" x="63.81" y="118.29" width="12.71" height="19.06"/><rect class="cls-3" x="81.53" y="118.29" width="12.71" height="19.06"/><rect class="cls-3" x="99.25" y="118.29" width="12.71" height="19.06"/><path class="cls-4" d="M57.09,27.37"/><path class="cls-4" d="M30.79,153.48H8.8a8.8,8.8,0,0,1-8.8-8.8V13A5.32,5.32,0,0,1,2.64,8.42,62.54,62.54,0,0,1,30.79.09H54.2V153.48Z"/></symbol></defs><title>phone-box</title><g id="Layer_2" data-name="Layer 2"><g id="Layer_1-2" data-name="Layer 1"><use width="121.98" height="153.48" xlink:href="#Telephone"/></g></g></svg>