<?xml version="1.0" encoding="utf-8"?>
<!-- Generator: Adobe Illustrator 23.0.1, SVG Export Plug-In . SVG Version: 6.00 Build 0)  -->
<svg version="1.1" xmlns="http://www.w3.org/2000/svg" xmlns:xlink="http://www.w3.org/1999/xlink" x="0px" y="0px"
	 viewBox="0 0 300 624" style="enable-background:new 0 0 300 624;" xml:space="preserve">
<style type="text/css">
	.st0{clip-path:url(#SVGID_2_);}
	.st1{clip-path:url(#SVGID_4_);fill:none;stroke:#78CDDB;stroke-width:2;stroke-miterlimit:10;}
	.st2{fill:none;stroke:#78CDDB;stroke-miterlimit:10;}
	.st3{fill:#71BE49;}
	.st4{fill:#FFFFFF;}
	.st5{enable-background:new    ;}
	.st6{clip-path:url(#SVGID_6_);}
	.st7{clip-path:url(#SVGID_8_);}
	.st8{clip-path:url(#SVGID_10_);fill:#71BE49;}
	.st9{display:none;}
	.st10{display:inline;}
	.st11{fill:none;stroke:#FFFFFF;stroke-width:8;stroke-linecap:round;stroke-miterlimit:10;}
	
		.st12{fill:none;stroke:#E6E6E6;stroke-width:3.526;stroke-linecap:round;stroke-miterlimit:10;stroke-dasharray:0,7.0094,0,7.0094;}
	.st13{fill:none;stroke:#FFFFFF;stroke-width:7;stroke-linecap:round;stroke-miterlimit:10;}
</style>
<g id="Layer_1">
	<g>
		<defs>
			<path id="SVGID_1_" d="M50.34,1.46h200c26.51,0,48,21.49,48,48v526c0,26.51-21.49,48-48,48h-200c-26.51,0-48-21.49-48-48v-526
				C2.34,22.95,23.83,1.46,50.34,1.46z"/>
		</defs>
		<clipPath id="SVGID_2_">
			<use xlink:href="#SVGID_1_"  style="overflow:visible;"/>
		</clipPath>
		<g class="st0">
			<defs>
				<rect id="SVGID_3_" x="-733.66" y="-63.54" width="1440" height="750"/>
			</defs>
			<clipPath id="SVGID_4_">
				<use xlink:href="#SVGID_3_"  style="overflow:visible;"/>
			</clipPath>
			<path class="st1" d="M50.34,1.46h200c26.51,0,48,21.49,48,48v526c0,26.51-21.49,48-48,48h-200c-26.51,0-48-21.49-48-48v-526
				C2.34,22.95,23.83,1.46,50.34,1.46z"/>
			<use xlink:href="#SVGID_3_"  style="overflow:visible;fill:none;stroke:#78CDDB;stroke-miterlimit:10;"/>
		</g>
		
			<use xlink:href="#SVGID_1_"  style="overflow:visible;fill-rule:evenodd;clip-rule:evenodd;fill:none;stroke:#78CDDB;stroke-miterlimit:10;"/>
	</g>
	<path class="st2" d="M22.34,90.93v443.61c0,1.49,1.2,2.69,2.66,2.69h250.68c1.47,0,2.66-1.21,2.66-2.69V90.93
		c0-1.49-1.2-2.69-2.66-2.69H25C23.53,88.23,22.34,89.44,22.34,90.93z"/>
	<circle class="st2" cx="152.84" cy="578.73" r="22.5"/>
	<path class="st2" d="M128.7,53.23c-0.75,0-1.36,0.55-1.36,1.26v2.48c0,0.7,0.61,1.26,1.35,1.26h30.28h17.01
		c0.75,0,1.36-0.55,1.36-1.26v-2.48c0-0.7-0.6-1.26-1.36-1.26H128.7z"/>
	<circle class="st2" cx="152.61" cy="34.5" r="6"/>
	<g>
		<g>
			<path class="st3" d="M262.91,174.43c0,2.98-3.52,5.45-4.25,8.19c-0.76,2.84,1.03,6.74-0.41,9.22c-1.46,2.52-5.74,2.91-7.79,4.96
				c-2.05,2.05-2.44,6.33-4.96,7.79c-2.49,1.44-6.38-0.35-9.22,0.41c-2.74,0.73-5.22,4.25-8.19,4.25c-2.98,0-5.45-3.52-8.19-4.25
				c-2.84-0.76-6.74,1.03-9.22-0.41c-2.52-1.46-2.91-5.74-4.96-7.79c-2.05-2.05-6.33-2.44-7.79-4.96c-1.44-2.49,0.35-6.38-0.41-9.22
				c-0.73-2.74-4.25-5.22-4.25-8.19c0-2.98,3.52-5.45,4.25-8.19c0.76-2.84-1.03-6.74,0.41-9.22c1.46-2.52,5.74-2.91,7.79-4.96
				c2.05-2.05,2.44-6.33,4.96-7.79c2.49-1.44,6.38,0.35,9.22-0.41c2.74-0.73,5.22-4.25,8.19-4.25c2.98,0,5.45,3.52,8.19,4.25
				c2.84,0.76,6.74-1.03,9.22,0.41c2.52,1.46,2.91,5.74,4.96,7.79c2.05,2.05,6.33,2.44,7.79,4.96c1.44,2.49-0.35,6.38,0.41,9.22
				C259.39,168.98,262.91,171.45,262.91,174.43z"/>
		</g>
		<g>
			<path class="st4" d="M228.09,202.22c-15.33,0-27.8-12.47-27.8-27.8s12.47-27.8,27.8-27.8s27.8,12.47,27.8,27.8
				S243.41,202.22,228.09,202.22z M228.09,148.62c-14.23,0-25.8,11.58-25.8,25.8s11.58,25.8,25.8,25.8s25.8-11.58,25.8-25.8
				S242.32,148.62,228.09,148.62z"/>
		</g>
	</g>
	<path class="st3" d="M146.21,136.17H70.8c-20.89,0-37.83,16.94-37.83,37.83v0c0,20.89,16.94,37.83,37.83,37.83h75.41
		c20.89,0,37.83-16.94,37.83-37.83v0C184.04,153.1,167.1,136.17,146.21,136.17z"/>
	<g>
		<ellipse class="st4" cx="76.84" cy="163.84" rx="9.36" ry="9.49"/>
		<path class="st4" d="M63.08,193.37c-1.98,0-3.44-1.87-3.01-3.83c1.72-7.78,8.58-13.6,16.77-13.6s15.05,5.82,16.77,13.6
			c0.43,1.96-1.03,3.83-3.01,3.83H63.08z"/>
	</g>
	<g>
		<path class="st3" d="M227.78,121.23L227.78,121.23c-5.4,0-9.78-4.38-9.78-9.78v0c0-5.4,4.38-9.78,9.78-9.78h0
			c5.4,0,9.78,4.38,9.78,9.78v0C237.56,116.85,233.18,121.23,227.78,121.23z"/>
		<path class="st3" d="M253.13,121.23L253.13,121.23c-5.4,0-9.78-4.38-9.78-9.78v0c0-5.4,4.38-9.78,9.78-9.78h0
			c5.4,0,9.78,4.38,9.78,9.78v0C262.91,116.85,258.53,121.23,253.13,121.23z"/>
	</g>
	<path class="st3" d="M245.35,448.43H52.9c-10.24,0-18.54-8.3-18.54-18.54V243.58c0-10.24,8.3-18.54,18.54-18.54h192.45
		c10.24,0,18.54,8.3,18.54,18.54v186.31C263.89,440.13,255.59,448.43,245.35,448.43z"/>
	<path class="st4" d="M164.88,328.67c0-8.69-7.06-15.75-15.75-15.75s-15.75,7.06-15.75,15.75c0,11.81,15.75,28.88,15.75,28.88
		S164.88,340.48,164.88,328.67z M143.88,328.67c0-2.89,2.36-5.25,5.25-5.25c2.89,0,5.25,2.36,5.25,5.25s-2.34,5.25-5.25,5.25
		C146.24,333.92,143.88,331.56,143.88,328.67z"/>
	<path class="st3" d="M234.74,460.95H63.58c-16.9,0-30.6,13.7-30.6,30.6v0c0,16.9,13.7,30.6,30.6,30.6h171.16
		c16.9,0,30.6-13.7,30.6-30.6v0C265.34,474.65,251.64,460.95,234.74,460.95z"/>
	<circle class="st4" cx="225.52" cy="491.55" r="19.19"/>
	<g class="st5">
		<g>
			<defs>
				<rect id="SVGID_5_" x="34.36" y="96.66" width="40.71" height="31.13"/>
			</defs>
			<clipPath id="SVGID_6_">
				<use xlink:href="#SVGID_5_"  style="overflow:visible;"/>
			</clipPath>
			<g class="st6">
				<defs>
					<path id="SVGID_7_" d="M52.67,125.76c-7.7,1.81-12.82-7.39-14.59-11.2c1.49,2.75,4.69,7.68,9.11,9.09
						c6.23,1.98,10.12-1.07,12.46-6.32c3.02-6.81,5.07-8.35,7.62-10.13c3.67-2.25,6.06-2.76,7.8,0.05
						c-1.71-2.77-5.36-1.73-9.65,2.42C60.06,114.86,62.33,123.49,52.67,125.76z M40.5,117.46c-1.29-1.39-3.01-4.25-3.03-4.31
						c-2.51-5.16,2.46-4.12,2.46-4.12s-1.76-0.04-2.1,0.87c-0.37,1,0.77,2.92,2.8,2.28c0.93-0.29,2.43-1.47,4.06-4.81
						c1.82-3.72,7.31-10.52,14.61-6.45c6.25,3.49,8.55,4.2,10.78,3.92c-3.61,0.45-4.97,0.36-12.21-2.49
						c-6.76-2.67-12.67,7.54-12.67,7.54s5.38-8.04,12.93-5.55c6.4,2.11,8.03,1.56,10.99,1.11l1.2-0.28
						c-0.15,0.05-0.31,0.1-0.49,0.15c-1.24,0.33-4.36,1.48-6.36,3.12c-5.92,4.87-4.87,14.25-14.06,14.43
						C46.04,122.87,42.8,120.21,40.5,117.46z"/>
				</defs>
				<clipPath id="SVGID_8_">
					<use xlink:href="#SVGID_7_"  style="overflow:visible;"/>
				</clipPath>
				<g class="st7">
					<defs>
						<rect id="SVGID_9_" x="36.76" y="99.66" width="38.32" height="26.34"/>
					</defs>
					<clipPath id="SVGID_10_">
						<use xlink:href="#SVGID_9_"  style="overflow:visible;"/>
					</clipPath>
					<rect x="33.77" y="96.66" class="st8" width="44.3" height="32.33"/>
				</g>
			</g>
		</g>
	</g>
</g>
<g id="Layer_2" class="st9">
	<g class="st10">
		<path class="st4" d="M222.05,185.21L222.05,185.21c-0.32,0-0.62-0.13-0.84-0.35l-7.09-7.09c-0.47-0.47-0.47-1.22,0-1.69
			c0.47-0.47,1.22-0.47,1.69,0l6.25,6.25L240.37,164c0.47-0.47,1.22-0.47,1.69,0c0.47,0.47,0.47,1.22,0,1.69l-19.17,19.17
			C222.67,185.08,222.37,185.21,222.05,185.21z"/>
	</g>
	<g class="st10">
		<g>
			<line class="st11" x1="108.15" y1="159.45" x2="148.66" y2="159.45"/>
			<line class="st11" x1="108.15" y1="173.53" x2="148.66" y2="173.53"/>
		</g>
		<g>
			<line class="st11" x1="108.15" y1="187.96" x2="148.66" y2="187.96"/>
		</g>
	</g>
	<g class="st10">
		
			<ellipse transform="matrix(0.7071 -0.7071 0.7071 0.7071 -192.4377 203.2523)" class="st12" cx="149.13" cy="333.92" rx="80.32" ry="80.32"/>
	</g>
	<g class="st10">
		<g>
			<g>
				<line class="st13" x1="60.26" y1="477.62" x2="189.34" y2="477.62"/>
				<line class="st13" x1="60.26" y1="491.7" x2="189.34" y2="491.7"/>
			</g>
		</g>
		<g>
			<g>
				<line class="st13" x1="60.26" y1="505.78" x2="189.34" y2="505.78"/>
			</g>
		</g>
	</g>
</g>
</svg>
