<?xml version="1.0" encoding="utf-8"?>
<!-- Generator: Adobe Illustrator 23.0.1, SVG Export Plug-In . SVG Version: 6.00 Build 0)  -->
<svg version="1.1" id="Layer_1" xmlns="http://www.w3.org/2000/svg" xmlns:xlink="http://www.w3.org/1999/xlink" x="0px" y="0px"
	 viewBox="0 0 301 628" style="enable-background:new 0 0 301 628;" xml:space="preserve">
<style type="text/css">
	.st0{clip-path:url(#SVGID_2_);}
	.st1{clip-path:url(#SVGID_4_);fill:none;stroke:#78CDDB;stroke-width:2;stroke-miterlimit:10;}
	.st2{fill:none;stroke:#78CDDB;stroke-miterlimit:10;}
	.st3{fill:#71BE49;}
	.st4{fill:#FFFFFF;}
	.st5{enable-background:new    ;}
	.st6{clip-path:url(#SVGID_6_);}
	.st7{clip-path:url(#SVGID_8_);}
	.st8{clip-path:url(#SVGID_10_);fill:#71BE49;}
</style>
<g>
	<defs>
		<path id="SVGID_1_" d="M51.3,2.5h200c26.5,0,48,21.5,48,48v526c0,26.5-21.5,48-48,48h-200c-26.5,0-48-21.5-48-48v-526
			C3.3,24,24.8,2.5,51.3,2.5z"/>
	</defs>
	<clipPath id="SVGID_2_">
		<use xlink:href="#SVGID_1_"  style="overflow:visible;"/>
	</clipPath>
	<g class="st0">
		<defs>
			<rect id="SVGID_3_" x="-732.7" y="-62.5" width="1440" height="750"/>
		</defs>
		<clipPath id="SVGID_4_">
			<use xlink:href="#SVGID_3_"  style="overflow:visible;"/>
		</clipPath>
		<path class="st1" d="M51.3,2.5h200c26.5,0,48,21.5,48,48v526c0,26.5-21.5,48-48,48h-200c-26.5,0-48-21.5-48-48v-526
			C3.3,24,24.8,2.5,51.3,2.5z"/>
		<use xlink:href="#SVGID_3_"  style="overflow:visible;fill:none;stroke:#78CDDB;stroke-miterlimit:10;"/>
	</g>
	
		<use xlink:href="#SVGID_1_"  style="overflow:visible;fill-rule:evenodd;clip-rule:evenodd;fill:none;stroke:#78CDDB;stroke-miterlimit:10;"/>
</g>
<path class="st2" d="M23.3,91.9v443.6c0,1.5,1.2,2.7,2.7,2.7h250.7c1.5,0,2.7-1.2,2.7-2.7V91.9c0-1.5-1.2-2.7-2.7-2.7H26
	C24.5,89.2,23.3,90.4,23.3,91.9z"/>
<circle class="st2" cx="153.8" cy="579.7" r="22.5"/>
<path class="st2" d="M129.7,54.2c-0.8,0-1.4,0.6-1.4,1.3V58c0,0.7,0.6,1.3,1.4,1.3H160h17c0.8,0,1.4-0.6,1.4-1.3v-2.5
	c0-0.7-0.6-1.3-1.4-1.3H129.7z"/>
<circle class="st2" cx="153.6" cy="35.5" r="6"/>
<g>
	<g>
		<path class="st3" d="M263.9,175.4c0,3-3.5,5.4-4.3,8.2c-0.8,2.8,1,6.7-0.4,9.2c-1.5,2.5-5.7,2.9-7.8,5c-2,2-2.4,6.3-5,7.8
			c-2.5,1.4-6.4-0.4-9.2,0.4c-2.7,0.7-5.2,4.3-8.2,4.3c-3,0-5.4-3.5-8.2-4.3c-2.8-0.8-6.7,1-9.2-0.4c-2.5-1.5-2.9-5.7-5-7.8
			c-2-2-6.3-2.4-7.8-5c-1.4-2.5,0.4-6.4-0.4-9.2c-0.7-2.7-4.3-5.2-4.3-8.2c0-3,3.5-5.4,4.3-8.2c0.8-2.8-1-6.7,0.4-9.2
			c1.5-2.5,5.7-2.9,7.8-5c2-2,2.4-6.3,5-7.8c2.5-1.4,6.4,0.4,9.2-0.4c2.7-0.7,5.2-4.3,8.2-4.3c3,0,5.4,3.5,8.2,4.3
			c2.8,0.8,6.7-1,9.2,0.4c2.5,1.5,2.9,5.7,5,7.8c2,2,6.3,2.4,7.8,5c1.4,2.5-0.4,6.4,0.4,9.2C260.4,170,263.9,172.5,263.9,175.4z"/>
	</g>
	<g>
		<path class="st4" d="M229.1,203.2c-15.3,0-27.8-12.5-27.8-27.8s12.5-27.8,27.8-27.8s27.8,12.5,27.8,27.8S244.4,203.2,229.1,203.2z
			 M229.1,149.6c-14.2,0-25.8,11.6-25.8,25.8s11.6,25.8,25.8,25.8s25.8-11.6,25.8-25.8S243.3,149.6,229.1,149.6z"/>
	</g>
</g>
<path class="st3" d="M147.2,137.2H71.8C50.9,137.2,34,154.1,34,175v0c0,20.9,16.9,37.8,37.8,37.8h75.4c20.9,0,37.8-16.9,37.8-37.8v0
	C185,154.1,168.1,137.2,147.2,137.2z"/>
<g>
	<ellipse class="st4" cx="77.8" cy="164.8" rx="9.4" ry="9.5"/>
	<path class="st4" d="M64.1,194.4c-2,0-3.4-1.9-3-3.8c1.7-7.8,8.6-13.6,16.8-13.6s15,5.8,16.8,13.6c0.4,2-1,3.8-3,3.8H64.1z"/>
</g>
<g>
	<path class="st3" d="M228.8,122.2L228.8,122.2c-5.4,0-9.8-4.4-9.8-9.8v0c0-5.4,4.4-9.8,9.8-9.8h0c5.4,0,9.8,4.4,9.8,9.8v0
		C238.6,117.8,234.2,122.2,228.8,122.2z"/>
	<path class="st3" d="M254.1,122.2L254.1,122.2c-5.4,0-9.8-4.4-9.8-9.8v0c0-5.4,4.4-9.8,9.8-9.8h0c5.4,0,9.8,4.4,9.8,9.8v0
		C263.9,117.8,259.5,122.2,254.1,122.2z"/>
</g>
<path class="st3" d="M246.4,449.4H53.9c-10.2,0-18.5-8.3-18.5-18.5V244.6c0-10.2,8.3-18.5,18.5-18.5h192.5
	c10.2,0,18.5,8.3,18.5,18.5v186.3C264.9,441.1,256.6,449.4,246.4,449.4z"/>
<path class="st3" d="M235.7,461.9H64.6c-16.9,0-30.6,13.7-30.6,30.6v0c0,16.9,13.7,30.6,30.6,30.6h171.2c16.9,0,30.6-13.7,30.6-30.6
	v0C266.3,475.7,252.6,461.9,235.7,461.9z"/>
<circle class="st4" cx="226.5" cy="492.6" r="19.2"/>
<g class="st5">
	<g>
		<defs>
			<rect id="SVGID_5_" x="35.4" y="97.7" width="40.7" height="31.1"/>
		</defs>
		<clipPath id="SVGID_6_">
			<use xlink:href="#SVGID_5_"  style="overflow:visible;"/>
		</clipPath>
		<g class="st6">
			<defs>
				<path id="SVGID_7_" d="M53.7,126.8c-7.7,1.8-12.8-7.4-14.6-11.2c1.5,2.7,4.7,7.7,9.1,9.1c6.2,2,10.1-1.1,12.5-6.3
					c3-6.8,5.1-8.4,7.6-10.1c3.7-2.3,6.1-2.8,7.8,0c-1.7-2.8-5.4-1.7-9.7,2.4C61.1,115.9,63.3,124.5,53.7,126.8z M41.5,118.5
					c-1.3-1.4-3-4.3-3-4.3c-2.5-5.2,2.5-4.1,2.5-4.1s-1.8,0-2.1,0.9c-0.4,1,0.8,2.9,2.8,2.3c0.9-0.3,2.4-1.5,4.1-4.8
					c1.8-3.7,7.3-10.5,14.6-6.4c6.3,3.5,8.6,4.2,10.8,3.9c-3.6,0.5-5,0.4-12.2-2.5c-6.8-2.7-12.7,7.5-12.7,7.5s5.4-8,12.9-5.5
					c6.4,2.1,8,1.6,11,1.1l1.2-0.3c-0.2,0-0.3,0.1-0.5,0.2c-1.2,0.3-4.4,1.5-6.4,3.1c-5.9,4.9-4.9,14.3-14.1,14.4
					C47,123.9,43.8,121.2,41.5,118.5z"/>
			</defs>
			<clipPath id="SVGID_8_">
				<use xlink:href="#SVGID_7_"  style="overflow:visible;"/>
			</clipPath>
			<g class="st7">
				<defs>
					<rect id="SVGID_9_" x="37.8" y="100.7" width="38.3" height="26.3"/>
				</defs>
				<clipPath id="SVGID_10_">
					<use xlink:href="#SVGID_9_"  style="overflow:visible;"/>
				</clipPath>
				<rect x="34.8" y="97.7" class="st8" width="44.3" height="32.3"/>
			</g>
		</g>
	</g>
</g>
</svg>
