<svg xmlns="http://www.w3.org/2000/svg" xmlns:xlink="http://www.w3.org/1999/xlink" viewBox="0 0 346.19 241.73"><defs><style>.cls-1{fill:#71be49;}.cls-2{fill:url(#linear-gradient);}.cls-3{fill:url(#linear-gradient-2);}.cls-4{fill:#fcd72a;}.cls-5{fill:#252545;}.cls-6{fill:url(#linear-gradient-3);}</style><linearGradient id="linear-gradient" x1="161.18" y1="214.95" x2="161.18" y2="176.53" gradientUnits="userSpaceOnUse"><stop offset="0" stop-color="#71be49"/><stop offset="0.85" stop-color="#a2c753"/></linearGradient><linearGradient id="linear-gradient-2" x1="144.89" y1="38.54" x2="144.89" y2="4.68" xlink:href="#linear-gradient"/><linearGradient id="linear-gradient-3" x1="67.99" y1="129.84" x2="67.99" y2="105.26" xlink:href="#linear-gradient"/></defs><title>speech-background</title><g id="Layer_2" data-name="Layer 2"><g id="Layer_1-2" data-name="Layer 1"><rect class="cls-1" y="70.16" width="346.19" height="94.92" rx="47.46"/><rect class="cls-1" x="40.04" y="12.38" width="188.61" height="58.47" rx="29.24"/><rect class="cls-1" x="57.11" y="164.78" width="248.22" height="76.95" rx="38.48"/><path class="cls-2" d="M77.7,215.92s26.83-36.26,68.15-39.19c48.43-3.43,78.37,15.33,98.82,39.19Z"/><path class="cls-3" d="M144.89,0C165,0,181.22,13.8,181.22,30.83a26.62,26.62,0,0,1-1.3,8.18H109.86a26.62,26.62,0,0,1-1.3-8.18C108.56,13.8,124.82,0,144.89,0Z"/><path class="cls-4" d="M139.24,174.68a4.28,4.28,0,0,1,4.63,0,8.71,8.71,0,0,0,1.65-5c.31-5.47-2.86-7.5-4-8-1.1.54-4.27,2.57-4,8A8.78,8.78,0,0,0,139.24,174.68Z"/><path class="cls-4" d="M139.24,181.87a4.28,4.28,0,0,0,4.63,0,8.71,8.71,0,0,1,1.65,5c.31,5.47-2.86,7.5-4,8-1.1-.54-4.27-2.57-4-8A8.78,8.78,0,0,1,139.24,181.87Z"/><path class="cls-4" d="M137.37,177.37a4.27,4.27,0,0,1,3.28-3.27,8.85,8.85,0,0,0-2.34-4.69c-3.66-4.08-7.33-3.27-8.5-2.87-.4,1.16-1.2,4.83,2.88,8.49A8.86,8.86,0,0,0,137.37,177.37Z"/><path class="cls-4" d="M142.45,182.45a4.26,4.26,0,0,0,2.13-1.15,4.35,4.35,0,0,0,1.15-2.12,8.72,8.72,0,0,1,4.68,2.34c4.09,3.66,3.28,7.33,2.88,8.49-1.16.4-4.84,1.21-8.49-2.87A8.87,8.87,0,0,1,142.45,182.45Z"/><path class="cls-4" d="M138,180.59a4.28,4.28,0,0,1,0-4.63,8.74,8.74,0,0,0-5-1.65c-5.47-.31-7.5,2.86-8,4,.54,1.11,2.57,4.28,8,4A8.74,8.74,0,0,0,138,180.59Z"/><path class="cls-4" d="M145.15,180.59a4.28,4.28,0,0,0,0-4.63,8.68,8.68,0,0,1,5-1.65c5.46-.31,7.5,2.86,8,4-.54,1.11-2.58,4.28-8,4A8.68,8.68,0,0,1,145.15,180.59Z"/><path class="cls-4" d="M140.65,182.45a4.19,4.19,0,0,1-2.12-1.15,4.25,4.25,0,0,1-1.16-2.12,8.78,8.78,0,0,0-4.68,2.34c-4.08,3.66-3.28,7.33-2.88,8.49,1.17.4,4.84,1.21,8.5-2.87A8.85,8.85,0,0,0,140.65,182.45Z"/><path class="cls-4" d="M145.73,177.37a4.23,4.23,0,0,0-3.28-3.27,8.87,8.87,0,0,1,2.35-4.69c3.65-4.08,7.33-3.27,8.49-2.87.4,1.16,1.21,4.83-2.88,8.48A8.74,8.74,0,0,1,145.73,177.37Z"/><path class="cls-5" d="M146.32,178.27a4.77,4.77,0,1,1-4.77-4.76A4.76,4.76,0,0,1,146.32,178.27Z"/><path class="cls-4" d="M109,191.27a4.28,4.28,0,0,1,4.63,0,8.71,8.71,0,0,0,1.65-5c.31-5.47-2.86-7.5-4-8-1.11.54-4.28,2.57-4,8A8.71,8.71,0,0,0,109,191.27Z"/><path class="cls-4" d="M109,198.46a4.28,4.28,0,0,0,4.63,0,8.71,8.71,0,0,1,1.65,5c.31,5.47-2.86,7.5-4,8-1.11-.54-4.28-2.57-4-8A8.71,8.71,0,0,1,109,198.46Z"/><path class="cls-4" d="M107.1,194a4.24,4.24,0,0,1,3.27-3.27A8.85,8.85,0,0,0,108,186c-3.66-4.08-7.33-3.27-8.49-2.87-.4,1.16-1.21,4.83,2.87,8.49A8.85,8.85,0,0,0,107.1,194Z"/><path class="cls-4" d="M112.18,199a4.24,4.24,0,0,0,3.27-3.27,8.78,8.78,0,0,1,4.69,2.34c4.08,3.66,3.28,7.33,2.87,8.49-1.16.4-4.84,1.21-8.49-2.87A8.78,8.78,0,0,1,112.18,199Z"/><path class="cls-4" d="M107.68,197.18a4.28,4.28,0,0,1,0-4.63,8.71,8.71,0,0,0-5-1.65c-5.47-.31-7.5,2.86-8,4,.54,1.11,2.57,4.28,8,4A8.71,8.71,0,0,0,107.68,197.18Z"/><path class="cls-4" d="M114.87,197.18a4.28,4.28,0,0,0,0-4.63,8.71,8.71,0,0,1,5-1.65c5.47-.31,7.5,2.86,8,4-.54,1.11-2.57,4.28-8,4A8.68,8.68,0,0,1,114.87,197.18Z"/><path class="cls-4" d="M110.37,199a4.24,4.24,0,0,1-3.27-3.27,8.78,8.78,0,0,0-4.69,2.34c-4.08,3.66-3.27,7.33-2.87,8.49,1.16.4,4.83,1.21,8.49-2.87A8.85,8.85,0,0,0,110.37,199Z"/><path class="cls-4" d="M115.45,194a4.24,4.24,0,0,0-3.27-3.27,8.78,8.78,0,0,1,2.34-4.69c3.65-4.08,7.33-3.27,8.49-2.87.41,1.16,1.21,4.83-2.87,8.48A8.8,8.8,0,0,1,115.45,194Z"/><path class="cls-5" d="M116.05,194.86a4.77,4.77,0,1,1-4.77-4.76A4.77,4.77,0,0,1,116.05,194.86Z"/><path class="cls-6" d="M14.58,130.46s17.17-23.2,43.6-25.07c31-2.2,50.14,9.81,63.22,25.07Z"/></g></g></svg>