<svg xmlns="http://www.w3.org/2000/svg" viewBox="0 0 162.34 190.6"><defs><style>.cls-1{fill:#71be49;}.cls-2{fill:none;stroke:#78cddb;stroke-miterlimit:10;}</style></defs><title>speech-lrg</title><g id="Layer_2" data-name="Layer 2"><g id="Layer_1-2" data-name="Layer 1"><circle class="cls-1" cx="114.07" cy="48.96" r="8.51"/><path class="cls-1" d="M98.45,75.43a15.63,15.63,0,0,1,31.25,0"/><circle class="cls-1" cx="80.05" cy="74.13" r="8.51"/><path class="cls-1" d="M64.43,100.6a15.63,15.63,0,0,1,31.25,0"/><circle class="cls-1" cx="114.07" cy="98.21" r="8.51"/><path class="cls-1" d="M98.45,124.68a15.63,15.63,0,0,1,31.25,0"/><circle class="cls-1" cx="44.74" cy="48.96" r="8.51"/><path class="cls-1" d="M29.11,75.43a15.63,15.63,0,0,1,31.26,0"/><circle class="cls-1" cx="44.74" cy="98.21" r="8.51"/><path class="cls-1" d="M29.11,124.68a15.63,15.63,0,0,1,31.26,0"/><path class="cls-2" d="M20.57.5h121.2a20.07,20.07,0,0,1,20.07,20.07V189.5L130,161.84H20.57A20.07,20.07,0,0,1,.5,141.77V20.57A20.06,20.06,0,0,1,20.57.5Z"/></g></g></svg>