<?xml version="1.0" encoding="utf-8"?>
<!-- Generator: Adobe Illustrator 23.0.1, SVG Export Plug-In . SVG Version: 6.00 Build 0)  -->
<svg version="1.1" xmlns="http://www.w3.org/2000/svg" xmlns:xlink="http://www.w3.org/1999/xlink" x="0px" y="0px"
	 viewBox="0 0 451 642" style="enable-background:new 0 0 451 642;" xml:space="preserve">
<style type="text/css">
	.st0{fill:url(#SVGID_1_);}
	.st1{fill:url(#SVGID_2_);}
	.st2{fill:url(#SVGID_3_);}
	.st3{fill:url(#SVGID_4_);}
	.st4{fill:url(#SVGID_5_);}
	.st5{fill:url(#SVGID_6_);}
	.st6{fill:none;}
	.st7{fill:#F2F2F2;}
	.st8{fill:#6A9B4B;}
	.st9{fill:none;stroke:#E5D7AD;stroke-width:0.5172;stroke-miterlimit:10;}
	.st10{fill:none;stroke:#F2F2F2;stroke-width:1.5515;stroke-miterlimit:10;}
	.st11{fill:#E5D7AD;}
	.st12{fill:none;stroke:#E5D7AD;stroke-width:0.5793;stroke-miterlimit:10;}
	.st13{fill:none;stroke:#E5D7AD;stroke-width:1.7378;stroke-miterlimit:10;}
	.st14{fill:#C8E583;}
</style>
<g id="Layer_1">
</g>
<g id="Layer_2">
	<linearGradient id="SVGID_1_" gradientUnits="userSpaceOnUse" x1="135.8284" y1="595.5771" x2="135.8284" y2="578.8063">
		<stop  offset="1.305028e-07" style="stop-color:#71BE49;stop-opacity:0"/>
		<stop  offset="0.8505" style="stop-color:#A2C753"/>
	</linearGradient>
	<path class="st0" d="M99.39,596c0,0,11.71-15.83,29.75-17.11c21.14-1.5,34.21,6.69,43.14,17.11H99.39z"/>
	<linearGradient id="SVGID_2_" gradientUnits="userSpaceOnUse" x1="270.2016" y1="475.3438" x2="270.2016" y2="449.3241">
		<stop  offset="1.305028e-07" style="stop-color:#71BE49;stop-opacity:0"/>
		<stop  offset="0.8505" style="stop-color:#A2C753"/>
	</linearGradient>
	<path class="st1" d="M213.66,476c0,0,18.17-24.56,46.15-26.54c32.8-2.32,53.08,10.38,66.92,26.54H213.66z"/>
	<linearGradient id="SVGID_3_" gradientUnits="userSpaceOnUse" x1="174.5226" y1="129.5151" x2="174.5226" y2="110.2879">
		<stop  offset="1.305028e-07" style="stop-color:#71BE49;stop-opacity:0"/>
		<stop  offset="0.8505" style="stop-color:#A2C753"/>
	</linearGradient>
	<path class="st2" d="M132.74,130c0,0,13.43-18.15,34.11-19.61c24.24-1.72,39.22,7.67,49.45,19.61H132.74z"/>
	<linearGradient id="SVGID_4_" gradientUnits="userSpaceOnUse" x1="384.7415" y1="507.782" x2="384.7415" y2="492.0464">
		<stop  offset="1.305028e-07" style="stop-color:#71BE49;stop-opacity:0"/>
		<stop  offset="0.8505" style="stop-color:#A2C753"/>
	</linearGradient>
	<path class="st3" d="M384.74,489.87c9.32,0,16.88,6.41,16.88,14.33c0,1.32-0.21,2.59-0.61,3.8h-32.56
		c-0.39-1.21-0.61-2.49-0.61-3.8C367.86,496.29,375.42,489.87,384.74,489.87z"/>
	<linearGradient id="SVGID_5_" gradientUnits="userSpaceOnUse" x1="277.546" y1="119.782" x2="277.546" y2="104.0464">
		<stop  offset="1.305028e-07" style="stop-color:#71BE49;stop-opacity:0"/>
		<stop  offset="0.8505" style="stop-color:#A2C753"/>
	</linearGradient>
	<path class="st4" d="M277.55,101.87c9.32,0,16.88,6.41,16.88,14.33c0,1.32-0.21,2.59-0.61,3.8h-32.56
		c-0.39-1.21-0.61-2.49-0.61-3.8C260.66,108.29,268.22,101.87,277.55,101.87z"/>
	<linearGradient id="SVGID_6_" gradientUnits="userSpaceOnUse" x1="299.2814" y1="385.782" x2="299.2814" y2="370.0464">
		<stop  offset="1.305028e-07" style="stop-color:#71BE49;stop-opacity:0"/>
		<stop  offset="0.8505" style="stop-color:#A2C753"/>
	</linearGradient>
	<path class="st5" d="M299.28,367.87c9.32,0,16.88,6.41,16.88,14.33c0,1.32-0.21,2.59-0.61,3.8H283c-0.39-1.21-0.61-2.49-0.61-3.8
		C282.4,374.29,289.96,367.87,299.28,367.87z"/>
	<g>
		<g>
			<path class="st6" d="M192.29,458.77"/>
			<path class="st7" d="M184.4,479.6h-3.18v-27.88c0-0.88,0.71-1.59,1.59-1.59l0,0c0.88,0,1.59,0.71,1.59,1.59V479.6z"/>
		</g>
		<g>
			<path class="st6" d="M176.71,467.48c0,3.37,2.73,6.1,6.1,6.1"/>
			<path class="st6" d="M182.81,472.26c3.37,0,6.1-2.73,6.1-6.1"/>
		</g>
		<g>
			<path class="st8" d="M183.59,434.05h-1.56c-5.5,0-9.53-5.18-8.18-10.51l0,0c0.95-3.74,4.32-6.37,8.18-6.37h1.56
				c3.86,0,7.23,2.62,8.18,6.37l0,0C193.12,428.87,189.09,434.05,183.59,434.05z"/>
			<path class="st8" d="M185.63,450.93h-5.63c-5.69,0-9.75-5.51-8.06-10.95l0,0c1.1-3.53,4.36-5.93,8.06-5.93h5.63
				c3.69,0,6.96,2.4,8.06,5.93v0C195.37,445.42,191.31,450.93,185.63,450.93z"/>
			<path class="st8" d="M187.91,467.81h-10.19c-5.9,0-9.98-5.9-7.9-11.41h0c1.24-3.29,4.38-5.46,7.9-5.46h10.19
				c3.51,0,6.66,2.18,7.9,5.46l0,0C197.88,461.91,193.8,467.81,187.91,467.81z"/>
		</g>
	</g>
	<g>
		<g>
			<path class="st9" d="M201.06,78.23"/>
			<path class="st7" d="M193.17,99.06h-3.18V71.18c0-0.88,0.71-1.59,1.59-1.59l0,0c0.88,0,1.59,0.71,1.59,1.59V99.06z"/>
		</g>
		<g>
			<path class="st10" d="M185.48,86.94c0,3.37,2.73,6.1,6.1,6.1"/>
			<path class="st10" d="M191.58,91.72c3.37,0,6.1-2.73,6.1-6.1"/>
		</g>
		<g>
			<path class="st8" d="M192.36,53.51h-1.56c-5.5,0-9.53-5.18-8.18-10.51l0,0c0.95-3.74,4.32-6.37,8.18-6.37h1.56
				c3.86,0,7.23,2.62,8.18,6.37l0,0C201.89,48.33,197.86,53.51,192.36,53.51z"/>
			<path class="st8" d="M194.4,70.39h-5.63c-5.69,0-9.75-5.51-8.06-10.95v0c1.1-3.53,4.36-5.93,8.06-5.93h5.63
				c3.69,0,6.96,2.4,8.06,5.93v0C204.14,64.88,200.08,70.39,194.4,70.39z"/>
			<path class="st8" d="M196.67,87.27h-10.19c-5.9,0-9.98-5.9-7.9-11.41v0c1.24-3.29,4.38-5.46,7.9-5.46h10.19
				c3.51,0,6.66,2.18,7.9,5.46v0C206.65,81.37,202.57,87.27,196.67,87.27z"/>
		</g>
	</g>
	<g>
		
			<rect x="161.11" y="170.09" transform="matrix(-1 -4.487489e-11 4.487489e-11 -1 325.7898 367.2946)" class="st11" width="3.57" height="27.11"/>
		<path class="st12" d="M152.27,173.87"/>
		<path class="st13" d="M173.52,173.87c0,5.87-4.76,10.62-10.62,10.62"/>
		<circle class="st14" cx="172.53" cy="170.09" r="9.09"/>
		<path class="st13" d="M162.89,182.19c-5.87,0-10.62-4.76-10.62-10.62"/>
		<circle class="st14" cx="157.58" cy="161" r="16.24"/>
	</g>
	<g>
		<rect x="287.24" y="480.33" class="st11" width="3.57" height="27.11"/>
		<path class="st12" d="M299.64,484.11"/>
		<path class="st13" d="M278.4,484.11c0,5.87,4.76,10.62,10.62,10.62"/>
		<circle class="st14" cx="279.38" cy="480.33" r="9.09"/>
		<path class="st13" d="M289.02,492.43c5.87,0,10.62-4.76,10.62-10.62"/>
		<circle class="st14" cx="294.33" cy="471.24" r="16.24"/>
	</g>
	<g>
		<rect x="251.47" y="350.76" class="st11" width="3.57" height="27.11"/>
		<path class="st12" d="M263.88,354.54"/>
		<path class="st13" d="M242.64,354.54c0,5.87,4.76,10.62,10.62,10.62"/>
		<circle class="st14" cx="243.62" cy="350.76" r="9.09"/>
		<path class="st13" d="M253.26,362.86c5.87,0,10.62-4.76,10.62-10.62"/>
		<circle class="st14" cx="258.57" cy="341.67" r="16.24"/>
	</g>
</g>
</svg>
