<?xml version="1.0" encoding="utf-8"?>
<!-- Generator: Adobe Illustrator 23.0.1, SVG Export Plug-In . SVG Version: 6.00 Build 0)  -->
<svg version="1.1" xmlns="http://www.w3.org/2000/svg" xmlns:xlink="http://www.w3.org/1999/xlink" x="0px" y="0px"
	 viewBox="0 0 451 642" style="enable-background:new 0 0 451 642;" xml:space="preserve">
<style type="text/css">
	.st0{fill:none;stroke:#78CDDB;stroke-width:1.9368;stroke-linejoin:round;stroke-miterlimit:10;}
	.st1{fill:none;stroke:#B3B3B3;stroke-width:1.9368;stroke-linejoin:round;stroke-miterlimit:10;}
</style>
<g id="Layer_1">
</g>
<g id="Layer_2">
	<g>
		<path class="st0" d="M390.83,565.26c1.4,2.9,4.09,4.78,7,4.53s5.25-2.54,6.15-5.63c1.4,2.9,4.09,4.78,7,4.53s5.25-2.54,6.15-5.63"
			/>
		<path class="st0" d="M407.18,552.62c1.4,2.9,4.09,4.78,7,4.53c2.92-0.24,5.25-2.54,6.15-5.63c1.4,2.9,4.09,4.78,7,4.53
			c2.92-0.24,5.25-2.54,6.15-5.63"/>
	</g>
	<g>
		<path class="st0" d="M32.61,535.33c1.15,3.01,3.67,5.1,6.6,5.1s5.45-2.09,6.6-5.1c1.15,3.01,3.67,5.1,6.6,5.1
			c2.93,0,5.45-2.09,6.6-5.1"/>
		<path class="st0" d="M49.95,524.1c1.15,3.01,3.67,5.1,6.6,5.1c2.93,0,5.45-2.09,6.6-5.1c1.15,3.01,3.67,5.1,6.6,5.1
			s5.45-2.09,6.6-5.1"/>
	</g>
	<g>
		<path class="st1" d="M152.66,302.29c-1.65-4.31-5.26-7.31-9.45-7.31s-7.8,2.99-9.45,7.31c-1.65-4.31-5.26-7.31-9.45-7.31
			s-7.8,2.99-9.45,7.31"/>
		<path class="st1" d="M127.81,318.38c-1.65-4.31-5.26-7.31-9.45-7.31s-7.8,2.99-9.45,7.31c-1.65-4.31-5.26-7.31-9.45-7.31
			c-4.19,0-7.8,2.99-9.45,7.31"/>
	</g>
	<g>
		<path class="st1" d="M390.23,277.82c-1.65-4.31-5.26-7.31-9.45-7.31s-7.8,2.99-9.45,7.31c-1.65-4.31-5.26-7.31-9.45-7.31
			c-4.19,0-7.8,2.99-9.45,7.31"/>
		<path class="st1" d="M365.38,293.91c-1.65-4.31-5.26-7.31-9.45-7.31s-7.8,2.99-9.45,7.31c-1.65-4.31-5.26-7.31-9.45-7.31
			s-7.8,2.99-9.45,7.31"/>
	</g>
</g>
</svg>
