<svg xmlns="http://www.w3.org/2000/svg" viewBox="0 0 472 495.74"><defs><style>.cls-1{fill:#c8e583;}.cls-2{fill:#e5d7ad;}.cls-3,.cls-4,.cls-6{fill:none;stroke-miterlimit:10;}.cls-3,.cls-4{stroke:#e5d7ad;}.cls-3,.cls-6{stroke-width:1.55px;}.cls-4{stroke-width:1.74px;}.cls-5{fill:#f2f2f2;}.cls-6{stroke:#f2f2f2;}.cls-7{fill:#6a9b4b;}.cls-8{fill:#fcd72a;}</style></defs><title>trees</title><g id="Layer_2" data-name="Layer 2"><g id="Layer_5" data-name="Layer 5"><circle class="cls-1" cx="320.49" cy="429.56" r="8.12"/><rect class="cls-2" x="327.51" y="429.56" width="3.18" height="24.2"/><path class="cls-2" d="M329.1,443.19a10.27,10.27,0,0,1-10.26-10.25h1.55a8.71,8.71,0,0,0,8.71,8.7Z"/><path class="cls-2" d="M329.1,441.14v-1.56a8.71,8.71,0,0,0,8.71-8.7h1.55A10.27,10.27,0,0,1,329.1,441.14Z"/><circle class="cls-1" cx="333.84" cy="421.44" r="14.5"/><rect class="cls-2" x="135.23" y="471.54" width="3.18" height="24.2"/><path class="cls-3" d="M127.34,474.92a9.49,9.49,0,0,0,9.48,9.48"/><circle class="cls-1" cx="128.22" cy="471.54" r="8.12"/><path class="cls-3" d="M136.82,482.34a9.48,9.48,0,0,0,9.49-9.48"/><circle class="cls-1" cx="141.57" cy="463.42" r="14.5"/><rect class="cls-2" x="208.53" y="36.2" width="3.57" height="27.11" transform="translate(420.63 99.51) rotate(-180)"/><path class="cls-4" d="M220.93,40a10.62,10.62,0,0,1-10.62,10.63"/><circle class="cls-1" cx="219.95" cy="36.2" r="9.09"/><path class="cls-4" d="M210.31,48.3a10.62,10.62,0,0,1-10.62-10.62"/><circle class="cls-1" cx="205" cy="27.11" r="16.24"/><rect class="cls-2" x="448.66" y="140.22" width="3.57" height="27.11"/><path class="cls-4" d="M439.82,144a10.63,10.63,0,0,0,10.62,10.63"/><circle class="cls-1" cx="440.81" cy="140.22" r="9.09"/><path class="cls-4" d="M450.44,152.32a10.62,10.62,0,0,0,10.63-10.62"/><circle class="cls-1" cx="455.76" cy="131.13" r="16.24"/><path class="cls-5" d="M13.54,243.3h0a1.59,1.59,0,0,1,1.59,1.59v27.88a0,0,0,0,1,0,0H12a0,0,0,0,1,0,0V244.89A1.59,1.59,0,0,1,13.54,243.3Z"/><path class="cls-6" d="M7.44,260.66a6.1,6.1,0,0,0,6.1,6.1"/><path class="cls-6" d="M13.54,265.44a6.11,6.11,0,0,0,6.1-6.11"/><path class="cls-7" d="M14.32,227.23H12.76a8.44,8.44,0,0,1-8.18-10.51h0a8.44,8.44,0,0,1,8.18-6.37h1.56a8.44,8.44,0,0,1,8.18,6.37h0A8.44,8.44,0,0,1,14.32,227.23Z"/><path class="cls-7" d="M16.36,244.11H10.73a8.44,8.44,0,0,1-8.06-11h0a8.43,8.43,0,0,1,8.06-5.93h5.63a8.44,8.44,0,0,1,8.06,5.93h0A8.44,8.44,0,0,1,16.36,244.11Z"/><path class="cls-7" d="M18.64,261H8.45a8.44,8.44,0,0,1-7.9-11.42h0a8.43,8.43,0,0,1,7.9-5.46H18.64a8.44,8.44,0,0,1,7.9,5.46h0A8.45,8.45,0,0,1,18.64,261Z"/><path class="cls-5" d="M167.56,362.15h0a1.59,1.59,0,0,1,1.59,1.59v27.88a0,0,0,0,1,0,0H166a0,0,0,0,1,0,0V363.74a1.59,1.59,0,0,1,1.59-1.59Z"/><path class="cls-6" d="M161.46,379.5a6.11,6.11,0,0,0,6.1,6.11"/><path class="cls-6" d="M167.56,384.28a6.1,6.1,0,0,0,6.1-6.1"/><path class="cls-7" d="M168.34,346.08h-1.56a8.44,8.44,0,0,1-8.18-10.51h0a8.44,8.44,0,0,1,8.18-6.37h1.56a8.44,8.44,0,0,1,8.18,6.37h0A8.44,8.44,0,0,1,168.34,346.08Z"/><path class="cls-7" d="M170.37,363h-5.63A8.44,8.44,0,0,1,156.68,352h0a8.44,8.44,0,0,1,8.06-5.93h5.63a8.43,8.43,0,0,1,8.06,5.93h0A8.44,8.44,0,0,1,170.37,363Z"/><path class="cls-7" d="M172.65,379.83H162.46a8.43,8.43,0,0,1-7.89-11.41h0a8.43,8.43,0,0,1,7.89-5.47h10.19a8.44,8.44,0,0,1,7.9,5.47h0A8.44,8.44,0,0,1,172.65,379.83Z"/><rect class="cls-2" x="30.49" y="25.34" width="3.57" height="27.11"/><path class="cls-4" d="M21.65,29.12A10.63,10.63,0,0,0,32.27,39.74"/><circle class="cls-8" cx="22.63" cy="25.34" r="9.09"/><path class="cls-4" d="M32.27,37.44A10.63,10.63,0,0,0,42.9,26.81"/><circle class="cls-8" cx="37.58" cy="16.24" r="16.24"/></g></g></svg>