<svg xmlns="http://www.w3.org/2000/svg" xmlns:xlink="http://www.w3.org/1999/xlink" viewBox="0 0 40.82 24.46"><defs><style>.cls-1,.cls-2{fill:none;}.cls-2{clip-rule:evenodd;}.cls-3{fill:#252545;}.cls-4{fill:#f2f2f2;}.cls-5{fill:#78cddb;}.cls-6{isolation:isolate;}.cls-7{clip-path:url(#clip-path);}.cls-8{clip-path:url(#clip-path-2);}.cls-9{clip-path:url(#clip-path-3);}.cls-10{fill:#71be49;}.cls-11{fill:#ccc;}.cls-12{fill:#fff;}</style><clipPath id="clip-path"><rect class="cls-1" x="3.46" y="4.01" width="10.71" height="8.19"/></clipPath><clipPath id="clip-path-2"><path class="cls-2" d="M8.28,11.66c-2,.48-3.38-1.94-3.84-2.94a4.92,4.92,0,0,0,2.4,2.39c1.64.51,2.66-.29,3.27-1.67a5.15,5.15,0,0,1,2-2.66c1-.59,1.59-.73,2.05,0-.45-.73-1.41-.45-2.54.64C10.22,8.79,10.82,11.06,8.28,11.66ZM5.07,9.47a7.07,7.07,0,0,1-.79-1.13c-.66-1.36.64-1.08.64-1.08s-.46,0-.55.23a.54.54,0,0,0,.74.6c.24-.08.64-.39,1.07-1.27S8.1,4.05,10,5.12c1.64.92,2.25,1.11,2.83,1-.95.12-1.3.09-3.21-.66s-3.33,2-3.33,2S7.72,5.37,9.71,6a4.7,4.7,0,0,0,2.89.29l.32-.08-.13,0a5.17,5.17,0,0,0-1.67.82c-1.56,1.29-1.28,3.75-3.7,3.8A3.42,3.42,0,0,1,5.07,9.47ZM8.2,9a.52.52,0,0,0,.58.58h.35v-.3H8.75a.25.25,0,0,1-.19-.06A.28.28,0,0,1,8.5,9V7.84H8.2Zm-1.26.58h.55a.63.63,0,0,0,.41-.13.42.42,0,0,0,.16-.36.45.45,0,0,0,0-.2.4.4,0,0,0-.13-.16.84.84,0,0,0-.28-.15h0l-.11,0c-.15-.05-.19-.09-.2-.11a.13.13,0,0,1,0-.1.13.13,0,0,1,0-.1.35.35,0,0,1,.2,0H8V7.84H7.5A.61.61,0,0,0,7.1,8,.44.44,0,0,0,7,8.57a.88.88,0,0,0,.35.21l.09,0c.18.07.23.11.24.13a.12.12,0,0,1,0,.1c0,.09,0,.12-.06.13a.55.55,0,0,1-.31.06H6.94ZM5.68,8.69a.92.92,0,0,0,.11.43.77.77,0,0,0,.31.31.72.72,0,0,0,.22.08,1.29,1.29,0,0,0,.29,0h.16v-.3H6.59a.63.63,0,0,1-.44-.14A.58.58,0,0,1,6,8.81h.78v-.3H6a.47.47,0,0,1,.16-.25.6.6,0,0,1,.42-.13h.19v-.3H6.61a1.29,1.29,0,0,0-.29,0A.57.57,0,0,0,6.09,8a.75.75,0,0,0-.3.31A.77.77,0,0,0,5.68,8.69Z"/></clipPath><clipPath id="clip-path-3"><rect class="cls-1" x="4.09" y="4.79" width="10.08" height="6.93"/></clipPath></defs><title>van</title><g id="Layer_2" data-name="Layer 2"><g id="Layer_2-2" data-name="Layer 2"><ellipse class="cls-3" cx="18.4" cy="19.53" rx="3.16" ry="4.93"/><ellipse class="cls-3" cx="34.37" cy="19.53" rx="3.16" ry="4.93"/><ellipse class="cls-3" cx="6.34" cy="19.53" rx="3.16" ry="4.93"/><path class="cls-4" d="M26.52,11.52V22h8.17a6.13,6.13,0,0,0,6.13-6.13s0-4.36-5.14-5.91C30.86,8.51,29.36,0,18.6,0"/><path class="cls-4" d="M0,11.52H9.33a5,5,0,0,1,5,5v2A3.49,3.49,0,0,1,10.8,22H0a0,0,0,0,1,0,0V11.52A0,0,0,0,1,0,11.52Z" transform="translate(14.29 33.53) rotate(180)"/><path class="cls-4" d="M.61,17.48A4.53,4.53,0,0,0,5.14,22H27.39V11.52h0l-2.6-7.11A6.65,6.65,0,0,0,18.6,0H7A5.82,5.82,0,0,0,1.23,5.38C.94,9.25.61,14.33.61,17.48Z"/><path class="cls-5" d="M25.46,2.69h-9.9a1,1,0,0,0-.71,1.73l3.86,3.81a2.24,2.24,0,0,0,1.59.65h9.9a1,1,0,0,0,.71-1.73L27.05,3.34A2.28,2.28,0,0,0,25.46,2.69Z"/><g class="cls-6"><g class="cls-7"><g class="cls-8"><g class="cls-9"><rect class="cls-10" x="3.3" y="4.01" width="11.65" height="8.5"/></g></g></g></g><path class="cls-11" d="M0,17.05a5,5,0,0,0,5,5H34.69a6.13,6.13,0,0,0,6.13-6.13V15.8H0Z"/><rect class="cls-12" x="19.22" y="13.99" width="5.81" height="2.77" rx="1.39"/><rect class="cls-12" x="33.51" y="13.99" width="5.81" height="2.77" rx="1.39"/></g></g></svg>