<svg xmlns="http://www.w3.org/2000/svg" xmlns:xlink="http://www.w3.org/1999/xlink" width="134.98" height="116.82" viewBox="0 0 134.98 116.82">
  <defs>
    <clipPath id="ead90742-7105-489a-8d94-9ca3d59fcfc5">
      <rect x="4.74" y="88.83" width="14.65" height="11.2" style="fill: none"/>
    </clipPath>
    <clipPath id="ed1cc691-d229-421d-9f11-28e5286c93f7">
      <path d="M11.32,99.3c-2.77.65-4.61-2.66-5.25-4,.54,1,1.69,2.77,3.28,3.27,2.25.71,3.65-.38,4.49-2.27,1.08-2.45,1.82-3,2.74-3.65,1.32-.81,2.18-1,2.81,0-.62-1-1.93-.62-3.48.87C14,95.38,14.8,98.48,11.32,99.3Zm-4.38-3a12.17,12.17,0,0,1-1.09-1.55c-.9-1.86.89-1.48.89-1.48s-.64,0-.76.31a.74.74,0,0,0,1,.82c.33-.1.87-.53,1.46-1.73s2.63-3.79,5.26-2.32c2.25,1.26,3.08,1.51,3.88,1.41-1.31.17-1.79.13-4.4-.89-2.43-1-4.56,2.71-4.56,2.71s1.94-2.89,4.66-2a6.4,6.4,0,0,0,3.95.4l.43-.1L17.5,92a7.07,7.07,0,0,0-2.29,1.12c-2.13,1.75-1.75,5.13-5.06,5.19A4.7,4.7,0,0,1,6.94,96.31Zm4.28-.7a.8.8,0,0,0,.2.58.78.78,0,0,0,.59.2h.48V96H12a.38.38,0,0,1-.26-.08.41.41,0,0,1-.08-.27V94.07h-.41Zm-1.72.78h.75a.85.85,0,0,0,.56-.16.61.61,0,0,0,.22-.5.6.6,0,0,0-.06-.27.91.91,0,0,0-.17-.23,2,2,0,0,0-.38-.2h-.05L10.22,95a1.15,1.15,0,0,1-.28-.15.29.29,0,0,1,0-.14.16.16,0,0,1,.06-.14.49.49,0,0,1,.27-.06h.68v-.4h-.64a.88.88,0,0,0-.55.15.51.51,0,0,0-.22.45.61.61,0,0,0,.13.41,1.23,1.23,0,0,0,.47.28l.13,0a1.07,1.07,0,0,1,.33.18.18.18,0,0,1,0,.15.19.19,0,0,1-.08.18.87.87,0,0,1-.42.07H9.5ZM7.77,95.23a1.21,1.21,0,0,0,.15.6,1.06,1.06,0,0,0,.42.42,1,1,0,0,0,.31.11,2.29,2.29,0,0,0,.39,0h.22V96H9a.9.9,0,0,1-.6-.19.68.68,0,0,1-.21-.41H9.26V95h-1a.65.65,0,0,1,.21-.35A.89.89,0,0,1,9,94.47h.25v-.41H9.05a2.35,2.35,0,0,0-.4,0,.82.82,0,0,0-.32.12,1.15,1.15,0,0,0-.41.41A1.2,1.2,0,0,0,7.77,95.23Z" style="fill: none;clip-rule: evenodd"/>
    </clipPath>
    <clipPath id="e6c2b12a-dd26-4f3b-9853-2f2786318f5e">
      <rect x="5.6" y="89.91" width="13.79" height="9.48" style="fill: none"/>
    </clipPath>
    <symbol id="abaceb0f-9d99-4938-b987-553b9dcd4f8e" data-name="Commercial" viewBox="0 0 73.71 87.37">
      <g>
        <path d="M53.49,69.54H71.32a0,0,0,0,1,0,0V82.37a5,5,0,0,1-5,5H53.49a0,0,0,0,1,0,0V69.54a0,0,0,0,1,0,0Z" style="fill: #f2f2f2"/>
        <rect x="35.66" y="51.71" width="17.83" height="17.83" style="fill: #f2f2f2"/>
        <rect x="53.49" y="33.88" width="17.83" height="17.83" style="fill: #f2f2f2"/>
        <rect x="53.49" y="51.71" width="17.83" height="17.83" style="fill: #78cddb"/>
        <rect x="35.66" y="33.88" width="17.83" height="17.83" style="fill: #78cddb"/>
        <path d="M5,16.05H71.32a0,0,0,0,1,0,0V33.88a0,0,0,0,1,0,0H0a0,0,0,0,1,0,0V21.05A5,5,0,0,1,5,16.05Z" style="fill: #78cddb"/>
        <rect x="35.66" y="69.54" width="17.83" height="17.83" style="fill: #78cddb"/>
        <g>
          <rect x="17.83" y="69.54" width="17.83" height="17.83" style="fill: #f2f2f2"/>
          <rect y="51.71" width="17.83" height="17.83" style="fill: #f2f2f2"/>
          <rect x="17.83" y="16.05" width="17.83" height="35.66" style="fill: #f2f2f2"/>
          <rect x="17.83" y="51.71" width="17.83" height="17.83" style="fill: #78cddb"/>
          <rect y="33.88" width="17.83" height="17.83" style="fill: #78cddb"/>
          <path d="M0,69.54H17.83a0,0,0,0,1,0,0V87.37a0,0,0,0,1,0,0H5a5,5,0,0,1-5-5V69.54a0,0,0,0,1,0,0Z" style="fill: #78cddb"/>
        </g>
        <g>
          <path d="M58.49,0H68.71a5,5,0,0,1,5,5V46.71a5,5,0,0,1-5,5H53.49a0,0,0,0,1,0,0V5A5,5,0,0,1,58.49,0Z" style="fill: #f2f2f2"/>
          <path d="M58.49,0H60.3a0,0,0,0,1,0,0V51.71a0,0,0,0,1,0,0H53.49a0,0,0,0,1,0,0V5A5,5,0,0,1,58.49,0Z" style="fill: #1a1a1a;opacity: 0.41000000000000003;mix-blend-mode: darken"/>
        </g>
        <path d="M5,16.05H35.66a0,0,0,0,1,0,0V87.37a0,0,0,0,1,0,0H5a5,5,0,0,1-5-5V21.05a5,5,0,0,1,5-5Z" style="fill: #1a1a1a;opacity: 0.41000000000000003;mix-blend-mode: darken"/>
      </g>
      <rect x="65.99" y="3.96" width="5.33" height="27.27" style="fill: #252545"/>
    </symbol>
  </defs>
  <title>build-2</title>
  <g id="b1c11e30-f271-4cec-bf42-d3c985212449" data-name="Layer 2">
    <g id="bc312d7d-5d69-4887-b37a-5224f952abca" data-name="Layer 4">
      <use width="73.71" height="87.37" transform="translate(45.03) scale(1.22)" xlink:href="#abaceb0f-9d99-4938-b987-553b9dcd4f8e"/>
      <g>
        <ellipse cx="25.17" cy="110.07" rx="4.32" ry="6.75" style="fill: #252545"/>
        <ellipse cx="47.02" cy="110.07" rx="4.32" ry="6.75" style="fill: #252545"/>
        <ellipse cx="8.68" cy="110.07" rx="4.32" ry="6.75" style="fill: #252545"/>
        <g>
          <path d="M36.29,99.11v14.35H47.46a8.39,8.39,0,0,0,8.39-8.39s0-6-7-8.08c-6.61-2-8.65-13.64-23.37-13.64" style="fill: #f2f2f2"/>
          <path d="M0,99.11H12.76a6.79,6.79,0,0,1,6.79,6.79v2.78a4.78,4.78,0,0,1-4.78,4.78H0a0,0,0,0,1,0,0V99.11A0,0,0,0,1,0,99.11Z" transform="translate(19.56 212.58) rotate(180)" style="fill: #f2f2f2"/>
          <path d="M.84,107.27A6.19,6.19,0,0,0,7,113.46H37.48V99.11h0l-3.57-9.73a9.08,9.08,0,0,0-8.46-6H9.63a8,8,0,0,0-8,7.36C1.29,96,.84,103,.84,107.27Z" style="fill: #f2f2f2"/>
        </g>
        <path d="M34.84,87H21.29a1.39,1.39,0,0,0-1,2.37l5.28,5.21a3.1,3.1,0,0,0,2.17.89H41.32a1.38,1.38,0,0,0,1-2.36L37,87.92A3.1,3.1,0,0,0,34.84,87Z" style="fill: #78cddb"/>
        <g style="isolation: isolate">
          <g style="clip-path: url(#ead90742-7105-489a-8d94-9ca3d59fcfc5)">
            <g style="clip-path: url(#ed1cc691-d229-421d-9f11-28e5286c93f7)">
              <g style="clip-path: url(#e6c2b12a-dd26-4f3b-9853-2f2786318f5e)">
                <rect x="4.52" y="88.83" width="15.94" height="11.63" style="fill: #71be49"/>
              </g>
            </g>
          </g>
        </g>
        <path d="M0,106.67a6.79,6.79,0,0,0,6.79,6.79H47.46a8.39,8.39,0,0,0,8.39-8.39.5.5,0,0,1,0-.11H0Z" style="fill: #ccc"/>
        <rect x="26.3" y="102.5" width="7.95" height="3.79" rx="1.9" style="fill: #fff"/>
        <rect x="45.85" y="102.5" width="7.95" height="3.79" rx="1.9" style="fill: #fff"/>
      </g>
    </g>
  </g>
</svg>
