<svg xmlns="http://www.w3.org/2000/svg" xmlns:xlink="http://www.w3.org/1999/xlink" width="165.83" height="117.21" viewBox="0 0 165.83 117.21">
  <defs>
    <clipPath id="be34e019-ff82-4f25-b1bf-bbc0d0c0d3a4">
      <rect x="98.57" y="60.51" width="10.45" height="10.02" style="fill: none"/>
    </clipPath>
    <clipPath id="b1428395-276b-4e28-8b8a-b07528510067">
      <path d="M75.64,50.26h0A11.42,11.42,0,0,1,87.06,61.68V75.57a0,0,0,0,1,0,0H64.23a0,0,0,0,1,0,0V61.68A11.42,11.42,0,0,1,75.64,50.26Z" style="fill: none"/>
    </clipPath>
    <clipPath id="f0db1eaf-f39a-4c37-91c3-372b517a4e7e">
      <rect x="146.44" y="84.31" width="14.65" height="11.2" style="fill: none"/>
    </clipPath>
    <clipPath id="b196f26a-825c-4ed2-aa71-6d45c82aafd2">
      <path d="M149.92,89c-1.55-1.5-2.86-1.87-3.48-.87.63-1,1.49-.83,2.81,0,.92.64,1.65,1.19,2.74,3.64.84,1.9,2.24,3,4.49,2.28,1.59-.51,2.74-2.28,3.28-3.27-.64,1.37-2.48,4.68-5.25,4C151,94,151.85,90.86,149.92,89Zm5.76,4.75c-3.31-.06-2.93-3.44-5.06-5.19a6.93,6.93,0,0,0-2.29-1.13l-.17,0,.43.1a6.4,6.4,0,0,0,3.95-.4c2.72-.9,4.66,2,4.66,2s-2.13-3.68-4.56-2.72c-2.61,1-3.1,1.06-4.4.9.8.1,1.63-.16,3.88-1.41,2.63-1.47,4.61,1,5.26,2.32s1.13,1.62,1.46,1.73a.74.74,0,0,0,1-.82c-.12-.33-.76-.32-.76-.32s1.79-.37.89,1.49a12.17,12.17,0,0,1-1.09,1.55A4.7,4.7,0,0,1,155.68,93.74Zm-1.07-4.19h-.41v1.56a.4.4,0,0,1-.08.27.34.34,0,0,1-.26.09h-.53v.4h.49a.78.78,0,0,0,.58-.2.77.77,0,0,0,.21-.59Zm1.72,1.91h-.61a.87.87,0,0,1-.42-.07s-.08-.06-.08-.18a.16.16,0,0,1,.05-.14.92.92,0,0,1,.33-.18l.13,0a1.55,1.55,0,0,0,.47-.28.61.61,0,0,0,.13-.41.51.51,0,0,0-.22-.45.88.88,0,0,0-.55-.15h-.64V90h.68a.49.49,0,0,1,.27.06.15.15,0,0,1,.06.13.26.26,0,0,1,0,.14.85.85,0,0,1-.28.15l-.15.06-.05,0a1.55,1.55,0,0,0-.38.2.69.69,0,0,0-.17.22.66.66,0,0,0-.06.27.59.59,0,0,0,.22.5.85.85,0,0,0,.56.17h.75Zm1.58-1.34a1.1,1.1,0,0,0-.41-.42,1,1,0,0,0-.32-.11,1.64,1.64,0,0,0-.4,0h-.22V90h.26a.89.89,0,0,1,.58.17.68.68,0,0,1,.22.35h-1.06v.41h1.07a.7.7,0,0,1-.21.41.9.9,0,0,1-.6.18h-.26v.4h.23a2.29,2.29,0,0,0,.39,0,1,1,0,0,0,.31-.11,1.06,1.06,0,0,0,.42-.42,1.26,1.26,0,0,0,0-1.19Z" style="fill: none;clip-rule: evenodd"/>
    </clipPath>
    <clipPath id="b7c2c429-d39d-413a-9db3-a2b20aba8574">
      <rect x="146.44" y="85.38" width="13.79" height="9.48" style="fill: none"/>
    </clipPath>
    <symbol id="a92529f7-ff03-4454-ad91-1ed0686f1a77" data-name="Nursery" viewBox="0 0 116.45 89.42">
      <g>
        <g>
          <path d="M92.63,40.56l21.45,14.07V69.57a6,6,0,0,1-6,6H92.63Z" style="fill: #e6e6e6"/>
          <line x1="92.64" y1="40.56" x2="114.95" y2="54.63" style="fill: none;stroke: #252545;stroke-linecap: round;stroke-miterlimit: 10;stroke-width: 3px"/>
        </g>
        <g>
          <rect x="98.57" y="60.51" width="10.45" height="10.02" style="fill: #78cddb"/>
          <g style="clip-path: url(#be34e019-ff82-4f25-b1bf-bbc0d0c0d3a4)">
            <line x1="112.39" y1="47.9" x2="95.2" y2="75.66" style="fill: none;stroke: #fff;stroke-miterlimit: 10;stroke-width: 3px"/>
          </g>
        </g>
      </g>
      <rect x="30.42" y="30.52" width="20.85" height="45.06" style="fill: #f2f2f2"/>
      <polygon points="73.59 16.45 51.27 30.52 95.92 30.52 73.59 16.45" style="fill: #f2f2f2"/>
      <rect x="51.27" y="30.23" width="44.64" height="45.34" style="fill: #f2f2f2"/>
      <rect x="51.27" y="64.34" width="44.65" height="11.23" style="fill: #fff"/>
      <g>
        <polygon points="64.95 10.29 75.91 5.86 64.81 0 64.95 10.29" style="fill: #252545"/>
        <line x1="64.95" y1="15.67" x2="64.95" style="fill: none;stroke: #252545;stroke-miterlimit: 10;stroke-width: 0.9258135408475px"/>
      </g>
      <line x1="73.59" y1="15.71" x2="95.8" y2="29.73" style="fill: none;stroke: #252545;stroke-linecap: round;stroke-miterlimit: 10;stroke-width: 3px"/>
      <path d="M73.51,15.71l-22.21,14a3.22,3.22,0,0,1-1.73.5H29.89l23-14.52H73.52" style="fill: #252545;stroke: #252545;stroke-linecap: round;stroke-linejoin: round;stroke-width: 3px"/>
      <g>
        <path d="M75.64,50.26h0A11.42,11.42,0,0,1,87.06,61.68V75.57a0,0,0,0,1,0,0H64.23a0,0,0,0,1,0,0V61.68A11.42,11.42,0,0,1,75.64,50.26Z" style="fill: #78cddb"/>
        <g style="clip-path: url(#b1428395-276b-4e28-8b8a-b07528510067)">
          <g style="opacity: 0.55">
            <line x1="70.32" y1="45.75" x2="53.13" y2="82.41" style="fill: none;stroke: #fff;stroke-linecap: round;stroke-miterlimit: 10;stroke-width: 14px"/>
            <line x1="83.16" y1="45.75" x2="65.79" y2="82.93" style="fill: none;stroke: #fff;stroke-linecap: round;stroke-miterlimit: 10;stroke-width: 2px"/>
          </g>
        </g>
        <g style="clip-path: url(#b1428395-276b-4e28-8b8a-b07528510067)">
          <rect x="84.84" y="53.09" width="2.22" height="22.52" style="fill: #252545;opacity: 0.41000000000000003;mix-blend-mode: darken"/>
        </g>
      </g>
      <rect x="30.42" y="31.25" width="20.81" height="44.32" style="fill: #1a1a1a;opacity: 0.41000000000000003;mix-blend-mode: darken"/>
      <g>
        <circle cx="74.04" cy="37.09" r="5.06" style="fill: #fcd72a"/>
        <path d="M73.65,36.69a3.81,3.81,0,0,1,1.44.29,4.89,4.89,0,0,1,9.23,1.83,2.35,2.35,0,0,1,.6-.07,2.7,2.7,0,1,1,0,5.4H73.65a3.73,3.73,0,0,1,0-7.45Z" style="fill: #fff"/>
        <g>
          <line x1="74.08" y1="30.73" x2="74.08" y2="28.23" style="fill: none;stroke: #fcd72a;stroke-miterlimit: 10"/>
          <line x1="70.99" y1="31.59" x2="69.74" y2="29.42" style="fill: none;stroke: #fcd72a;stroke-miterlimit: 10"/>
          <line x1="68.74" y1="33.88" x2="66.58" y2="32.63" style="fill: none;stroke: #fcd72a;stroke-miterlimit: 10"/>
          <line x1="67.94" y1="36.98" x2="65.45" y2="36.98" style="fill: none;stroke: #fcd72a;stroke-miterlimit: 10"/>
          <line x1="79.48" y1="33.77" x2="81.64" y2="32.52" style="fill: none;stroke: #fcd72a;stroke-miterlimit: 10"/>
          <line x1="77.19" y1="31.53" x2="78.43" y2="29.36" style="fill: none;stroke: #fcd72a;stroke-miterlimit: 10"/>
        </g>
      </g>
      <g>
        <path d="M1.59,54.48H24a0,0,0,0,1,0,0V75.57a0,0,0,0,1,0,0H7.59a6,6,0,0,1-6-6V54.48A0,0,0,0,1,1.59,54.48Z" style="fill: #e6e6e6"/>
        <polygon points="46.3 40.56 23.98 54.63 23.98 75.57 46.3 75.57 46.3 40.56" style="fill: #e6e6e6"/>
        <polygon points="30.49 70.96 40.93 70.96 40.93 60.52 30.49 60.52 30.49 70.96" style="fill: #78cddb"/>
        <polygon points="7.56 70.96 18.01 70.96 18.01 60.52 7.56 60.52 7.56 70.96" style="fill: #78cddb"/>
        <path d="M1.59,54.48H24a0,0,0,0,1,0,0V75.57a0,0,0,0,1,0,0H7.59a6,6,0,0,1-6-6V54.48A0,0,0,0,1,1.59,54.48Z" style="fill: #1a1a1a;opacity: 0.41000000000000003;mix-blend-mode: darken"/>
        <path d="M46.29,40.67l-21.24,13a5.48,5.48,0,0,1-2.9.82H1.5L24.07,40.67H46.3" style="fill: #252545;stroke: #252545;stroke-linecap: round;stroke-linejoin: round;stroke-width: 3px"/>
      </g>
    </symbol>
  </defs>
  <title>build-1</title>
  <g id="b7b022cc-d9fb-4525-9fe6-66b590be1825" data-name="Layer 2">
    <g id="e975435e-09fc-4904-90e2-d1a75e88c073" data-name="Layer 4">
      <g>
        <g>
          <g>
            <g>
              <path d="M35.34,94.7A2.59,2.59,0,0,0,34,94.3a2.56,2.56,0,0,0-1.37.4,5.12,5.12,0,0,1-1-3C31.43,88.5,33.31,87.29,34,87c.66.32,2.54,1.53,2.36,4.78A5.19,5.19,0,0,1,35.34,94.7Z" style="fill: #fcd72a"/>
              <path d="M35.34,99a2.51,2.51,0,0,1-1.38.41A2.48,2.48,0,0,1,32.59,99a5.14,5.14,0,0,0-1,3c-.18,3.26,1.7,4.46,2.35,4.78.66-.32,2.54-1.52,2.36-4.78A5.22,5.22,0,0,0,35.34,99Z" style="fill: #fcd72a"/>
            </g>
            <g>
              <path d="M36.45,96.3A2.54,2.54,0,0,0,35.76,95a2.45,2.45,0,0,0-1.26-.68,5.21,5.21,0,0,1,1.39-2.79c2.17-2.42,4.36-1.95,5-1.71.24.69.71,2.88-1.71,5A5.22,5.22,0,0,1,36.45,96.3Z" style="fill: #fcd72a"/>
              <path d="M33.43,99.32a2.56,2.56,0,0,1-1.95-1.95,5.24,5.24,0,0,0-2.78,1.4c-2.43,2.17-1.95,4.35-1.71,5,.69.24,2.88.72,5-1.71A5.14,5.14,0,0,0,33.43,99.32Z" style="fill: #fcd72a"/>
            </g>
            <g>
              <path d="M36.1,98.21a2.54,2.54,0,0,0,.41-1.37,2.6,2.6,0,0,0-.41-1.38,5.22,5.22,0,0,1,2.95-1c3.25-.18,4.46,1.7,4.78,2.36-.32.65-1.53,2.54-4.78,2.36A5.22,5.22,0,0,1,36.1,98.21Z" style="fill: #fcd72a"/>
              <path d="M31.83,98.21a2.46,2.46,0,0,1-.41-1.37,2.51,2.51,0,0,1,.41-1.38,5.22,5.22,0,0,0-2.95-1c-3.25-.18-4.46,1.7-4.78,2.36.32.65,1.53,2.54,4.78,2.36A5.22,5.22,0,0,0,31.83,98.21Z" style="fill: #fcd72a"/>
            </g>
            <g>
              <path d="M34.5,99.32a2.54,2.54,0,0,0,1.26-.69,2.5,2.5,0,0,0,.69-1.26,5.24,5.24,0,0,1,2.78,1.4c2.42,2.17,2,4.35,1.71,5-.69.24-2.88.72-5-1.71A5.18,5.18,0,0,1,34.5,99.32Z" style="fill: #fcd72a"/>
              <path d="M31.48,96.3A2.54,2.54,0,0,1,32.17,95a2.45,2.45,0,0,1,1.26-.68A5.16,5.16,0,0,0,32,91.57c-2.16-2.42-4.35-1.95-5-1.71-.24.69-.72,2.88,1.71,5A5.22,5.22,0,0,0,31.48,96.3Z" style="fill: #fcd72a"/>
            </g>
          </g>
          <path d="M31.13,96.84A2.84,2.84,0,1,0,34,94,2.83,2.83,0,0,0,31.13,96.84Z" style="fill: #252545"/>
        </g>
        <g>
          <g>
            <g>
              <path d="M53.33,104.56a2.51,2.51,0,0,0-1.38-.41,2.48,2.48,0,0,0-1.37.41,5.14,5.14,0,0,1-1-3c-.19-3.25,1.7-4.46,2.35-4.78.66.32,2.54,1.53,2.36,4.78A5.22,5.22,0,0,1,53.33,104.56Z" style="fill: #fcd72a"/>
              <path d="M53.33,108.83a2.59,2.59,0,0,1-1.38.4,2.56,2.56,0,0,1-1.37-.4,5.12,5.12,0,0,0-1,3c-.19,3.25,1.7,4.46,2.35,4.78.66-.32,2.54-1.53,2.36-4.78A5.19,5.19,0,0,0,53.33,108.83Z" style="fill: #fcd72a"/>
            </g>
            <g>
              <path d="M54.44,106.16a2.5,2.5,0,0,0-.69-1.26,2.54,2.54,0,0,0-1.26-.69,5.18,5.18,0,0,1,1.39-2.78c2.17-2.43,4.36-2,5-1.71.24.69.71,2.87-1.71,5A5.29,5.29,0,0,1,54.44,106.16Z" style="fill: #fcd72a"/>
              <path d="M51.42,109.18a2.56,2.56,0,0,1-2-2,5.18,5.18,0,0,0-2.78,1.39c-2.43,2.17-1.95,4.36-1.71,5,.69.24,2.87.72,5-1.71A5.24,5.24,0,0,0,51.42,109.18Z" style="fill: #fcd72a"/>
            </g>
            <g>
              <path d="M54.09,108.07a2.59,2.59,0,0,0,.4-1.38,2.56,2.56,0,0,0-.4-1.37,5.12,5.12,0,0,1,2.95-1c3.25-.18,4.46,1.7,4.78,2.35-.32.66-1.53,2.54-4.78,2.36A5.19,5.19,0,0,1,54.09,108.07Z" style="fill: #fcd72a"/>
              <path d="M49.82,108.07a2.51,2.51,0,0,1-.41-1.38,2.48,2.48,0,0,1,.41-1.37,5.14,5.14,0,0,0-3-1c-3.25-.18-4.46,1.7-4.78,2.35.32.66,1.53,2.54,4.78,2.36A5.22,5.22,0,0,0,49.82,108.07Z" style="fill: #fcd72a"/>
            </g>
            <g>
              <path d="M52.49,109.18a2.56,2.56,0,0,0,1.95-2,5.22,5.22,0,0,1,2.78,1.39c2.42,2.17,2,4.36,1.71,5-.69.24-2.88.72-5-1.71A5.22,5.22,0,0,1,52.49,109.18Z" style="fill: #fcd72a"/>
              <path d="M49.47,106.16a2.5,2.5,0,0,1,.69-1.26,2.54,2.54,0,0,1,1.26-.69,5.21,5.21,0,0,0-1.4-2.78c-2.17-2.43-4.35-2-5-1.71-.24.69-.72,2.87,1.71,5A5.21,5.21,0,0,0,49.47,106.16Z" style="fill: #fcd72a"/>
            </g>
          </g>
          <path d="M49.12,106.69A2.84,2.84,0,1,0,52,103.86,2.84,2.84,0,0,0,49.12,106.69Z" style="fill: #252545"/>
        </g>
      </g>
      <use width="116.45" height="89.41" transform="translate(-0.51) scale(1.34)" xlink:href="#a92529f7-ff03-4454-ad91-1ed0686f1a77"/>
      <g>
        <ellipse cx="140.66" cy="105.54" rx="4.32" ry="6.75" style="fill: #252545"/>
        <ellipse cx="118.81" cy="105.54" rx="4.32" ry="6.75" style="fill: #252545"/>
        <ellipse cx="157.15" cy="105.54" rx="4.32" ry="6.75" style="fill: #252545"/>
        <g>
          <path d="M129.54,94.59v14.35H118.37a8.39,8.39,0,0,1-8.39-8.39s0-6,7-8.08c6.61-2,8.65-13.64,23.37-13.64" style="fill: #f2f2f2"/>
          <path d="M146.27,94.59h14.78a4.78,4.78,0,0,1,4.78,4.78v2.78a6.79,6.79,0,0,1-6.79,6.79H146.27a0,0,0,0,1,0,0V94.59A0,0,0,0,1,146.27,94.59Z" style="fill: #f2f2f2"/>
          <path d="M164.15,86.19a8,8,0,0,0-8-7.36H140.38a9.1,9.1,0,0,0-8.47,6l-3.56,9.74h0v14.35H158.8a6.19,6.19,0,0,0,6.19-6.2C165,98.43,164.54,91.48,164.15,86.19Z" style="fill: #f2f2f2"/>
        </g>
        <path d="M131,82.51h13.55a1.38,1.38,0,0,1,1,2.36l-5.28,5.22a3.1,3.1,0,0,1-2.17.89H124.51a1.39,1.39,0,0,1-1-2.37l5.28-5.21A3.1,3.1,0,0,1,131,82.51Z" style="fill: #78cddb"/>
        <g style="isolation: isolate">
          <g style="clip-path: url(#f0db1eaf-f39a-4c37-91c3-372b517a4e7e)">
            <g style="clip-path: url(#b196f26a-825c-4ed2-aa71-6d45c82aafd2)">
              <g style="clip-path: url(#b7c2c429-d39d-413a-9db3-a2b20aba8574)">
                <rect x="145.37" y="84.31" width="15.94" height="11.63" style="fill: #71be49"/>
              </g>
            </g>
          </g>
        </g>
        <path d="M165.83,102.15a6.79,6.79,0,0,1-6.79,6.79H118.37a8.39,8.39,0,0,1-8.39-8.39.75.75,0,0,1,0-.11h55.84Z" style="fill: #ccc"/>
        <rect x="131.58" y="97.97" width="7.95" height="3.79" rx="1.9" transform="translate(271.11 199.74) rotate(-180)" style="fill: #fff"/>
        <rect x="112.03" y="97.97" width="7.95" height="3.79" rx="1.9" transform="translate(232.01 199.74) rotate(-180)" style="fill: #fff"/>
      </g>
    </g>
  </g>
</svg>
